<?xml version="1.0" encoding="UTF-8"?>
<svg xmlns="http://www.w3.org/2000/svg" xmlns:xlink="http://www.w3.org/1999/xlink" width="702pt" height="518pt" viewBox="0 0 702 518" version="1.1">
<defs>
<clipPath id="clip1">
  <path d="M 59.039063 59.039063 L 672.757813 59.039063 L 672.757813 445.558594 L 59.039063 445.558594 Z M 59.039063 59.039063 "/>
</clipPath>
</defs>
<g id="surface26">
<rect x="0" y="0" width="702" height="518" style="fill:rgb(100%,100%,100%);fill-opacity:1;stroke:none;"/>
<g clip-path="url(#clip1)" clip-rule="nonzero">
<path style="fill:none;stroke-width:3;stroke-linecap:round;stroke-linejoin:round;stroke:rgb(0%,0%,0%);stroke-opacity:1;stroke-miterlimit:10;" d="M 173.191406 254.160156 L 172.851563 255.414063 L 172.527344 256.671875 L 172.226563 257.9375 L 171.949219 259.203125 L 171.699219 260.472656 L 171.476563 261.746094 L 171.289063 263.019531 L 171.136719 264.292969 L 171.011719 265.570313 L 170.917969 266.84375 L 170.847656 268.121094 L 170.800781 269.398438 L 170.769531 270.675781 L 170.757813 271.953125 L 170.761719 273.230469 L 170.777344 274.507813 L 170.800781 275.785156 L 170.828125 277.066406 L 170.859375 278.347656 L 170.894531 279.628906 L 170.925781 280.910156 L 170.949219 282.195313 L 170.96875 283.484375 L 170.976563 284.777344 L 170.984375 286.074219 L 170.996094 287.371094 L 171.015625 288.667969 L 171.050781 289.964844 L 171.109375 291.261719 L 171.195313 292.554688 L 171.3125 293.84375 L 171.472656 295.125 L 171.679688 296.398438 L 171.933594 297.660156 L 172.234375 298.914063 L 172.589844 300.152344 L 173 301.378906 L 173.476563 302.589844 L 174.015625 303.78125 L 174.625 304.949219 L 175.300781 306.097656 L 176.042969 307.222656 L 176.851563 308.324219 L 177.726563 309.402344 L 178.660156 310.457031 L 179.652344 311.484375 L 180.699219 312.488281 L 181.796875 313.464844 L 182.945313 314.417969 L 184.152344 315.34375 L 185.410156 316.238281 L 186.726563 317.101563 L 188.09375 317.933594 L 189.515625 318.734375 L 190.988281 319.503906 L 192.507813 320.238281 L 194.070313 320.945313 L 195.671875 321.621094 L 197.296875 322.269531 L 198.941406 322.894531 L 200.605469 323.492188 L 202.277344 324.074219 L 203.953125 324.632813 L 205.625 325.175781 L 207.289063 325.703125 L 208.933594 326.222656 L 210.554688 326.738281 L 212.140625 327.25 L 213.683594 327.761719 L 215.179688 328.28125 L 216.625 328.8125 L 218.007813 329.355469 L 219.335938 329.910156 L 220.613281 330.480469 L 221.839844 331.066406 L 223.023438 331.65625 L 224.164063 332.261719 L 225.265625 332.875 L 226.339844 333.496094 L 227.382813 334.125 L 228.402344 334.757813 L 229.398438 335.394531 L 230.375 336.03125 L 231.335938 336.671875 L 232.285156 337.3125 L 233.226563 337.953125 L 234.164063 338.585938 L 235.105469 339.210938 L 236.039063 339.832031 L 236.976563 340.449219 L 237.90625 341.058594 L 238.832031 341.664063 L 239.75 342.269531 L 240.660156 342.875 L 241.558594 343.480469 L 242.445313 344.089844 L 243.320313 344.699219 L 244.183594 345.308594 L 245.039063 345.921875 L 245.886719 346.535156 L 246.722656 347.152344 L 247.550781 347.769531 L 248.371094 348.386719 L 249.1875 349.003906 L 249.992188 349.625 L 250.792969 350.246094 L 252.378906 351.488281 L 253.167969 352.105469 L 253.953125 352.722656 L 254.742188 353.335938 L 255.527344 353.941406 L 256.320313 354.542969 L 257.109375 355.144531 L 257.902344 355.734375 L 258.699219 356.324219 L 259.492188 356.910156 L 260.289063 357.492188 L 261.882813 358.640625 L 262.683594 359.207031 L 263.480469 359.769531 L 264.285156 360.328125 L 265.085938 360.882813 L 266.695313 361.976563 L 267.503906 362.515625 L 268.308594 363.050781 L 269.121094 363.582031 L 269.929688 364.109375 L 271.554688 365.148438 L 272.371094 365.65625 L 273.191406 366.164063 L 274.011719 366.660156 L 274.832031 367.152344 L 275.660156 367.640625 L 276.488281 368.121094 L 277.316406 368.597656 L 278.148438 369.066406 L 278.980469 369.53125 L 279.816406 369.988281 L 280.65625 370.4375 L 281.496094 370.882813 L 282.335938 371.324219 L 283.179688 371.757813 L 284.023438 372.1875 L 284.867188 372.613281 L 285.710938 373.035156 L 286.558594 373.453125 L 287.402344 373.863281 L 288.25 374.273438 L 289.09375 374.679688 L 289.941406 375.078125 L 290.792969 375.472656 L 292.496094 376.238281 L 293.355469 376.609375 L 294.214844 376.972656 L 295.078125 377.324219 L 295.945313 377.667969 L 296.816406 378 L 297.695313 378.320313 L 298.574219 378.628906 L 299.460938 378.921875 L 300.355469 379.203125 L 301.253906 379.46875 L 302.160156 379.714844 L 303.066406 379.949219 L 303.980469 380.171875 L 304.898438 380.378906 L 305.816406 380.578125 L 306.738281 380.765625 L 307.660156 380.945313 L 308.582031 381.121094 L 310.417969 381.449219 L 311.335938 381.609375 L 312.25 381.765625 L 313.160156 381.921875 L 314.066406 382.078125 L 314.96875 382.238281 L 315.867188 382.398438 L 316.757813 382.566406 L 317.644531 382.734375 L 318.527344 382.910156 L 319.40625 383.085938 L 320.28125 383.265625 L 322.023438 383.632813 L 323.75 384 L 324.613281 384.1875 L 325.472656 384.371094 L 326.328125 384.554688 L 327.183594 384.742188 L 328.039063 384.925781 L 328.890625 385.113281 L 329.742188 385.296875 L 330.59375 385.476563 L 331.441406 385.660156 L 333.984375 386.199219 L 334.828125 386.378906 L 335.671875 386.554688 L 336.515625 386.738281 L 337.355469 386.917969 L 339.875 387.46875 L 341.546875 387.835938 L 342.386719 388.019531 L 344.894531 388.570313 L 345.730469 388.75 L 346.566406 388.933594 L 347.402344 389.121094 L 348.234375 389.304688 L 349.070313 389.488281 L 349.90625 389.675781 L 350.742188 389.859375 L 351.578125 390.046875 L 354.085938 390.621094 L 354.921875 390.816406 L 356.59375 391.214844 L 357.433594 391.417969 L 358.269531 391.625 L 359.949219 392.046875 L 360.792969 392.257813 L 361.632813 392.472656 L 362.476563 392.6875 L 363.324219 392.90625 L 364.167969 393.121094 L 365.019531 393.335938 L 365.867188 393.550781 L 366.722656 393.765625 L 367.574219 393.976563 L 368.433594 394.1875 L 369.289063 394.394531 L 370.152344 394.601563 L 371.011719 394.800781 L 371.878906 395 L 372.746094 395.195313 L 373.613281 395.386719 L 374.484375 395.578125 L 376.234375 395.953125 L 377.113281 396.136719 L 377.992188 396.316406 L 378.875 396.5 L 379.757813 396.675781 L 380.644531 396.855469 L 382.425781 397.207031 L 383.320313 397.378906 L 385.117188 397.722656 L 386.921875 398.058594 L 387.832031 398.226563 L 389.652344 398.546875 L 390.566406 398.699219 L 391.484375 398.851563 L 392.40625 398.996094 L 393.328125 399.136719 L 394.253906 399.269531 L 395.179688 399.398438 L 396.109375 399.523438 L 397.039063 399.640625 L 397.972656 399.757813 L 398.910156 399.863281 L 399.847656 399.964844 L 400.789063 400.0625 L 401.730469 400.152344 L 402.675781 400.238281 L 403.621094 400.316406 L 404.570313 400.386719 L 405.519531 400.453125 L 406.472656 400.511719 L 407.425781 400.566406 L 408.382813 400.613281 L 409.335938 400.652344 L 410.296875 400.683594 L 411.253906 400.703125 L 412.214844 400.71875 L 413.175781 400.71875 L 414.132813 400.710938 L 415.09375 400.691406 L 416.054688 400.664063 L 417.019531 400.628906 L 417.980469 400.589844 L 419.910156 400.496094 L 420.878906 400.445313 L 421.851563 400.394531 L 422.824219 400.339844 L 424.785156 400.246094 L 425.773438 400.207031 L 426.765625 400.175781 L 427.769531 400.15625 L 428.777344 400.144531 L 429.792969 400.148438 L 430.820313 400.160156 L 431.855469 400.1875 L 432.902344 400.21875 L 433.953125 400.257813 L 435.007813 400.300781 L 436.074219 400.34375 L 437.140625 400.382813 L 438.214844 400.421875 L 439.289063 400.453125 L 440.367188 400.472656 L 441.445313 400.480469 L 442.523438 400.476563 L 443.601563 400.457031 L 444.675781 400.414063 L 445.746094 400.351563 L 446.808594 400.265625 L 447.863281 400.15625 L 448.914063 400.023438 L 449.957031 399.867188 L 450.996094 399.695313 L 452.03125 399.503906 L 453.0625 399.296875 L 454.089844 399.078125 L 455.117188 398.847656 L 456.144531 398.609375 L 457.167969 398.363281 L 458.195313 398.113281 L 459.226563 397.859375 L 460.257813 397.601563 L 461.292969 397.34375 L 462.332031 397.089844 L 463.378906 396.839844 L 464.433594 396.589844 L 465.496094 396.34375 L 466.5625 396.101563 L 467.632813 395.855469 L 468.707031 395.609375 L 470.863281 395.101563 L 471.945313 394.835938 L 473.023438 394.5625 L 474.101563 394.277344 L 475.179688 393.980469 L 476.25 393.675781 L 477.320313 393.351563 L 478.382813 393.019531 L 479.441406 392.667969 L 480.492188 392.300781 L 481.535156 391.917969 L 482.574219 391.519531 L 483.605469 391.105469 L 484.628906 390.679688 L 485.652344 390.242188 L 486.667969 389.792969 L 487.683594 389.339844 L 488.699219 388.875 L 489.710938 388.40625 L 490.726563 387.933594 L 491.746094 387.457031 L 492.761719 386.980469 L 494.808594 386.011719 L 495.839844 385.527344 L 496.875 385.042969 L 497.914063 384.558594 L 498.960938 384.074219 L 500.007813 383.585938 L 501.0625 383.097656 L 502.117188 382.601563 L 503.175781 382.101563 L 504.230469 381.597656 L 505.285156 381.082031 L 506.339844 380.558594 L 507.390625 380.027344 L 508.433594 379.484375 L 509.476563 378.929688 L 510.511719 378.363281 L 511.542969 377.789063 L 512.566406 377.199219 L 513.582031 376.597656 L 514.589844 375.980469 L 515.585938 375.351563 L 516.578125 374.710938 L 517.558594 374.058594 L 518.53125 373.390625 L 519.496094 372.710938 L 520.453125 372.023438 L 521.402344 371.324219 L 522.34375 370.613281 L 523.28125 369.890625 L 524.207031 369.160156 L 525.128906 368.421875 L 526.039063 367.667969 L 526.941406 366.90625 L 527.835938 366.132813 L 528.722656 365.347656 L 529.597656 364.554688 L 530.464844 363.75 L 531.324219 362.9375 L 532.175781 362.117188 L 533.019531 361.285156 L 533.851563 360.441406 L 534.675781 359.59375 L 535.492188 358.734375 L 536.300781 357.867188 L 537.101563 356.992188 L 537.890625 356.109375 L 538.675781 355.21875 L 539.457031 354.320313 L 540.230469 353.417969 L 540.996094 352.507813 L 541.761719 351.59375 L 542.519531 350.675781 L 543.273438 349.75 L 544.019531 348.816406 L 544.761719 347.878906 L 545.492188 346.933594 L 546.210938 345.976563 L 546.917969 345.015625 L 547.617188 344.042969 L 548.300781 343.0625 L 548.96875 342.070313 L 549.621094 341.070313 L 550.253906 340.058594 L 550.871094 339.039063 L 551.46875 338.003906 L 552.046875 336.960938 L 552.597656 335.90625 L 553.128906 334.839844 L 553.640625 333.761719 L 554.128906 332.675781 L 554.59375 331.578125 L 555.042969 330.476563 L 555.472656 329.363281 L 555.886719 328.246094 L 556.285156 327.121094 L 556.667969 325.992188 L 557.035156 324.859375 L 557.394531 323.722656 L 557.738281 322.582031 L 558.070313 321.4375 L 558.394531 320.292969 L 558.707031 319.144531 L 559.015625 317.992188 L 559.3125 316.839844 L 559.601563 315.6875 L 559.886719 314.535156 L 560.164063 313.378906 L 560.433594 312.222656 L 560.695313 311.066406 L 560.949219 309.90625 L 561.195313 308.746094 L 561.433594 307.585938 L 561.660156 306.425781 L 561.882813 305.261719 L 562.101563 304.101563 L 562.3125 302.9375 L 562.515625 301.773438 L 562.714844 300.609375 L 563.097656 298.28125 L 563.28125 297.117188 L 563.457031 295.953125 L 563.628906 294.789063 L 563.792969 293.625 L 563.953125 292.460938 L 564.105469 291.296875 L 564.25 290.132813 L 564.390625 288.964844 L 564.519531 287.800781 L 564.644531 286.632813 L 564.761719 285.46875 L 564.867188 284.300781 L 564.964844 283.132813 L 565.054688 281.964844 L 565.132813 280.796875 L 565.203125 279.628906 L 565.261719 278.460938 L 565.3125 277.292969 L 565.351563 276.125 L 565.386719 274.957031 L 565.410156 273.789063 L 565.429688 272.621094 L 565.441406 271.457031 L 565.445313 270.289063 L 565.445313 269.125 L 565.441406 267.960938 L 565.429688 266.796875 L 565.414063 265.636719 L 565.394531 264.472656 L 565.367188 263.3125 L 565.335938 262.152344 L 565.304688 260.996094 L 565.265625 259.835938 L 565.226563 258.679688 L 565.140625 256.367188 L 565.09375 255.214844 L 565.046875 254.058594 L 564.996094 252.90625 L 564.949219 251.753906 L 564.898438 250.601563 L 564.851563 249.449219 L 564.804688 248.300781 L 564.761719 247.148438 L 564.722656 245.996094 L 564.6875 244.84375 L 564.65625 243.695313 L 564.632813 242.542969 L 564.609375 241.386719 L 564.59375 240.234375 L 564.574219 239.078125 L 564.558594 237.921875 L 564.539063 236.765625 L 564.492188 234.453125 L 564.460938 233.292969 L 564.425781 232.132813 L 564.378906 230.976563 L 564.320313 229.816406 L 564.253906 228.660156 L 564.171875 227.5 L 564.074219 226.34375 L 563.960938 225.191406 L 563.832031 224.039063 L 563.683594 222.886719 L 563.519531 221.738281 L 563.34375 220.59375 L 563.15625 219.449219 L 562.957031 218.304688 L 562.75 217.164063 L 562.535156 216.023438 L 562.3125 214.886719 L 562.089844 213.746094 L 561.628906 211.472656 L 561.160156 209.199219 L 560.929688 208.058594 L 560.699219 206.921875 L 560.472656 205.78125 L 560.25 204.636719 L 560.027344 203.496094 L 559.574219 201.207031 L 559.34375 200.058594 L 559.109375 198.914063 L 558.867188 197.773438 L 558.617188 196.628906 L 558.355469 195.488281 L 558.085938 194.351563 L 557.804688 193.214844 L 557.511719 192.082031 L 557.207031 190.949219 L 556.886719 189.824219 L 556.554688 188.703125 L 556.203125 187.585938 L 555.839844 186.472656 L 555.460938 185.363281 L 555.070313 184.261719 L 554.664063 183.164063 L 554.246094 182.070313 L 553.8125 180.980469 L 553.371094 179.898438 L 552.917969 178.820313 L 552.453125 177.746094 L 551.976563 176.675781 L 551.492188 175.609375 L 550.992188 174.550781 L 550.484375 173.496094 L 549.960938 172.449219 L 549.429688 171.40625 L 548.886719 170.371094 L 548.335938 169.339844 L 547.769531 168.3125 L 547.199219 167.292969 L 546.613281 166.277344 L 546.023438 165.269531 L 545.421875 164.265625 L 544.8125 163.269531 L 544.195313 162.277344 L 543.566406 161.292969 L 542.933594 160.308594 L 542.292969 159.332031 L 541.648438 158.359375 L 540.996094 157.390625 L 540.34375 156.425781 L 539.6875 155.464844 L 539.023438 154.503906 L 538.359375 153.546875 L 537.691406 152.59375 L 537.019531 151.648438 L 536.339844 150.703125 L 535.652344 149.765625 L 534.957031 148.832031 L 534.257813 147.90625 L 533.546875 146.984375 L 532.828125 146.074219 L 532.097656 145.167969 L 531.359375 144.273438 L 530.609375 143.386719 L 529.847656 142.511719 L 529.070313 141.644531 L 528.28125 140.789063 L 527.480469 139.949219 L 526.664063 139.121094 L 525.839844 138.300781 L 525 137.492188 L 524.15625 136.695313 L 523.300781 135.90625 L 522.4375 135.125 L 521.570313 134.351563 L 520.699219 133.585938 L 519.820313 132.828125 L 518.941406 132.074219 L 518.054688 131.328125 L 517.167969 130.585938 L 516.28125 129.847656 L 514.5 128.386719 L 512.71875 126.933594 L 511.824219 126.214844 L 510.933594 125.5 L 510.035156 124.789063 L 509.136719 124.082031 L 508.238281 123.382813 L 507.332031 122.6875 L 506.421875 122 L 505.503906 121.324219 L 504.585938 120.652344 L 503.660156 119.988281 L 502.730469 119.332031 L 501.796875 118.6875 L 500.855469 118.046875 L 499.910156 117.417969 L 498.960938 116.796875 L 498.003906 116.1875 L 497.039063 115.589844 L 496.070313 115 L 495.09375 114.425781 L 494.109375 113.863281 L 493.117188 113.308594 L 492.117188 112.773438 L 491.109375 112.246094 L 490.09375 111.738281 L 489.070313 111.242188 L 488.039063 110.765625 L 487 110.304688 L 485.949219 109.863281 L 484.886719 109.4375 L 483.816406 109.035156 L 482.734375 108.648438 L 481.644531 108.285156 L 480.546875 107.941406 L 479.4375 107.613281 L 478.328125 107.304688 L 477.207031 107.007813 L 476.085938 106.730469 L 474.957031 106.46875 L 473.828125 106.21875 L 472.695313 105.984375 L 471.558594 105.761719 L 470.421875 105.550781 L 469.285156 105.355469 L 468.144531 105.167969 L 467.007813 104.992188 L 465.867188 104.824219 L 464.730469 104.667969 L 463.597656 104.515625 L 462.460938 104.375 L 461.328125 104.246094 L 460.195313 104.121094 L 459.066406 104.007813 L 457.933594 103.902344 L 456.804688 103.808594 L 455.675781 103.726563 L 454.550781 103.652344 L 453.425781 103.585938 L 452.300781 103.527344 L 450.066406 103.425781 L 448.957031 103.382813 L 447.847656 103.34375 L 445.644531 103.28125 L 444.546875 103.261719 L 443.449219 103.25 L 442.355469 103.25 L 441.257813 103.265625 L 440.164063 103.292969 L 439.066406 103.335938 L 437.96875 103.394531 L 436.871094 103.472656 L 435.769531 103.574219 L 434.667969 103.703125 L 433.558594 103.855469 L 432.445313 104.042969 L 431.328125 104.261719 L 430.207031 104.515625 L 429.082031 104.804688 L 427.949219 105.128906 L 426.820313 105.480469 L 425.691406 105.855469 L 424.5625 106.253906 L 423.4375 106.671875 L 422.320313 107.101563 L 421.207031 107.539063 L 420.101563 107.988281 L 419.007813 108.433594 L 417.921875 108.878906 L 416.847656 109.316406 L 415.785156 109.746094 L 414.734375 110.160156 L 413.699219 110.554688 L 412.675781 110.925781 L 411.667969 111.273438 L 410.671875 111.59375 L 409.6875 111.894531 L 408.714844 112.175781 L 407.75 112.441406 L 406.792969 112.695313 L 405.847656 112.941406 L 404.90625 113.175781 L 403.96875 113.414063 L 403.039063 113.648438 L 402.113281 113.882813 L 401.191406 114.121094 L 400.277344 114.363281 L 399.363281 114.613281 L 398.453125 114.875 L 397.546875 115.148438 L 396.640625 115.433594 L 395.742188 115.734375 L 394.84375 116.046875 L 393.953125 116.367188 L 393.0625 116.695313 L 392.179688 117.027344 L 391.300781 117.363281 L 390.429688 117.695313 L 389.5625 118.027344 L 388.699219 118.355469 L 387.839844 118.679688 L 386.988281 118.996094 L 386.140625 119.3125 L 385.300781 119.621094 L 384.464844 119.917969 L 383.628906 120.210938 L 382.800781 120.492188 L 381.976563 120.765625 L 381.160156 121.03125 L 380.34375 121.289063 L 379.53125 121.535156 L 378.722656 121.777344 L 377.914063 122.011719 L 376.3125 122.464844 L 375.511719 122.6875 L 374.71875 122.902344 L 373.925781 123.109375 L 373.132813 123.3125 L 372.34375 123.503906 L 371.558594 123.695313 L 370.773438 123.875 L 369.988281 124.046875 L 369.203125 124.210938 L 368.421875 124.367188 L 367.640625 124.515625 L 366.859375 124.65625 L 366.078125 124.789063 L 365.296875 124.917969 L 364.515625 125.035156 L 363.734375 125.144531 L 362.953125 125.242188 L 362.171875 125.335938 L 361.386719 125.421875 L 360.605469 125.503906 L 359.816406 125.578125 L 359.03125 125.648438 L 357.453125 125.773438 L 356.664063 125.828125 L 355.871094 125.875 L 355.078125 125.917969 L 354.277344 125.949219 L 353.480469 125.976563 L 352.675781 125.992188 L 351.867188 126 L 351.058594 126 L 350.242188 125.984375 L 349.421875 125.960938 L 348.597656 125.925781 L 347.765625 125.875 L 346.929688 125.8125 L 346.085938 125.734375 L 345.234375 125.640625 L 344.375 125.53125 L 343.507813 125.410156 L 342.632813 125.273438 L 341.75 125.125 L 340.859375 124.96875 L 339.960938 124.800781 L 339.054688 124.625 L 338.140625 124.441406 L 337.222656 124.253906 L 336.292969 124.0625 L 335.359375 123.867188 L 334.417969 123.671875 L 333.472656 123.480469 L 332.519531 123.292969 L 331.566406 123.109375 L 330.605469 122.929688 L 329.640625 122.761719 L 328.675781 122.597656 L 327.703125 122.441406 L 326.726563 122.289063 L 325.746094 122.140625 L 324.761719 121.996094 L 323.769531 121.855469 L 321.769531 121.582031 L 320.757813 121.445313 L 319.742188 121.304688 L 318.714844 121.164063 L 317.679688 121.023438 L 316.636719 120.875 L 315.582031 120.722656 L 314.519531 120.566406 L 313.445313 120.402344 L 312.359375 120.238281 L 311.265625 120.074219 L 310.167969 119.914063 L 309.066406 119.761719 L 307.957031 119.621094 L 306.851563 119.496094 L 305.742188 119.386719 L 304.640625 119.300781 L 303.539063 119.234375 L 302.445313 119.195313 L 301.359375 119.1875 L 300.285156 119.210938 L 299.222656 119.265625 L 298.175781 119.359375 L 297.144531 119.492188 L 296.132813 119.664063 L 295.140625 119.875 L 294.164063 120.121094 L 293.203125 120.398438 L 292.257813 120.707031 L 291.324219 121.042969 L 290.40625 121.40625 L 289.5 121.785156 L 288.601563 122.1875 L 287.710938 122.601563 L 286.832031 123.03125 L 285.953125 123.476563 L 285.085938 123.925781 L 284.214844 124.386719 L 283.351563 124.847656 L 282.484375 125.316406 L 281.613281 125.78125 L 280.742188 126.25 L 279.871094 126.714844 L 279 127.1875 L 278.125 127.660156 L 277.253906 128.136719 L 276.378906 128.617188 L 275.511719 129.105469 L 274.640625 129.597656 L 273.777344 130.097656 L 272.914063 130.601563 L 272.050781 131.113281 L 271.191406 131.628906 L 270.332031 132.148438 L 269.476563 132.675781 L 268.625 133.210938 L 267.773438 133.75 L 266.925781 134.292969 L 266.074219 134.839844 L 265.226563 135.390625 L 264.371094 135.9375 L 263.515625 136.488281 L 262.65625 137.039063 L 261.785156 137.582031 L 260.910156 138.125 L 260.027344 138.660156 L 259.132813 139.195313 L 258.230469 139.722656 L 257.316406 140.246094 L 256.394531 140.765625 L 255.457031 141.28125 L 254.511719 141.789063 L 253.554688 142.292969 L 252.585938 142.796875 L 251.601563 143.292969 L 250.609375 143.785156 L 249.609375 144.277344 L 248.59375 144.769531 L 247.570313 145.257813 L 246.542969 145.75 L 245.503906 146.242188 L 244.457031 146.738281 L 243.40625 147.234375 L 242.347656 147.734375 L 241.28125 148.238281 L 240.207031 148.742188 L 239.128906 149.253906 L 238.046875 149.769531 L 236.957031 150.289063 L 235.867188 150.816406 L 234.777344 151.351563 L 233.683594 151.894531 L 232.59375 152.449219 L 231.511719 153.015625 L 230.429688 153.589844 L 229.359375 154.179688 L 228.292969 154.785156 L 227.238281 155.40625 L 226.199219 156.039063 L 225.171875 156.691406 L 224.160156 157.359375 L 223.164063 158.046875 L 222.191406 158.753906 L 221.238281 159.480469 L 220.308594 160.226563 L 219.402344 160.992188 L 218.519531 161.777344 L 217.65625 162.578125 L 216.816406 163.394531 L 215.996094 164.230469 L 215.195313 165.078125 L 214.410156 165.941406 L 213.648438 166.820313 L 212.898438 167.707031 L 212.171875 168.609375 L 211.457031 169.523438 L 210.757813 170.449219 L 210.074219 171.382813 L 209.40625 172.324219 L 208.75 173.277344 L 208.105469 174.238281 L 207.472656 175.207031 L 206.847656 176.179688 L 206.234375 177.164063 L 205.632813 178.152344 L 205.035156 179.144531 L 204.449219 180.144531 L 203.875 181.148438 L 203.304688 182.160156 L 202.742188 183.175781 L 202.1875 184.195313 L 201.636719 185.21875 L 201.089844 186.246094 L 200.003906 188.308594 L 198.917969 190.378906 L 198.378906 191.417969 L 197.835938 192.460938 L 197.296875 193.503906 L 196.757813 194.550781 L 195.679688 196.652344 L 195.140625 197.707031 L 194.605469 198.765625 L 194.070313 199.828125 L 193.539063 200.890625 L 193.007813 201.957031 L 192.476563 203.03125 L 191.953125 204.105469 L 191.429688 205.183594 L 190.910156 206.265625 L 190.394531 207.351563 L 189.882813 208.441406 L 189.375 209.539063 L 188.871094 210.636719 L 188.371094 211.738281 L 187.875 212.84375 L 187.382813 213.957031 L 186.894531 215.070313 L 186.410156 216.1875 L 185.925781 217.3125 L 185.449219 218.4375 L 184.976563 219.570313 L 184.507813 220.703125 L 184.050781 221.84375 L 183.59375 222.988281 L 183.148438 224.136719 L 182.707031 225.289063 L 182.273438 226.445313 L 181.847656 227.605469 L 181.425781 228.769531 L 181.007813 229.941406 L 180.597656 231.113281 L 180.191406 232.292969 L 179.789063 233.472656 L 179.394531 234.65625 L 178.613281 237.039063 L 178.222656 238.234375 L 177.441406 240.640625 L 177.050781 241.847656 L 176.65625 243.058594 L 176.257813 244.273438 L 175.460938 246.71875 L 175.0625 247.945313 L 174.675781 249.179688 L 174.289063 250.417969 L 173.914063 251.660156 L 173.546875 252.90625 "/>
</g>
</g>
</svg>
