<?xml version="1.0" encoding="UTF-8"?>
<svg xmlns="http://www.w3.org/2000/svg" xmlns:xlink="http://www.w3.org/1999/xlink" width="680pt" height="518pt" viewBox="0 0 680 518" version="1.1">
<defs>
<clipPath id="clip1">
  <path d="M 59.039063 59.039063 L 650.757813 59.039063 L 650.757813 445.558594 L 59.039063 445.558594 Z M 59.039063 59.039063 "/>
</clipPath>
</defs>
<g id="surface6">
<rect x="0" y="0" width="680" height="518" style="fill:rgb(100%,100%,100%);fill-opacity:1;stroke:none;"/>
<g clip-path="url(#clip1)" clip-rule="nonzero">
<path style="fill:none;stroke-width:3;stroke-linecap:round;stroke-linejoin:round;stroke:rgb(0%,0%,0%);stroke-opacity:1;stroke-miterlimit:10;" d="M 154.3125 255.957031 L 154.175781 257.183594 L 154.042969 258.410156 L 153.921875 259.636719 L 153.804688 260.867188 L 153.691406 262.101563 L 153.585938 263.332031 L 153.488281 264.566406 L 153.394531 265.804688 L 153.304688 267.042969 L 153.222656 268.285156 L 153.144531 269.523438 L 153.074219 270.769531 L 153.011719 272.011719 L 152.957031 273.257813 L 152.90625 274.507813 L 152.867188 275.753906 L 152.835938 277.003906 L 152.816406 278.257813 L 152.804688 279.507813 L 152.796875 280.761719 L 152.800781 282.015625 L 152.816406 283.269531 L 152.839844 284.523438 L 152.871094 285.777344 L 152.917969 287.035156 L 152.972656 288.289063 L 153.042969 289.546875 L 153.125 290.800781 L 153.222656 292.054688 L 153.335938 293.304688 L 153.46875 294.554688 L 153.617188 295.800781 L 153.785156 297.046875 L 153.976563 298.289063 L 154.1875 299.527344 L 154.417969 300.761719 L 154.675781 301.988281 L 154.957031 303.214844 L 155.261719 304.429688 L 155.59375 305.640625 L 155.953125 306.84375 L 156.339844 308.039063 L 156.753906 309.226563 L 157.191406 310.402344 L 157.660156 311.574219 L 158.15625 312.734375 L 158.675781 313.882813 L 159.226563 315.019531 L 159.800781 316.148438 L 160.402344 317.265625 L 161.03125 318.371094 L 161.683594 319.464844 L 162.367188 320.542969 L 163.070313 321.613281 L 163.800781 322.667969 L 164.554688 323.710938 L 165.332031 324.738281 L 166.132813 325.753906 L 166.960938 326.753906 L 167.808594 327.738281 L 168.679688 328.710938 L 169.574219 329.664063 L 170.488281 330.605469 L 171.421875 331.53125 L 172.378906 332.441406 L 173.359375 333.335938 L 174.355469 334.214844 L 175.371094 335.074219 L 176.410156 335.921875 L 177.464844 336.75 L 178.535156 337.5625 L 179.625 338.355469 L 180.730469 339.136719 L 181.847656 339.902344 L 182.972656 340.652344 L 184.109375 341.386719 L 185.25 342.109375 L 186.398438 342.824219 L 187.546875 343.523438 L 188.695313 344.214844 L 189.84375 344.898438 L 190.988281 345.570313 L 192.128906 346.238281 L 193.261719 346.902344 L 194.386719 347.5625 L 195.5 348.21875 L 196.601563 348.871094 L 197.6875 349.523438 L 198.765625 350.179688 L 199.828125 350.832031 L 200.878906 351.480469 L 201.921875 352.132813 L 202.953125 352.78125 L 203.972656 353.429688 L 204.988281 354.074219 L 205.996094 354.714844 L 206.996094 355.355469 L 207.992188 355.992188 L 208.980469 356.628906 L 209.96875 357.257813 L 210.949219 357.886719 L 211.925781 358.507813 L 212.902344 359.125 L 213.878906 359.738281 L 215.824219 360.949219 L 217.761719 362.136719 L 218.726563 362.726563 L 219.6875 363.3125 L 220.648438 363.894531 L 222.554688 365.050781 L 223.5 365.625 L 224.449219 366.191406 L 225.390625 366.757813 L 226.332031 367.320313 L 227.273438 367.878906 L 228.210938 368.433594 L 230.085938 369.527344 L 231.019531 370.070313 L 231.953125 370.609375 L 232.886719 371.140625 L 233.816406 371.671875 L 234.746094 372.195313 L 235.679688 372.714844 L 236.609375 373.230469 L 238.46875 374.246094 L 239.398438 374.746094 L 240.324219 375.246094 L 241.25 375.742188 L 242.175781 376.230469 L 243.097656 376.71875 L 244.941406 377.6875 L 245.859375 378.164063 L 246.78125 378.636719 L 247.699219 379.105469 L 248.621094 379.566406 L 249.546875 380.019531 L 250.472656 380.46875 L 251.398438 380.910156 L 252.328125 381.34375 L 253.261719 381.765625 L 254.195313 382.183594 L 255.136719 382.589844 L 256.082031 382.984375 L 257.027344 383.367188 L 257.980469 383.742188 L 258.9375 384.101563 L 259.902344 384.449219 L 260.867188 384.789063 L 261.835938 385.113281 L 262.804688 385.433594 L 263.78125 385.738281 L 264.753906 386.039063 L 265.730469 386.328125 L 266.707031 386.613281 L 267.683594 386.890625 L 268.660156 387.160156 L 269.632813 387.421875 L 270.609375 387.683594 L 272.554688 388.183594 L 273.523438 388.429688 L 274.492188 388.671875 L 275.457031 388.910156 L 276.421875 389.144531 L 277.382813 389.378906 L 278.34375 389.609375 L 280.257813 390.054688 L 281.210938 390.273438 L 282.164063 390.488281 L 283.117188 390.699219 L 284.066406 390.90625 L 285.011719 391.109375 L 285.960938 391.308594 L 286.902344 391.507813 L 287.847656 391.703125 L 288.789063 391.894531 L 289.726563 392.082031 L 291.601563 392.449219 L 292.535156 392.628906 L 293.46875 392.804688 L 294.398438 392.976563 L 295.328125 393.144531 L 297.1875 393.472656 L 299.039063 393.785156 L 299.964844 393.933594 L 300.886719 394.078125 L 301.8125 394.214844 L 302.734375 394.351563 L 303.65625 394.480469 L 304.578125 394.601563 L 305.5 394.71875 L 306.421875 394.832031 L 307.34375 394.9375 L 308.261719 395.039063 L 309.179688 395.136719 L 310.097656 395.230469 L 311.015625 395.316406 L 311.929688 395.402344 L 313.757813 395.558594 L 314.667969 395.632813 L 315.578125 395.699219 L 316.488281 395.769531 L 318.300781 395.894531 L 319.203125 395.953125 L 320.109375 396.011719 L 321.007813 396.066406 L 321.910156 396.121094 L 323.707031 396.222656 L 324.601563 396.273438 L 325.496094 396.320313 L 326.390625 396.363281 L 328.171875 396.449219 L 329.0625 396.488281 L 331.722656 396.605469 L 332.609375 396.640625 L 336.140625 396.78125 L 338.777344 396.886719 L 339.65625 396.925781 L 340.53125 396.960938 L 341.40625 397 L 342.285156 397.039063 L 343.160156 397.078125 L 344.910156 397.164063 L 345.78125 397.207031 L 346.65625 397.257813 L 347.53125 397.304688 L 348.40625 397.355469 L 351.03125 397.519531 L 352.78125 397.636719 L 353.660156 397.699219 L 354.535156 397.761719 L 355.414063 397.824219 L 356.292969 397.890625 L 357.175781 397.957031 L 358.054688 398.019531 L 358.9375 398.085938 L 359.824219 398.152344 L 360.707031 398.21875 L 362.480469 398.351563 L 363.371094 398.421875 L 364.261719 398.488281 L 365.15625 398.554688 L 366.945313 398.695313 L 367.84375 398.765625 L 368.746094 398.835938 L 370.550781 398.984375 L 372.371094 399.140625 L 373.28125 399.222656 L 374.199219 399.304688 L 375.117188 399.390625 L 376.039063 399.476563 L 376.960938 399.566406 L 378.820313 399.746094 L 379.753906 399.839844 L 380.691406 399.929688 L 382.574219 400.109375 L 384.472656 400.28125 L 385.421875 400.363281 L 386.378906 400.441406 L 387.335938 400.515625 L 388.296875 400.585938 L 389.257813 400.652344 L 390.222656 400.710938 L 391.191406 400.765625 L 392.160156 400.816406 L 393.132813 400.859375 L 394.109375 400.898438 L 396.0625 400.960938 L 397.042969 400.980469 L 398.027344 401 L 399.015625 401.011719 L 400.003906 401.019531 L 400.992188 401.023438 L 401.984375 401.023438 L 402.980469 401.015625 L 403.980469 401.003906 L 404.980469 400.988281 L 405.980469 400.964844 L 406.984375 400.941406 L 407.992188 400.910156 L 410.015625 400.832031 L 411.027344 400.785156 L 412.042969 400.730469 L 413.0625 400.671875 L 414.082031 400.609375 L 415.101563 400.535156 L 416.125 400.457031 L 417.148438 400.371094 L 418.175781 400.28125 L 419.203125 400.183594 L 420.230469 400.078125 L 421.261719 399.964844 L 422.289063 399.84375 L 423.324219 399.71875 L 424.355469 399.582031 L 425.390625 399.441406 L 426.421875 399.292969 L 427.457031 399.136719 L 428.496094 398.972656 L 429.53125 398.800781 L 430.570313 398.625 L 431.605469 398.4375 L 432.644531 398.246094 L 433.683594 398.042969 L 434.722656 397.835938 L 435.765625 397.617188 L 436.804688 397.394531 L 437.84375 397.164063 L 438.882813 396.925781 L 439.925781 396.679688 L 440.964844 396.421875 L 442.003906 396.160156 L 443.046875 395.890625 L 444.085938 395.613281 L 445.125 395.328125 L 446.164063 395.035156 L 447.203125 394.730469 L 448.242188 394.421875 L 449.277344 394.105469 L 450.3125 393.777344 L 451.351563 393.445313 L 452.382813 393.101563 L 453.417969 392.753906 L 454.453125 392.394531 L 455.484375 392.027344 L 456.515625 391.65625 L 457.542969 391.273438 L 458.574219 390.882813 L 459.601563 390.484375 L 460.628906 390.082031 L 461.652344 389.667969 L 462.679688 389.25 L 463.703125 388.824219 L 464.730469 388.394531 L 465.753906 387.957031 L 466.777344 387.511719 L 467.800781 387.058594 L 468.828125 386.601563 L 469.851563 386.136719 L 470.875 385.667969 L 471.898438 385.191406 L 472.921875 384.710938 L 473.945313 384.222656 L 474.972656 383.730469 L 475.996094 383.230469 L 477.019531 382.722656 L 478.046875 382.214844 L 479.074219 381.695313 L 480.097656 381.175781 L 482.152344 380.113281 L 484.207031 379.027344 L 486.261719 377.917969 L 487.292969 377.355469 L 488.320313 376.785156 L 489.351563 376.210938 L 490.382813 375.632813 L 491.414063 375.046875 L 492.445313 374.453125 L 493.472656 373.851563 L 494.5 373.242188 L 495.527344 372.628906 L 496.554688 372.003906 L 497.578125 371.375 L 498.597656 370.734375 L 499.613281 370.085938 L 500.628906 369.429688 L 501.640625 368.765625 L 502.644531 368.089844 L 503.644531 367.40625 L 504.640625 366.710938 L 505.632813 366.007813 L 506.617188 365.292969 L 507.59375 364.566406 L 508.566406 363.832031 L 509.535156 363.089844 L 510.496094 362.335938 L 511.453125 361.574219 L 512.402344 360.804688 L 513.347656 360.023438 L 514.285156 359.234375 L 515.21875 358.433594 L 516.144531 357.625 L 517.0625 356.808594 L 517.980469 355.984375 L 518.886719 355.152344 L 519.789063 354.308594 L 520.683594 353.457031 L 521.574219 352.597656 L 522.457031 351.730469 L 523.335938 350.855469 L 524.203125 349.96875 L 525.066406 349.078125 L 525.921875 348.175781 L 526.769531 347.261719 L 527.605469 346.34375 L 528.4375 345.417969 L 529.261719 344.480469 L 530.074219 343.535156 L 530.878906 342.582031 L 531.675781 341.617188 L 532.460938 340.648438 L 533.238281 339.667969 L 534.007813 338.683594 L 534.765625 337.6875 L 535.511719 336.683594 L 536.25 335.671875 L 536.976563 334.652344 L 537.691406 333.625 L 538.398438 332.585938 L 539.09375 331.542969 L 539.773438 330.492188 L 540.445313 329.433594 L 541.105469 328.367188 L 541.753906 327.292969 L 542.390625 326.210938 L 543.015625 325.121094 L 543.628906 324.023438 L 544.230469 322.921875 L 544.816406 321.8125 L 545.390625 320.695313 L 545.953125 319.570313 L 546.5 318.441406 L 547.03125 317.304688 L 547.550781 316.160156 L 548.054688 315.007813 L 548.542969 313.851563 L 549.015625 312.6875 L 549.46875 311.519531 L 549.910156 310.34375 L 550.332031 309.160156 L 550.734375 307.972656 L 551.121094 306.78125 L 551.488281 305.582031 L 551.835938 304.375 L 552.167969 303.164063 L 552.476563 301.949219 L 552.769531 300.730469 L 553.046875 299.507813 L 553.304688 298.28125 L 553.546875 297.050781 L 553.769531 295.816406 L 553.980469 294.582031 L 554.175781 293.34375 L 554.355469 292.101563 L 554.519531 290.859375 L 554.671875 289.613281 L 554.8125 288.367188 L 554.941406 287.121094 L 555.058594 285.875 L 555.164063 284.625 L 555.261719 283.375 L 555.347656 282.128906 L 555.421875 280.878906 L 555.488281 279.628906 L 555.542969 278.378906 L 555.589844 277.128906 L 555.621094 275.878906 L 555.644531 274.628906 L 555.660156 273.378906 L 555.660156 272.128906 L 555.648438 270.882813 L 555.628906 269.632813 L 555.59375 268.386719 L 555.550781 267.136719 L 555.496094 265.890625 L 555.425781 264.648438 L 555.347656 263.402344 L 555.257813 262.160156 L 555.152344 260.917969 L 555.042969 259.679688 L 554.921875 258.441406 L 554.792969 257.203125 L 554.65625 255.96875 L 554.511719 254.734375 L 554.363281 253.503906 L 554.207031 252.273438 L 553.878906 249.820313 L 553.707031 248.59375 L 553.535156 247.371094 L 553.359375 246.152344 L 553 243.714844 L 552.820313 242.5 L 552.445313 240.070313 L 552.25 238.859375 L 552.050781 237.648438 L 551.84375 236.441406 L 551.632813 235.234375 L 551.414063 234.03125 L 551.1875 232.828125 L 550.949219 231.628906 L 550.699219 230.433594 L 550.441406 229.238281 L 550.171875 228.042969 L 549.890625 226.855469 L 549.597656 225.671875 L 549.289063 224.488281 L 548.964844 223.308594 L 548.632813 222.132813 L 548.289063 220.964844 L 547.933594 219.796875 L 547.566406 218.632813 L 547.191406 217.472656 L 546.808594 216.316406 L 546.417969 215.160156 L 546.019531 214.011719 L 545.613281 212.863281 L 545.203125 211.722656 L 544.785156 210.582031 L 544.363281 209.445313 L 543.941406 208.3125 L 543.511719 207.179688 L 543.078125 206.050781 L 542.203125 203.800781 L 541.753906 202.679688 L 541.304688 201.566406 L 540.84375 200.453125 L 540.378906 199.34375 L 539.90625 198.238281 L 539.421875 197.136719 L 538.929688 196.042969 L 538.425781 194.949219 L 537.914063 193.863281 L 537.390625 192.785156 L 536.855469 191.710938 L 536.3125 190.640625 L 535.753906 189.578125 L 535.1875 188.523438 L 534.605469 187.472656 L 534.015625 186.429688 L 533.414063 185.394531 L 532.804688 184.363281 L 532.183594 183.339844 L 531.554688 182.324219 L 530.917969 181.3125 L 530.277344 180.304688 L 529.625 179.304688 L 528.96875 178.308594 L 528.304688 177.320313 L 527.632813 176.335938 L 526.957031 175.359375 L 526.273438 174.386719 L 525.585938 173.417969 L 524.890625 172.457031 L 524.191406 171.503906 L 523.488281 170.550781 L 522.777344 169.605469 L 522.066406 168.664063 L 521.351563 167.730469 L 520.628906 166.800781 L 519.90625 165.875 L 519.179688 164.953125 L 518.449219 164.035156 L 517.714844 163.121094 L 516.246094 161.308594 L 515.511719 160.40625 L 514.773438 159.503906 L 514.039063 158.605469 L 512.570313 156.816406 L 511.832031 155.925781 L 511.09375 155.039063 L 510.351563 154.15625 L 509.609375 153.277344 L 508.859375 152.402344 L 508.109375 151.535156 L 507.351563 150.671875 L 506.585938 149.8125 L 505.816406 148.964844 L 505.039063 148.121094 L 504.25 147.289063 L 503.453125 146.464844 L 502.644531 145.648438 L 501.828125 144.84375 L 501 144.050781 L 500.160156 143.269531 L 499.308594 142.5 L 498.453125 141.738281 L 497.585938 140.984375 L 496.710938 140.242188 L 495.832031 139.507813 L 494.945313 138.785156 L 494.054688 138.066406 L 493.160156 137.355469 L 492.261719 136.648438 L 491.363281 135.953125 L 490.457031 135.257813 L 489.554688 134.570313 L 488.648438 133.886719 L 487.742188 133.207031 L 486.839844 132.53125 L 485.933594 131.859375 L 485.027344 131.191406 L 484.121094 130.527344 L 483.210938 129.867188 L 482.296875 129.214844 L 481.382813 128.570313 L 480.464844 127.929688 L 479.539063 127.300781 L 478.609375 126.675781 L 477.675781 126.0625 L 476.738281 125.460938 L 475.792969 124.867188 L 474.839844 124.285156 L 473.882813 123.710938 L 472.917969 123.152344 L 471.949219 122.601563 L 470.96875 122.066406 L 469.988281 121.539063 L 469 121.023438 L 468.003906 120.519531 L 467.007813 120.023438 L 466.007813 119.539063 L 465.003906 119.058594 L 464 118.589844 L 462.992188 118.125 L 460.976563 117.21875 L 459.964844 116.777344 L 458.957031 116.339844 L 457.949219 115.90625 L 456.9375 115.476563 L 455.929688 115.054688 L 453.914063 114.21875 L 452.90625 113.8125 L 451.902344 113.40625 L 450.890625 113.011719 L 449.882813 112.621094 L 448.875 112.234375 L 447.863281 111.859375 L 446.851563 111.488281 L 445.835938 111.128906 L 444.820313 110.773438 L 443.800781 110.429688 L 442.78125 110.097656 L 441.761719 109.769531 L 440.738281 109.453125 L 439.710938 109.148438 L 438.683594 108.851563 L 437.652344 108.5625 L 436.621094 108.285156 L 435.589844 108.015625 L 434.554688 107.753906 L 433.523438 107.503906 L 432.488281 107.257813 L 431.453125 107.019531 L 430.417969 106.789063 L 429.382813 106.566406 L 428.351563 106.347656 L 427.316406 106.136719 L 426.285156 105.933594 L 425.253906 105.734375 L 424.222656 105.539063 L 423.191406 105.351563 L 422.164063 105.171875 L 421.136719 104.996094 L 420.105469 104.832031 L 419.078125 104.671875 L 418.050781 104.519531 L 417.023438 104.378906 L 415.992188 104.246094 L 414.964844 104.125 L 413.933594 104.011719 L 412.902344 103.910156 L 411.871094 103.820313 L 410.839844 103.746094 L 409.808594 103.679688 L 408.773438 103.628906 L 407.738281 103.589844 L 406.703125 103.566406 L 405.667969 103.554688 L 404.632813 103.554688 L 403.597656 103.570313 L 402.5625 103.597656 L 401.527344 103.640625 L 400.492188 103.691406 L 399.457031 103.757813 L 398.425781 103.832031 L 397.394531 103.917969 L 396.367188 104.015625 L 395.339844 104.121094 L 394.3125 104.242188 L 393.289063 104.371094 L 392.269531 104.507813 L 391.25 104.65625 L 390.234375 104.8125 L 389.222656 104.980469 L 388.214844 105.152344 L 387.207031 105.335938 L 386.203125 105.53125 L 385.203125 105.730469 L 384.207031 105.9375 L 383.214844 106.15625 L 382.222656 106.378906 L 381.238281 106.613281 L 380.253906 106.851563 L 379.277344 107.097656 L 378.300781 107.351563 L 377.332031 107.609375 L 376.363281 107.875 L 375.402344 108.144531 L 374.445313 108.421875 L 373.492188 108.699219 L 372.542969 108.984375 L 371.601563 109.273438 L 370.660156 109.566406 L 369.726563 109.859375 L 368.792969 110.160156 L 367.867188 110.460938 L 366.945313 110.765625 L 365.117188 111.382813 L 364.210938 111.695313 L 363.308594 112.007813 L 362.40625 112.324219 L 360.625 112.957031 L 359.738281 113.277344 L 358.855469 113.601563 L 357.980469 113.921875 L 357.109375 114.246094 L 356.238281 114.566406 L 355.375 114.886719 L 354.515625 115.207031 L 353.660156 115.527344 L 352.804688 115.84375 L 351.957031 116.160156 L 351.113281 116.472656 L 349.433594 117.089844 L 348.601563 117.394531 L 347.769531 117.695313 L 346.941406 117.992188 L 346.117188 118.285156 L 345.292969 118.574219 L 344.472656 118.859375 L 343.65625 119.144531 L 342.84375 119.425781 L 342.03125 119.703125 L 340.414063 120.25 L 338.804688 120.796875 L 338.003906 121.066406 L 337.207031 121.335938 L 336.410156 121.601563 L 335.613281 121.871094 L 334.820313 122.136719 L 334.03125 122.402344 L 333.238281 122.667969 L 332.453125 122.9375 L 330.097656 123.734375 L 329.320313 124.003906 L 328.539063 124.269531 L 326.984375 124.808594 L 325.4375 125.347656 L 324.664063 125.621094 L 323.125 126.167969 L 322.359375 126.441406 L 320.0625 127.273438 L 317.777344 128.105469 L 316.253906 128.644531 L 315.492188 128.910156 L 314.726563 129.171875 L 313.960938 129.425781 L 313.195313 129.671875 L 312.421875 129.914063 L 311.652344 130.148438 L 310.875 130.371094 L 310.09375 130.585938 L 309.308594 130.789063 L 308.519531 130.980469 L 307.726563 131.160156 L 306.925781 131.328125 L 306.117188 131.484375 L 305.304688 131.632813 L 304.480469 131.765625 L 303.652344 131.886719 L 302.816406 131.992188 L 301.972656 132.089844 L 301.121094 132.171875 L 300.261719 132.246094 L 299.390625 132.308594 L 298.511719 132.355469 L 297.625 132.398438 L 296.726563 132.425781 L 295.820313 132.445313 L 294.90625 132.457031 L 293.976563 132.457031 L 293.042969 132.445313 L 292.09375 132.425781 L 291.132813 132.390625 L 290.160156 132.347656 L 289.175781 132.296875 L 288.179688 132.230469 L 287.167969 132.15625 L 286.144531 132.070313 L 285.105469 131.972656 L 284.054688 131.863281 L 282.984375 131.742188 L 281.898438 131.609375 L 280.796875 131.464844 L 279.679688 131.308594 L 278.546875 131.140625 L 277.394531 130.964844 L 276.230469 130.785156 L 275.050781 130.601563 L 273.863281 130.414063 L 272.660156 130.234375 L 271.453125 130.054688 L 270.234375 129.882813 L 269.011719 129.71875 L 267.785156 129.566406 L 266.554688 129.429688 L 265.324219 129.308594 L 264.09375 129.203125 L 262.863281 129.121094 L 261.640625 129.058594 L 260.425781 129.023438 L 259.214844 129.011719 L 258.011719 129.023438 L 256.820313 129.0625 L 255.632813 129.125 L 254.453125 129.210938 L 253.28125 129.316406 L 252.113281 129.441406 L 250.953125 129.585938 L 249.796875 129.75 L 248.644531 129.929688 L 247.496094 130.125 L 246.351563 130.335938 L 245.214844 130.566406 L 244.078125 130.808594 L 242.945313 131.0625 L 241.8125 131.332031 L 240.683594 131.609375 L 239.554688 131.902344 L 238.425781 132.207031 L 237.300781 132.519531 L 236.179688 132.847656 L 235.0625 133.191406 L 233.945313 133.542969 L 232.835938 133.910156 L 231.730469 134.292969 L 230.628906 134.6875 L 229.53125 135.09375 L 228.4375 135.515625 L 227.351563 135.949219 L 226.269531 136.398438 L 225.195313 136.855469 L 224.121094 137.328125 L 223.058594 137.816406 L 221.996094 138.3125 L 220.941406 138.820313 L 219.886719 139.34375 L 218.839844 139.871094 L 217.792969 140.414063 L 216.75 140.964844 L 215.710938 141.523438 L 214.671875 142.089844 L 213.636719 142.667969 L 212.597656 143.25 L 211.5625 143.84375 L 210.527344 144.441406 L 209.492188 145.046875 L 208.457031 145.660156 L 207.421875 146.277344 L 206.382813 146.902344 L 205.347656 147.535156 L 204.3125 148.175781 L 203.277344 148.824219 L 202.25 149.484375 L 201.226563 150.15625 L 200.210938 150.835938 L 199.203125 151.53125 L 198.203125 152.234375 L 197.214844 152.957031 L 196.238281 153.691406 L 195.273438 154.4375 L 194.328125 155.203125 L 193.394531 155.984375 L 192.480469 156.78125 L 191.589844 157.59375 L 190.714844 158.425781 L 189.863281 159.273438 L 189.03125 160.136719 L 188.214844 161.011719 L 187.417969 161.902344 L 186.640625 162.808594 L 185.878906 163.726563 L 185.128906 164.652344 L 184.398438 165.59375 L 183.675781 166.542969 L 182.96875 167.5 L 182.273438 168.46875 L 181.59375 169.441406 L 180.917969 170.425781 L 180.257813 171.414063 L 179.601563 172.410156 L 178.953125 173.414063 L 178.316406 174.421875 L 177.683594 175.433594 L 177.066406 176.457031 L 176.453125 177.484375 L 175.855469 178.515625 L 175.269531 179.558594 L 174.695313 180.605469 L 174.132813 181.660156 L 173.585938 182.722656 L 173.050781 183.789063 L 172.53125 184.867188 L 172.027344 185.949219 L 171.535156 187.035156 L 171.058594 188.132813 L 170.59375 189.234375 L 170.148438 190.339844 L 169.714844 191.453125 L 169.292969 192.570313 L 168.886719 193.695313 L 168.492188 194.820313 L 168.109375 195.953125 L 167.734375 197.085938 L 167.371094 198.226563 L 167.015625 199.363281 L 166.667969 200.507813 L 166.328125 201.652344 L 165.996094 202.800781 L 165.667969 203.949219 L 165.351563 205.101563 L 165.039063 206.257813 L 164.734375 207.410156 L 164.433594 208.566406 L 163.847656 210.886719 L 163.277344 213.207031 L 162.996094 214.371094 L 162.71875 215.535156 L 162.445313 216.699219 L 162.171875 217.867188 L 161.898438 219.03125 L 161.628906 220.199219 L 160.808594 223.703125 L 160.53125 224.875 L 160.25 226.046875 L 159.964844 227.214844 L 159.679688 228.390625 L 159.390625 229.5625 L 158.8125 231.914063 L 158.523438 233.09375 L 157.953125 235.460938 L 157.675781 236.644531 L 157.398438 237.832031 L 157.128906 239.023438 L 156.867188 240.21875 L 156.609375 241.414063 L 156.363281 242.613281 L 156.125 243.816406 L 155.898438 245.019531 L 155.683594 246.226563 L 155.480469 247.433594 L 155.285156 248.648438 L 155.101563 249.859375 L 154.925781 251.074219 L 154.761719 252.292969 L 154.605469 253.511719 L 154.453125 254.734375 "/>
</g>
</g>
</svg>
