<?xml version="1.0" encoding="UTF-8"?>
<svg xmlns="http://www.w3.org/2000/svg" xmlns:xlink="http://www.w3.org/1999/xlink" width="653pt" height="584pt" viewBox="0 0 653 584" version="1.1">
<defs>
<clipPath id="clip1">
  <path d="M 59.039063 59.039063 L 623.757813 59.039063 L 623.757813 511.558594 L 59.039063 511.558594 Z M 59.039063 59.039063 "/>
</clipPath>
</defs>
<g id="surface6">
<rect x="0" y="0" width="653" height="584" style="fill:rgb(100%,100%,100%);fill-opacity:1;stroke:none;"/>
<g clip-path="url(#clip1)" clip-rule="nonzero">
<path style="fill:none;stroke-width:3;stroke-linecap:round;stroke-linejoin:round;stroke:rgb(0%,0%,0%);stroke-opacity:1;stroke-miterlimit:10;" d="M 143.570313 286.421875 L 143.359375 287.671875 L 143.15625 288.925781 L 142.964844 290.179688 L 142.78125 291.4375 L 142.613281 292.699219 L 142.453125 293.960938 L 142.304688 295.226563 L 142.171875 296.492188 L 142.050781 297.761719 L 141.941406 299.03125 L 141.84375 300.300781 L 141.757813 301.574219 L 141.6875 302.847656 L 141.628906 304.125 L 141.585938 305.398438 L 141.554688 306.675781 L 141.539063 307.953125 L 141.535156 309.226563 L 141.546875 310.503906 L 141.570313 311.78125 L 141.609375 313.058594 L 141.664063 314.335938 L 141.730469 315.613281 L 141.8125 316.886719 L 141.910156 318.160156 L 142.027344 319.433594 L 142.164063 320.703125 L 142.324219 321.96875 L 142.511719 323.234375 L 142.726563 324.492188 L 142.972656 325.742188 L 143.25 326.988281 L 143.5625 328.226563 L 143.90625 329.457031 L 144.289063 330.675781 L 144.710938 331.886719 L 145.167969 333.089844 L 145.667969 334.277344 L 146.210938 335.449219 L 146.796875 336.609375 L 147.425781 337.757813 L 148.09375 338.886719 L 148.808594 340 L 149.5625 341.097656 L 150.355469 342.179688 L 151.1875 343.242188 L 152.054688 344.285156 L 152.960938 345.3125 L 153.902344 346.324219 L 154.878906 347.3125 L 155.890625 348.285156 L 156.9375 349.234375 L 158.015625 350.164063 L 159.125 351.074219 L 160.265625 351.960938 L 161.4375 352.828125 L 162.632813 353.675781 L 163.855469 354.503906 L 165.097656 355.3125 L 166.355469 356.101563 L 167.632813 356.875 L 168.921875 357.628906 L 170.222656 358.367188 L 171.53125 359.089844 L 172.84375 359.796875 L 174.160156 360.488281 L 175.476563 361.171875 L 176.789063 361.84375 L 178.097656 362.503906 L 179.394531 363.15625 L 180.679688 363.800781 L 181.953125 364.441406 L 183.210938 365.078125 L 184.457031 365.707031 L 185.683594 366.335938 L 186.898438 366.957031 L 188.101563 367.578125 L 189.285156 368.195313 L 190.457031 368.808594 L 191.613281 369.417969 L 192.757813 370.027344 L 193.886719 370.632813 L 195 371.238281 L 196.101563 371.84375 L 197.183594 372.445313 L 198.257813 373.046875 L 199.3125 373.648438 L 200.359375 374.25 L 201.390625 374.847656 L 202.410156 375.449219 L 203.417969 376.046875 L 204.414063 376.648438 L 205.398438 377.25 L 206.367188 377.847656 L 207.328125 378.449219 L 208.277344 379.050781 L 209.214844 379.652344 L 210.144531 380.257813 L 211.0625 380.859375 L 211.976563 381.460938 L 212.882813 382.058594 L 213.78125 382.660156 L 214.675781 383.257813 L 215.566406 383.851563 L 216.453125 384.445313 L 218.210938 385.625 L 219.085938 386.210938 L 219.957031 386.792969 L 220.824219 387.375 L 221.6875 387.953125 L 222.550781 388.527344 L 223.410156 389.101563 L 224.269531 389.671875 L 225.125 390.238281 L 225.976563 390.804688 L 226.832031 391.367188 L 227.683594 391.925781 L 228.53125 392.480469 L 230.226563 393.582031 L 231.074219 394.128906 L 232.761719 395.207031 L 233.605469 395.742188 L 234.453125 396.273438 L 235.296875 396.800781 L 236.140625 397.324219 L 236.984375 397.84375 L 237.832031 398.359375 L 238.675781 398.871094 L 239.523438 399.378906 L 240.367188 399.878906 L 241.214844 400.378906 L 242.058594 400.875 L 242.90625 401.367188 L 243.753906 401.851563 L 244.597656 402.335938 L 245.445313 402.816406 L 246.296875 403.289063 L 247.144531 403.757813 L 247.996094 404.222656 L 248.847656 404.683594 L 249.699219 405.136719 L 250.554688 405.585938 L 252.265625 406.46875 L 253.125 406.898438 L 253.988281 407.324219 L 254.847656 407.742188 L 255.714844 408.15625 L 256.582031 408.5625 L 257.449219 408.964844 L 259.191406 409.746094 L 260.066406 410.125 L 260.941406 410.5 L 261.816406 410.871094 L 262.695313 411.234375 L 263.570313 411.59375 L 264.449219 411.945313 L 265.332031 412.292969 L 266.210938 412.636719 L 267.089844 412.972656 L 267.972656 413.304688 L 268.855469 413.632813 L 269.738281 413.953125 L 270.617188 414.273438 L 271.5 414.585938 L 272.382813 414.894531 L 273.265625 415.199219 L 274.148438 415.5 L 275.03125 415.796875 L 275.914063 416.089844 L 276.796875 416.375 L 278.5625 416.9375 L 279.445313 417.210938 L 280.328125 417.480469 L 281.207031 417.746094 L 282.089844 418.011719 L 282.972656 418.269531 L 283.855469 418.523438 L 284.734375 418.773438 L 285.617188 419.023438 L 286.496094 419.265625 L 287.378906 419.507813 L 288.257813 419.746094 L 289.136719 419.980469 L 290.015625 420.210938 L 291.773438 420.664063 L 293.53125 421.101563 L 294.40625 421.316406 L 295.285156 421.53125 L 296.160156 421.738281 L 297.039063 421.945313 L 297.914063 422.148438 L 299.664063 422.546875 L 300.539063 422.742188 L 302.289063 423.125 L 303.164063 423.3125 L 304.035156 423.496094 L 304.910156 423.679688 L 305.78125 423.863281 L 307.523438 424.222656 L 309.265625 424.574219 L 310.136719 424.746094 L 311.007813 424.921875 L 311.875 425.09375 L 312.746094 425.265625 L 313.613281 425.433594 L 314.484375 425.605469 L 316.21875 425.941406 L 317.089844 426.109375 L 318.824219 426.4375 L 319.695313 426.601563 L 320.5625 426.765625 L 321.429688 426.925781 L 322.300781 427.085938 L 323.167969 427.246094 L 324.039063 427.40625 L 325.78125 427.71875 L 326.652344 427.871094 L 327.523438 428.027344 L 328.394531 428.179688 L 329.269531 428.332031 L 330.140625 428.480469 L 331.015625 428.632813 L 333.640625 429.078125 L 336.277344 429.523438 L 337.15625 429.667969 L 338.039063 429.816406 L 338.921875 429.960938 L 339.804688 430.109375 L 340.6875 430.253906 L 341.574219 430.402344 L 342.460938 430.546875 L 343.351563 430.695313 L 344.242188 430.839844 L 345.136719 430.988281 L 346.027344 431.132813 L 346.925781 431.28125 L 347.820313 431.425781 L 348.722656 431.570313 L 349.621094 431.71875 L 350.523438 431.863281 L 352.335938 432.152344 L 353.246094 432.300781 L 355.988281 432.734375 L 356.910156 432.875 L 357.828125 433.019531 L 358.753906 433.160156 L 359.679688 433.304688 L 360.609375 433.445313 L 361.542969 433.585938 L 362.476563 433.722656 L 363.414063 433.859375 L 365.296875 434.132813 L 366.242188 434.265625 L 367.191406 434.398438 L 368.144531 434.53125 L 369.097656 434.660156 L 370.058594 434.789063 L 371.980469 435.039063 L 373.917969 435.28125 L 375.871094 435.507813 L 376.847656 435.617188 L 377.832031 435.722656 L 378.816406 435.824219 L 379.804688 435.921875 L 380.796875 436.015625 L 381.789063 436.101563 L 382.789063 436.1875 L 383.785156 436.261719 L 384.789063 436.335938 L 385.792969 436.402344 L 386.796875 436.460938 L 387.808594 436.515625 L 388.820313 436.5625 L 389.832031 436.605469 L 390.847656 436.644531 L 391.867188 436.675781 L 392.890625 436.703125 L 393.914063 436.722656 L 394.9375 436.738281 L 397 436.753906 L 398.03125 436.753906 L 400.109375 436.738281 L 401.148438 436.722656 L 402.191406 436.703125 L 403.238281 436.675781 L 404.289063 436.648438 L 405.339844 436.609375 L 406.394531 436.566406 L 407.449219 436.519531 L 408.503906 436.460938 L 409.5625 436.398438 L 410.625 436.328125 L 411.683594 436.25 L 412.746094 436.160156 L 413.808594 436.066406 L 414.875 435.960938 L 415.9375 435.847656 L 417.003906 435.726563 L 418.066406 435.59375 L 419.132813 435.453125 L 420.199219 435.304688 L 421.261719 435.144531 L 422.328125 434.976563 L 423.390625 434.796875 L 424.457031 434.609375 L 425.519531 434.414063 L 426.582031 434.207031 L 427.648438 433.992188 L 428.710938 433.769531 L 429.773438 433.539063 L 430.835938 433.296875 L 431.894531 433.046875 L 432.957031 432.789063 L 434.019531 432.523438 L 435.078125 432.25 L 436.136719 431.96875 L 437.195313 431.675781 L 438.253906 431.375 L 439.3125 431.070313 L 440.367188 430.753906 L 441.421875 430.429688 L 442.476563 430.09375 L 443.527344 429.753906 L 444.578125 429.402344 L 445.628906 429.042969 L 446.675781 428.675781 L 447.722656 428.296875 L 448.769531 427.914063 L 449.8125 427.519531 L 450.851563 427.117188 L 451.890625 426.707031 L 452.925781 426.285156 L 453.960938 425.855469 L 454.996094 425.421875 L 456.027344 424.976563 L 457.054688 424.523438 L 458.082031 424.0625 L 459.105469 423.59375 L 460.128906 423.117188 L 461.152344 422.632813 L 462.171875 422.140625 L 463.191406 421.640625 L 464.207031 421.136719 L 465.21875 420.625 L 466.234375 420.101563 L 467.246094 419.574219 L 468.253906 419.039063 L 469.261719 418.5 L 470.269531 417.949219 L 471.273438 417.394531 L 472.273438 416.832031 L 473.273438 416.261719 L 474.269531 415.6875 L 475.265625 415.101563 L 476.257813 414.507813 L 477.25 413.910156 L 478.234375 413.300781 L 479.21875 412.6875 L 480.199219 412.0625 L 481.179688 411.433594 L 482.152344 410.792969 L 483.121094 410.148438 L 484.089844 409.496094 L 485.054688 408.832031 L 486.011719 408.160156 L 486.96875 407.484375 L 487.917969 406.796875 L 488.867188 406.101563 L 489.808594 405.402344 L 490.746094 404.691406 L 491.679688 403.96875 L 492.605469 403.242188 L 493.527344 402.507813 L 494.445313 401.761719 L 495.355469 401.011719 L 496.261719 400.25 L 497.160156 399.480469 L 498.050781 398.703125 L 498.9375 397.914063 L 499.816406 397.117188 L 500.6875 396.3125 L 501.550781 395.5 L 502.410156 394.679688 L 503.257813 393.847656 L 504.101563 393.011719 L 504.941406 392.164063 L 505.769531 391.3125 L 506.589844 390.449219 L 507.40625 389.578125 L 508.214844 388.703125 L 509.015625 387.816406 L 509.8125 386.925781 L 510.597656 386.027344 L 511.378906 385.121094 L 512.152344 384.210938 L 512.921875 383.289063 L 513.679688 382.363281 L 514.433594 381.429688 L 515.179688 380.488281 L 515.914063 379.542969 L 516.644531 378.585938 L 517.363281 377.625 L 518.074219 376.65625 L 518.773438 375.679688 L 519.464844 374.695313 L 520.144531 373.703125 L 520.816406 372.703125 L 521.476563 371.699219 L 522.125 370.683594 L 522.761719 369.664063 L 523.386719 368.636719 L 524 367.601563 L 524.605469 366.558594 L 525.195313 365.507813 L 525.773438 364.453125 L 526.339844 363.390625 L 526.894531 362.320313 L 527.4375 361.246094 L 527.972656 360.167969 L 528.492188 359.082031 L 529.003906 357.988281 L 529.503906 356.894531 L 529.992188 355.792969 L 530.472656 354.6875 L 530.941406 353.574219 L 531.398438 352.460938 L 531.84375 351.339844 L 532.28125 350.214844 L 532.710938 349.089844 L 533.128906 347.957031 L 533.535156 346.820313 L 533.929688 345.683594 L 534.320313 344.539063 L 534.695313 343.394531 L 535.0625 342.246094 L 535.417969 341.09375 L 535.765625 339.9375 L 536.101563 338.777344 L 536.425781 337.617188 L 536.742188 336.453125 L 537.050781 335.285156 L 537.347656 334.117188 L 537.632813 332.945313 L 537.910156 331.769531 L 538.175781 330.59375 L 538.4375 329.414063 L 538.6875 328.234375 L 538.925781 327.054688 L 539.160156 325.871094 L 539.382813 324.6875 L 539.601563 323.5 L 539.808594 322.3125 L 540.011719 321.125 L 540.207031 319.933594 L 540.394531 318.746094 L 540.574219 317.554688 L 540.746094 316.359375 L 540.914063 315.167969 L 541.074219 313.972656 L 541.230469 312.78125 L 541.378906 311.585938 L 541.523438 310.390625 L 541.660156 309.191406 L 541.789063 307.996094 L 541.914063 306.796875 L 542.03125 305.601563 L 542.144531 304.402344 L 542.25 303.203125 L 542.347656 302.003906 L 542.441406 300.804688 L 542.527344 299.601563 L 542.605469 298.402344 L 542.679688 297.199219 L 542.746094 296 L 542.808594 294.796875 L 542.863281 293.59375 L 542.910156 292.394531 L 542.949219 291.191406 L 542.980469 289.988281 L 543.007813 288.785156 L 543.027344 287.582031 L 543.039063 286.378906 L 543.046875 285.175781 L 543.042969 283.972656 L 543.03125 282.769531 L 543.015625 281.5625 L 542.992188 280.359375 L 542.957031 279.160156 L 542.917969 277.957031 L 542.871094 276.753906 L 542.8125 275.550781 L 542.75 274.347656 L 542.675781 273.148438 L 542.59375 271.949219 L 542.503906 270.746094 L 542.40625 269.546875 L 542.300781 268.351563 L 542.183594 267.152344 L 542.058594 265.957031 L 541.925781 264.757813 L 541.785156 263.566406 L 541.636719 262.371094 L 541.476563 261.179688 L 541.308594 259.988281 L 541.128906 258.796875 L 540.941406 257.609375 L 540.746094 256.421875 L 540.542969 255.238281 L 540.328125 254.054688 L 540.101563 252.875 L 539.871094 251.695313 L 539.628906 250.515625 L 539.378906 249.34375 L 539.121094 248.167969 L 538.855469 246.996094 L 538.582031 245.828125 L 538.296875 244.660156 L 538.003906 243.496094 L 537.707031 242.332031 L 537.398438 241.171875 L 537.085938 240.015625 L 536.761719 238.859375 L 536.433594 237.703125 L 536.097656 236.554688 L 535.753906 235.40625 L 535.402344 234.257813 L 535.042969 233.113281 L 534.675781 231.972656 L 534.300781 230.835938 L 533.921875 229.699219 L 533.53125 228.566406 L 533.132813 227.4375 L 532.730469 226.3125 L 532.316406 225.1875 L 531.894531 224.066406 L 531.464844 222.953125 L 531.027344 221.839844 L 530.582031 220.726563 L 530.128906 219.621094 L 529.667969 218.519531 L 529.199219 217.421875 L 528.71875 216.328125 L 528.234375 215.234375 L 527.738281 214.148438 L 527.234375 213.066406 L 526.726563 211.988281 L 526.207031 210.914063 L 525.683594 209.84375 L 525.148438 208.777344 L 524.609375 207.714844 L 524.0625 206.65625 L 523.503906 205.601563 L 522.941406 204.550781 L 522.371094 203.507813 L 521.792969 202.46875 L 521.207031 201.429688 L 520.617188 200.398438 L 520.015625 199.375 L 519.410156 198.351563 L 518.796875 197.335938 L 518.171875 196.324219 L 517.542969 195.316406 L 516.90625 194.316406 L 516.261719 193.320313 L 515.613281 192.328125 L 514.953125 191.34375 L 514.285156 190.363281 L 513.613281 189.390625 L 512.933594 188.421875 L 512.242188 187.460938 L 511.546875 186.503906 L 510.84375 185.550781 L 510.136719 184.605469 L 509.417969 183.667969 L 508.695313 182.734375 L 507.960938 181.808594 L 507.222656 180.890625 L 506.476563 179.976563 L 505.71875 179.070313 L 504.957031 178.171875 L 504.1875 177.277344 L 503.414063 176.394531 L 502.628906 175.515625 L 501.835938 174.644531 L 501.035156 173.78125 L 500.230469 172.925781 L 499.414063 172.078125 L 498.59375 171.238281 L 497.765625 170.40625 L 496.929688 169.585938 L 496.085938 168.769531 L 495.234375 167.960938 L 494.375 167.164063 L 493.511719 166.371094 L 492.636719 165.589844 L 491.761719 164.816406 L 490.875 164.050781 L 489.984375 163.292969 L 489.085938 162.542969 L 488.183594 161.804688 L 487.273438 161.074219 L 486.355469 160.351563 L 485.433594 159.636719 L 484.507813 158.929688 L 483.574219 158.234375 L 482.636719 157.546875 L 481.691406 156.867188 L 480.742188 156.195313 L 479.789063 155.53125 L 478.828125 154.878906 L 477.863281 154.234375 L 476.894531 153.601563 L 475.921875 152.972656 L 474.941406 152.355469 L 473.957031 151.746094 L 472.972656 151.144531 L 471.980469 150.554688 L 470.984375 149.972656 L 469.984375 149.398438 L 468.980469 148.835938 L 467.972656 148.277344 L 466.960938 147.730469 L 465.945313 147.195313 L 464.929688 146.664063 L 463.90625 146.144531 L 462.882813 145.632813 L 461.855469 145.132813 L 460.824219 144.640625 L 459.789063 144.15625 L 458.75 143.679688 L 457.710938 143.214844 L 456.667969 142.753906 L 455.625 142.308594 L 454.578125 141.867188 L 453.527344 141.4375 L 452.476563 141.015625 L 451.421875 140.601563 L 450.363281 140.199219 L 449.304688 139.804688 L 448.242188 139.421875 L 447.179688 139.046875 L 446.113281 138.679688 L 445.042969 138.328125 L 443.972656 137.980469 L 442.902344 137.648438 L 441.824219 137.324219 L 440.746094 137.011719 L 439.667969 136.710938 L 438.582031 136.421875 L 437.5 136.140625 L 436.410156 135.875 L 435.320313 135.621094 L 434.230469 135.378906 L 433.132813 135.144531 L 432.039063 134.925781 L 430.941406 134.71875 L 429.839844 134.523438 L 428.742188 134.339844 L 427.640625 134.167969 L 426.535156 134.007813 L 425.433594 133.859375 L 424.328125 133.722656 L 423.222656 133.597656 L 422.117188 133.484375 L 421.011719 133.382813 L 419.902344 133.289063 L 418.796875 133.210938 L 417.691406 133.140625 L 416.585938 133.085938 L 415.480469 133.039063 L 414.375 133.003906 L 413.273438 132.980469 L 412.167969 132.972656 L 411.066406 132.972656 L 409.960938 132.988281 L 408.859375 133.011719 L 407.757813 133.050781 L 406.660156 133.101563 L 405.5625 133.164063 L 404.464844 133.242188 L 403.367188 133.328125 L 402.273438 133.429688 L 401.179688 133.542969 L 400.085938 133.667969 L 399 133.804688 L 397.910156 133.957031 L 396.828125 134.117188 L 395.746094 134.289063 L 394.667969 134.46875 L 393.59375 134.664063 L 392.519531 134.863281 L 391.453125 135.074219 L 390.390625 135.292969 L 389.328125 135.519531 L 388.273438 135.753906 L 387.222656 135.996094 L 386.175781 136.246094 L 385.136719 136.5 L 384.101563 136.761719 L 383.070313 137.023438 L 382.042969 137.296875 L 381.023438 137.570313 L 380.007813 137.847656 L 378.996094 138.132813 L 377.992188 138.417969 L 376.992188 138.710938 L 376 139.003906 L 375.011719 139.300781 L 374.027344 139.601563 L 373.050781 139.902344 L 372.078125 140.207031 L 371.113281 140.511719 L 370.152344 140.816406 L 369.195313 141.125 L 368.246094 141.433594 L 367.300781 141.742188 L 366.363281 142.050781 L 365.429688 142.359375 L 364.5 142.667969 L 363.578125 142.972656 L 362.660156 143.28125 L 361.746094 143.585938 L 360.839844 143.886719 L 359.9375 144.1875 L 359.039063 144.484375 L 358.148438 144.78125 L 357.257813 145.074219 L 356.375 145.363281 L 355.496094 145.652344 L 354.621094 145.933594 L 353.75 146.214844 L 352.882813 146.492188 L 352.023438 146.765625 L 351.164063 147.035156 L 350.308594 147.300781 L 349.457031 147.558594 L 348.609375 147.816406 L 347.765625 148.066406 L 346.925781 148.3125 L 346.085938 148.550781 L 345.25 148.785156 L 344.417969 149.015625 L 343.585938 149.238281 L 342.757813 149.457031 L 341.933594 149.667969 L 341.109375 149.871094 L 340.285156 150.070313 L 339.464844 150.261719 L 338.648438 150.445313 L 337.828125 150.625 L 337.011719 150.796875 L 336.195313 150.964844 L 335.378906 151.125 L 334.566406 151.277344 L 333.75 151.425781 L 332.9375 151.566406 L 332.121094 151.703125 L 331.308594 151.832031 L 330.492188 151.957031 L 329.679688 152.078125 L 328.046875 152.296875 L 327.230469 152.398438 L 326.410156 152.496094 L 325.589844 152.585938 L 324.769531 152.671875 L 323.121094 152.828125 L 322.296875 152.898438 L 321.46875 152.964844 L 320.636719 153.027344 L 319.804688 153.082031 L 318.972656 153.132813 L 318.132813 153.183594 L 317.292969 153.226563 L 316.453125 153.265625 L 315.605469 153.300781 L 314.757813 153.332031 L 313.90625 153.359375 L 313.050781 153.386719 L 312.195313 153.40625 L 311.332031 153.425781 L 310.46875 153.4375 L 309.597656 153.449219 L 308.726563 153.457031 L 307.851563 153.460938 L 306.96875 153.457031 L 306.082031 153.453125 L 305.191406 153.445313 L 304.296875 153.4375 L 303.398438 153.421875 L 302.496094 153.402344 L 301.585938 153.382813 L 300.667969 153.359375 L 299.75 153.332031 L 298.824219 153.300781 L 297.894531 153.265625 L 296.957031 153.230469 L 295.066406 153.152344 L 294.109375 153.109375 L 293.148438 153.0625 L 292.183594 153.019531 L 291.210938 152.972656 L 290.234375 152.921875 L 289.25 152.875 L 288.257813 152.824219 L 287.261719 152.773438 L 286.257813 152.726563 L 285.25 152.675781 L 284.234375 152.628906 L 283.214844 152.578125 L 282.1875 152.535156 L 281.152344 152.488281 L 280.117188 152.449219 L 279.074219 152.410156 L 278.023438 152.375 L 276.972656 152.347656 L 275.914063 152.320313 L 274.851563 152.300781 L 273.785156 152.289063 L 272.714844 152.28125 L 271.640625 152.28125 L 270.566406 152.289063 L 269.488281 152.304688 L 268.40625 152.332031 L 267.320313 152.363281 L 266.234375 152.40625 L 265.148438 152.460938 L 264.058594 152.523438 L 262.96875 152.597656 L 261.878906 152.679688 L 260.789063 152.777344 L 259.699219 152.886719 L 258.613281 153.003906 L 257.523438 153.136719 L 256.4375 153.28125 L 255.351563 153.4375 L 254.265625 153.609375 L 253.183594 153.792969 L 252.105469 153.992188 L 251.03125 154.203125 L 249.957031 154.429688 L 248.886719 154.667969 L 247.820313 154.921875 L 246.761719 155.1875 L 245.703125 155.46875 L 244.648438 155.765625 L 243.597656 156.070313 L 242.550781 156.390625 L 241.507813 156.722656 L 240.46875 157.066406 L 239.433594 157.425781 L 238.398438 157.792969 L 237.371094 158.171875 L 236.347656 158.566406 L 235.328125 158.96875 L 234.308594 159.382813 L 233.296875 159.804688 L 232.285156 160.238281 L 231.277344 160.683594 L 230.273438 161.136719 L 229.273438 161.601563 L 228.273438 162.074219 L 227.28125 162.554688 L 226.285156 163.046875 L 225.296875 163.546875 L 224.308594 164.054688 L 223.324219 164.570313 L 222.339844 165.09375 L 221.359375 165.625 L 220.378906 166.164063 L 219.402344 166.710938 L 218.425781 167.265625 L 217.449219 167.828125 L 216.476563 168.394531 L 215.503906 168.96875 L 214.535156 169.550781 L 213.566406 170.136719 L 212.597656 170.734375 L 211.632813 171.335938 L 210.671875 171.949219 L 209.710938 172.566406 L 208.753906 173.191406 L 207.800781 173.828125 L 206.847656 174.46875 L 205.902344 175.121094 L 204.957031 175.777344 L 204.019531 176.445313 L 203.082031 177.121094 L 202.152344 177.804688 L 201.226563 178.496094 L 200.304688 179.199219 L 199.390625 179.910156 L 198.480469 180.628906 L 197.574219 181.355469 L 196.679688 182.09375 L 195.785156 182.839844 L 194.902344 183.597656 L 194.023438 184.363281 L 193.152344 185.136719 L 192.289063 185.917969 L 191.4375 186.710938 L 190.589844 187.515625 L 189.753906 188.328125 L 188.925781 189.148438 L 188.105469 189.984375 L 187.296875 190.824219 L 186.5 191.675781 L 185.710938 192.535156 L 184.929688 193.40625 L 184.160156 194.285156 L 183.398438 195.167969 L 182.644531 196.066406 L 181.898438 196.96875 L 181.164063 197.878906 L 180.4375 198.796875 L 179.71875 199.71875 L 179.007813 200.652344 L 178.304688 201.589844 L 177.605469 202.535156 L 176.917969 203.484375 L 176.230469 204.441406 L 175.554688 205.40625 L 174.882813 206.375 L 174.21875 207.347656 L 173.558594 208.328125 L 172.90625 209.3125 L 172.261719 210.304688 L 171.625 211.300781 L 170.996094 212.300781 L 170.375 213.3125 L 169.761719 214.324219 L 169.15625 215.34375 L 168.558594 216.371094 L 167.96875 217.402344 L 167.390625 218.441406 L 166.820313 219.480469 L 166.257813 220.53125 L 165.703125 221.585938 L 165.160156 222.644531 L 164.621094 223.707031 L 164.09375 224.777344 L 163.574219 225.847656 L 163.058594 226.925781 L 162.554688 228.007813 L 162.050781 229.09375 L 161.558594 230.183594 L 161.070313 231.277344 L 160.585938 232.375 L 159.632813 234.578125 L 158.703125 236.796875 L 158.242188 237.914063 L 157.335938 240.148438 L 156.886719 241.273438 L 156.003906 243.53125 L 155.570313 244.664063 L 155.136719 245.800781 L 154.710938 246.941406 L 154.289063 248.082031 L 153.867188 249.230469 L 153.453125 250.378906 L 153.042969 251.53125 L 152.640625 252.6875 L 152.238281 253.847656 L 151.839844 255.011719 L 151.445313 256.179688 L 151.054688 257.347656 L 150.671875 258.519531 L 150.289063 259.695313 L 149.914063 260.875 L 149.542969 262.058594 L 149.179688 263.246094 L 148.820313 264.433594 L 148.464844 265.628906 L 148.117188 266.824219 L 147.773438 268.023438 L 147.4375 269.226563 L 147.109375 270.433594 L 146.789063 271.644531 L 146.472656 272.859375 L 146.167969 274.078125 L 145.871094 275.296875 L 145.582031 276.519531 L 145.300781 277.75 L 145.027344 278.976563 L 144.761719 280.210938 L 144.507813 281.449219 L 144.261719 282.6875 L 144.023438 283.929688 L 143.792969 285.175781 "/>
</g>
</g>
</svg>
