<?xml version="1.0" encoding="UTF-8" standalone="no"?>
<svg
   xmlns:dc="http://purl.org/dc/elements/1.1/"
   xmlns:cc="http://creativecommons.org/ns#"
   xmlns:rdf="http://www.w3.org/1999/02/22-rdf-syntax-ns#"
   xmlns:svg="http://www.w3.org/2000/svg"
   xmlns="http://www.w3.org/2000/svg"
   xmlns:sodipodi="http://sodipodi.sourceforge.net/DTD/sodipodi-0.dtd"
   xmlns:inkscape="http://www.inkscape.org/namespaces/inkscape"
   width="680pt"
   height="518pt"
   viewBox="0 0 680 518"
   version="1.1"
   id="svg2"
   inkscape:version="0.91 r13725"
   sodipodi:docname="BZLZ.svg">
  <metadata
     id="metadata18">
    <rdf:RDF>
      <cc:Work
         rdf:about="">
        <dc:format>image/svg+xml</dc:format>
        <dc:type
           rdf:resource="http://purl.org/dc/dcmitype/StillImage" />
      </cc:Work>
    </rdf:RDF>
  </metadata>
  <sodipodi:namedview
     pagecolor="#ffffff"
     bordercolor="#666666"
     borderopacity="1"
     objecttolerance="10"
     gridtolerance="10"
     guidetolerance="10"
     inkscape:pageopacity="0"
     inkscape:pageshadow="2"
     inkscape:window-width="1920"
     inkscape:window-height="1019"
     id="namedview16"
     showgrid="false"
     inkscape:zoom="0.73236122"
     inkscape:cx="634.0419"
     inkscape:cy="209.77899"
     inkscape:window-x="-9"
     inkscape:window-y="-9"
     inkscape:window-maximized="1"
     inkscape:current-layer="svg2" />
  <defs
     id="defs4">
    <clipPath
       id="clip1">
      <path
         d="M 59.039063 59.039063 L 650.757813 59.039063 L 650.757813 445.558594 L 59.039063 445.558594 Z M 59.039063 59.039063 "
         id="path7" />
    </clipPath>
  </defs>
  <g
     style="clip-rule:nonzero"
     id="g12"
     clip-path="url(#clip1)">
    <path
       inkscape:connector-curvature="0"
       id="path14"
       d="m 153.52734,255.03906 -0.25781,1.27344 -0.24219,1.27734 -0.22656,1.27735 -0.20703,1.28125 -0.18359,1.28515 -0.16407,1.28516 -0.13672,1.28516 -0.11328,1.28906 -0.0898,1.28906 -0.0664,1.28906 -0.0508,1.28907 -0.0312,1.29296 -0.0195,1.28907 0,1.29297 0.008,1.28906 0.0234,1.29297 0.0312,1.29297 0.0352,1.29296 0.0859,2.58594 0.0508,1.29688 0.0937,2.59375 0.0469,1.30078 0.0469,1.30469 0.0547,1.30078 0.0664,1.30468 0.082,1.30469 0.10156,1.29688 0.125,1.30078 0.15625,1.29297 0.1875,1.28515 0.22657,1.28125 0.26562,1.27344 0.30859,1.26563 0.34766,1.25 0.39844,1.24218 0.44922,1.23047 0.5039,1.21094 0.55469,1.19531 0.61328,1.17578 0.66797,1.16016 0.72266,1.14062 0.77734,1.1211 0.83203,1.09765 0.87891,1.07813 0.92578,1.05469 0.97266,1.03515 1.01562,1.01172 1.06641,0.98828 1.11328,0.96485 1.15625,0.9375 1.20703,0.91406 1.24609,0.88672 1.29297,0.85547 1.33203,0.83203 1.36719,0.80859 1.40625,0.77735 1.42969,0.7539 1.45703,0.73438 1.47656,0.70703 1.4961,0.6875 1.50781,0.66406 1.51953,0.64453 1.52734,0.62891 1.52344,0.61328 1.52344,0.59766 1.51562,0.58593 1.50391,0.57813 1.48828,0.5664 1.46875,0.5625 1.44531,0.5586 1.42188,0.55859 1.39453,0.55469 1.37109,0.55078 1.34766,0.55469 1.32031,0.55078 1.29688,0.55469 1.27343,0.55078 1.2461,0.55469 1.22656,0.55468 1.19922,0.5586 1.17578,0.55859 1.15234,0.56641 1.1211,0.57031 1.10156,0.57422 1.07813,0.57812 1.05078,0.58594 1.03125,0.58984 1.01172,0.59375 0.98828,0.59766 0.97265,0.60547 0.94922,0.60937 0.9375,0.61329 0.91797,0.61718 0.90234,0.6211 0.89063,0.625 0.875,0.6289 0.86719,0.62891 0.85937,0.63281 1.70313,1.25781 0.84375,0.625 0.84375,0.6211 0.84375,0.61719 0.84375,0.61328 0.83984,0.61328 0.83984,0.60547 0.83985,0.60156 1.67969,1.19531 0.83593,0.58985 0.83985,0.58593 0.83984,0.58203 0.83594,0.57813 1.67969,1.14062 0.84375,0.5625 0.83984,0.5586 0.84375,0.55469 0.83984,0.54687 1.6875,1.08594 0.84375,0.53515 1.69532,1.05469 0.84765,0.51953 1.69531,1.02344 0.85157,0.50391 0.85156,0.5 0.84766,0.5 2.54296,1.47656 2.53125,1.45312 1.6875,0.95313 0.84375,0.46875 0.84766,0.46484 0.84766,0.45703 0.84765,0.45313 0.85157,0.44531 0.85546,0.44141 0.85938,0.42969 0.85937,0.42187 0.86329,0.41797 0.87109,0.40234 0.875,0.39453 0.875,0.38282 0.88281,0.375 0.88672,0.36328 0.89063,0.35547 0.89453,0.34375 0.89453,0.33593 0.89844,0.32422 0.90234,0.32032 0.90234,0.3125 0.90235,0.30468 0.90625,0.29688 0.90234,0.28906 0.90625,0.28125 0.91016,0.27734 0.90625,0.26954 0.90625,0.26562 0.90625,0.25781 0.90625,0.25391 0.90625,0.25 0.90625,0.24219 0.90625,0.23828 0.90234,0.23437 0.90625,0.22657 0.90625,0.22265 0.90234,0.21875 0.90235,0.21094 0.90234,0.20703 0.90235,0.20313 0.89843,0.19921 0.90235,0.19532 0.89843,0.1914 0.89454,0.19141 1.78906,0.36719 0.89062,0.17968 1.78125,0.35157 0.88672,0.17187 1.77344,0.33594 0.88281,0.16016 0.88281,0.16406 0.87891,0.15625 0.88281,0.15625 0.875,0.15234 0.87891,0.15235 0.875,0.14453 0.87891,0.14453 0.87109,0.14062 0.875,0.13672 0.87109,0.13672 0.8711,0.13281 0.87109,0.12891 0.86719,0.13281 0.86719,0.12891 0.86328,0.125 0.86718,0.1289 3.4375,0.51563 0.85547,0.13281 2.55469,0.41016 0.85156,0.14453 0.84766,0.14062 0.84375,0.14844 0.84766,0.14453 0.84375,0.14844 0.84765,0.14844 3.375,0.59375 0.84375,0.14453 0.84766,0.14844 1.6875,0.28125 0.84765,0.14062 0.84766,0.13672 0.84375,0.13281 1.69531,0.25782 0.85157,0.1289 0.84765,0.12891 0.84766,0.125 3.40625,0.5 0.85156,0.1289 0.85156,0.125 0.85547,0.12891 0.85156,0.13281 0.85547,0.12891 0.85938,0.13672 0.85547,0.13281 0.85937,0.13672 0.85938,0.14062 2.58984,0.42188 1.73438,0.28125 0.87109,0.14062 0.87109,0.13672 0.875,0.14063 0.875,0.13672 1.75782,0.27343 0.8789,0.13282 0.88672,0.13281 0.88281,0.12891 1.78125,0.25781 0.89063,0.125 0.89453,0.1289 1.79687,0.25 0.90235,0.125 1.8125,0.25 0.91406,0.125 0.91016,0.125 0.91797,0.125 0.92187,0.125 0.92188,0.12891 0.92578,0.125 0.92968,0.12891 0.9336,0.1289 1.875,0.25 1.89062,0.25 0.95313,0.1211 0.95312,0.11718 0.95703,0.11719 0.95704,0.10938 0.96484,0.10937 0.96484,0.10547 0.96875,0.10156 0.97266,0.0977 0.97656,0.0898 0.97656,0.0859 0.98047,0.082 0.98438,0.0742 0.98437,0.0703 0.98828,0.0664 0.99219,0.0586 0.9961,0.0586 0.99609,0.0469 1,0.0469 1.00391,0.043 1.0039,0.0351 1.00781,0.0274 1.01172,0.0273 1.01563,0.0195 1.01562,0.0156 1.01953,0.0117 1.02344,0.004 1.02344,0 1.02734,-0.008 1.03125,-0.0117 1.03125,-0.0156 1.03516,-0.0234 1.03516,-0.0312 1.03906,-0.0352 1.04297,-0.043 1.04297,-0.0469 1.04687,-0.0586 1.04688,-0.0625 1.04687,-0.0703 1.05078,-0.0781 1.05078,-0.0859 1.05469,-0.0899 1.05469,-0.10156 1.05469,-0.10937 1.05859,-0.11328 1.05469,-0.125 1.0625,-0.12891 1.05859,-0.14063 1.0625,-0.14453 1.0625,-0.15625 1.0625,-0.16015 1.0625,-0.17188 1.06641,-0.17578 1.0664,-0.18359 1.06641,-0.19141 1.06641,-0.19922 1.07031,-0.20703 1.07031,-0.21484 1.07031,-0.21875 1.07032,-0.22657 1.07421,-0.23437 1.07422,-0.24219 1.07032,-0.2539 1.07421,-0.25782 1.07032,-0.26953 1.07422,-0.27734 1.07031,-0.28516 1.07031,-0.29687 1.06641,-0.30469 1.0664,-0.31641 1.0625,-0.32812 1.0625,-0.33985 1.0586,-0.34765 1.05468,-0.36328 1.05079,-0.3711 1.04687,-0.38672 1.04688,-0.39453 1.03906,-0.40234 1.04297,-0.41406 1.03906,-0.42188 1.03516,-0.42969 1.03515,-0.4375 1.03516,-0.44531 1.03515,-0.44922 1.03907,-0.45703 1.03515,-0.46094 1.03907,-0.46484 1.04296,-0.46484 1.04297,-0.47266 1.04688,-0.47266 1.05078,-0.47656 1.05469,-0.48047 1.05859,-0.48047 1.05859,-0.48828 1.0625,-0.49218 1.0625,-0.4961 1.0625,-0.5039 1.0625,-0.51172 1.0586,-0.51953 1.05859,-0.52735 1.0586,-0.53906 1.05078,-0.54297 1.05078,-0.55859 1.04687,-0.56641 1.03907,-0.57812 1.03515,-0.58594 1.02735,-0.60156 1.02343,-0.61329 1.01563,-0.625 1.00781,-0.63281 1.00781,-0.64453 1,-0.65234 0.9961,-0.66407 0.99218,-0.67187 0.98829,-0.67969 0.98828,-0.68359 0.98047,-0.69531 0.98046,-0.70313 0.97657,-0.71094 0.97656,-0.71484 0.97266,-0.72656 0.96875,-0.73047 0.96875,-0.73438 0.96484,-0.74609 0.96484,-0.75391 0.95703,-0.75781 0.95704,-0.76562 0.95312,-0.77735 0.94922,-0.78125 0.94141,-0.79297 0.9375,-0.80078 0.92968,-0.80859 0.92578,-0.81641 0.91797,-0.82812 0.91016,-0.83594 0.90625,-0.84375 0.89844,-0.85547 0.89062,-0.86328 0.88281,-0.87109 0.875,-0.88282 0.86329,-0.89062 0.85546,-0.90235 0.84766,-0.91015 0.83203,-0.92188 0.82422,-0.92968 0.8125,-0.94141 0.79688,-0.95313 0.78515,-0.96093 0.76953,-0.97266 0.75782,-0.98437 0.74218,-0.9961 0.72657,-1.0039 0.70703,-1.01563 0.6914,-1.02734 0.67578,-1.03516 0.66016,-1.05078 0.63672,-1.05469 0.625,-1.07031 0.60156,-1.07813 0.58594,-1.08593 0.57031,-1.09375 0.55078,-1.10547 0.53516,-1.11328 0.51562,-1.11719 0.5,-1.12891 0.48047,-1.13672 0.46485,-1.14062 0.44531,-1.14844 0.42969,-1.15625 0.41406,-1.16406 0.39453,-1.16797 0.37891,-1.17187 0.36718,-1.17969 0.34766,-1.17969 0.33594,-1.1875 0.32422,-1.19141 0.30859,-1.1914 0.30078,-1.19531 0.28906,-1.19922 0.27735,-1.20313 0.26953,-1.19922 0.26172,-1.20312 0.2539,-1.20703 0.25,-1.20313 0.24219,-1.20703 0.23828,-1.20703 0.23828,-1.20313 0.46094,-2.41406 0.44531,-2.41406 0.21875,-1.20313 0.21094,-1.21093 0.21094,-1.20703 0.20703,-1.20704 0.19922,-1.20703 0.19531,-1.21093 0.19141,-1.21094 0.1875,-1.21094 0.17969,-1.21094 0.17578,-1.21093 0.16797,-1.21094 0.16406,-1.21485 0.15625,-1.21093 0.15234,-1.21485 0.14453,-1.21484 0.14063,-1.21875 0.13281,-1.21484 0.125,-1.21875 0.12109,-1.21875 0.11329,-1.21485 0.10937,-1.21875 0.10156,-1.22265 0.0937,-1.21875 0.0859,-1.21875 0.082,-1.22266 0.0703,-1.22266 0.0664,-1.22265 0.0586,-1.22266 0.0469,-1.22266 0.0391,-1.22265 0.0312,-1.22266 0.0234,-1.22265 0.008,-1.22266 0.004,-1.22656 -0.0117,-1.22266 -0.0195,-1.22266 -0.0312,-1.22265 -0.043,-1.22266 -0.0547,-1.22265 -0.0703,-1.22266 -0.0781,-1.21875 -0.0898,-1.21875 -0.10547,-1.21875 -0.11328,-1.21875 -0.12891,-1.21484 -0.14062,-1.21485 -0.15625,-1.21484 -0.16406,-1.21094 -0.17578,-1.20703 -0.19141,-1.20703 -0.19922,-1.20703 -0.21094,-1.20313 -0.22265,-1.19922 -0.23438,-1.19922 -0.24609,-1.19531 -0.25391,-1.19531 -0.26953,-1.1875 -0.27734,-1.1875 -0.28516,-1.1875 -0.30078,-1.17969 -0.30469,-1.17969 -0.3164,-1.17578 -0.32813,-1.17187 -0.33203,-1.17188 -0.33984,-1.16797 -0.35157,-1.16406 -0.35156,-1.16015 -0.36328,-1.16016 -0.36719,-1.15234 -0.37109,-1.15625 -0.375,-1.14844 -0.76563,-2.29688 -0.38672,-1.14453 -0.38671,-1.14062 -0.39063,-1.14063 -0.78906,-2.27344 -0.39844,-1.13671 -0.80469,-2.26563 -0.41015,-1.12891 -0.41016,-1.125 -0.41797,-1.125 -0.42187,-1.12109 -0.42578,-1.12109 -0.42969,-1.11719 -0.4375,-1.11719 -0.44141,-1.10937 -0.44922,-1.10938 -0.45703,-1.10937 -0.46484,-1.10157 -0.46875,-1.09765 -0.47656,-1.09766 -0.48438,-1.09375 -0.48828,-1.08594 -0.5,-1.08593 -0.50391,-1.08203 -0.50781,-1.08204 -0.51562,-1.07421 -0.52344,-1.07032 -0.52735,-1.07031 -0.53515,-1.06641 -0.53906,-1.0625 -0.54688,-1.05468 L 536.12109,172 535.5625,170.94922 535,169.89844 l -0.57422,-1.04297 -0.57812,-1.03906 -0.58594,-1.03516 -0.59375,-1.02734 -0.60156,-1.02735 -0.60938,-1.01562 -0.61719,-1.01563 -0.6289,-1.00781 -0.64063,-1 -0.64844,-0.99609 -0.65625,-0.98829 -0.67187,-0.98046 -0.67969,-0.96875 -0.6914,-0.96485 -0.70313,-0.95703 -0.71875,-0.94531 -0.72266,-0.94141 -0.73828,-0.92969 -0.75,-0.91796 -0.75781,-0.91407 -0.76953,-0.90234 -0.77734,-0.89453 -0.78907,-0.88672 -0.79687,-0.87891 -0.8086,-0.86718 -0.8125,-0.86329 -0.82031,-0.85156 -0.83203,-0.84375 -0.83594,-0.83594 -0.84375,-0.82812 -0.85156,-0.82422 -0.85547,-0.8125 -0.86328,-0.80469 -0.86719,-0.79687 -0.875,-0.78906 -0.88281,-0.78125 -0.89062,-0.77344 -0.89844,-0.76172 -0.90235,-0.75391 -0.91015,-0.74218 -0.92188,-0.73438 -0.92578,-0.72266 -0.93359,-0.71093 -0.94141,-0.70313 -0.94922,-0.6914 -0.95703,-0.67969 -0.96484,-0.66797 -0.97266,-0.65625 -0.98047,-0.64844 -0.98828,-0.63672 -0.99219,-0.625 -0.99609,-0.61328 -1.00391,-0.60547 -1.00781,-0.59375 -1.00781,-0.58984 -1.01563,-0.57812 -1.01562,-0.57032 -1.01953,-0.5625 -1.01953,-0.55468 L 485.3125,121 l -1.02344,-0.53906 -1.02734,-0.53516 -1.02344,-0.52734 -1.02734,-0.51953 -1.02735,-0.51563 -1.02734,-0.51172 -1.03125,-0.5 -1.02734,-0.5 -1.03125,-0.48828 -1.02735,-0.48437 -1.03125,-0.48047 -1.03125,-0.46875 -1.03515,-0.46485 -1.03125,-0.45703 -1.03516,-0.45312 -1.03516,-0.44531 -1.03515,-0.44141 -1.03516,-0.43359 -1.03125,-0.42579 -1.03906,-0.42187 -1.03516,-0.41797 -1.03515,-0.40625 -1.03907,-0.40234 -1.03906,-0.39063 -1.04297,-0.38672 -1.04297,-0.375 -1.04297,-0.36718 -1.04687,-0.35547 -1.05078,-0.34766 -1.05469,-0.33594 -1.05469,-0.32031 -1.0625,-0.3125 -1.0625,-0.29687 -1.07031,-0.28125 -1.07422,-0.26954 -1.07812,-0.2539 -1.08203,-0.23438 -1.08204,-0.22265 -1.08984,-0.21094 -1.09375,-0.19141 -1.09375,-0.18359 -1.09375,-0.16797 -1.09766,-0.15234 -1.09765,-0.14453 -1.09766,-0.13282 -1.10156,-0.12109 -1.09766,-0.10938 -1.09765,-0.10156 -1.09766,-0.0898 -1.09766,-0.082 -1.09765,-0.0742 -1.09375,-0.0625 -1.08985,-0.0586 -1.08984,-0.0469 -1.08984,-0.0391 -1.08985,-0.0273 -1.08593,-0.0156 -1.08985,-0.004 -1.08594,0.008 -1.08984,0.0234 -1.08594,0.0352 -1.08593,0.0508 -1.08594,0.0664 -1.08985,0.0781 -1.08593,0.0977 -1.08594,0.10937 -1.08203,0.12891 -1.08594,0.14062 -1.08594,0.16016 -1.08203,0.17578 -1.08203,0.19141 -1.07812,0.20703 -1.07813,0.21875 -1.07422,0.23047 -1.07031,0.24609 -1.06641,0.25781 -1.0664,0.26953 -1.0586,0.28516 -1.05468,0.29297 -1.05469,0.30469 -1.04688,0.3125 -1.04297,0.32812 -1.03906,0.33594 -1.03515,0.34375 -1.02735,0.35547 -1.02344,0.36328 -1.01953,0.36719 -1.00781,0.375 -1.00781,0.38281 -0.9961,0.38281 -0.99218,0.39063 -0.98828,0.39062 -0.97657,0.39453 -0.97265,0.39063 -0.96485,0.39453 -0.95703,0.39062 -0.94922,0.39063 -0.94531,0.38281 -0.93359,0.37891 -0.92969,0.375 -0.92188,0.36719 -0.91406,0.36328 -0.91015,0.35937 -0.90235,0.35156 -0.89453,0.34375 -0.89062,0.34375 -0.88282,0.33594 -0.8789,0.33203 -0.8711,0.32422 -0.86718,0.32422 -0.86329,0.31641 -0.85937,0.3164 -0.85156,0.3086 -0.84766,0.30859 -0.84375,0.30469 -0.83984,0.30078 -0.83594,0.29687 -0.82813,0.29688 -0.82812,0.28906 -0.82422,0.28516 -0.81641,0.27734 -0.8164,0.27344 -0.8125,0.26562 -0.8086,0.26172 -0.80468,0.25 -0.80469,0.2461 -0.80078,0.23828 -0.79688,0.22656 -0.79687,0.22266 -0.79297,0.21093 -0.79297,0.20313 -0.78906,0.19141 -0.78906,0.18359 -0.78907,0.17578 -0.78906,0.16797 -0.78516,0.15625 -0.78515,0.15234 -0.78906,0.14063 -0.78516,0.13672 -1.57031,0.25 -0.78516,0.11328 -0.78906,0.10937 -0.78516,0.10547 -0.78906,0.0977 -1.57813,0.17969 -0.79296,0.082 -0.79297,0.0781 -0.79297,0.0742 -0.79297,0.0664 -0.80078,0.0586 -0.79688,0.0547 -0.80468,0.0508 -0.80469,0.0391 -0.80469,0.0352 -0.8125,0.0273 -0.8125,0.0195 -0.82031,0.0117 -0.82031,0.004 -0.82813,-0.008 -0.83203,-0.0117 -0.83594,-0.0234 -0.83984,-0.0352 -0.84766,-0.0391 -0.85156,-0.0508 -0.85547,-0.0547 -0.86328,-0.0625 -0.86719,-0.0664 -1.75,-0.14844 -1.77344,-0.16406 -0.89453,-0.0859 -1.80468,-0.17188 -0.91016,-0.0859 -0.91406,-0.0859 -0.91797,-0.0859 -0.92188,-0.082 -0.92578,-0.0781 -0.93359,-0.082 -0.9336,-0.0781 -1.89062,-0.15625 -0.95313,-0.082 -0.96093,-0.0781 -0.96485,-0.082 -0.97656,-0.0859 -0.98047,-0.0859 -0.98437,-0.0859 -0.9961,-0.0898 -1,-0.0898 -1.01172,-0.0937 -1.01562,-0.0937 -1.02344,-0.0977 -1.03515,-0.0977 -1.03907,-0.0977 -1.05078,-0.0977 -1.05469,-0.0977 -1.0625,-0.0937 -1.07031,-0.0937 -1.07422,-0.0898 -1.08203,-0.0859 -1.08594,-0.082 -1.09375,-0.0742 -1.09765,-0.0742 -1.10547,-0.0664 -1.10938,-0.0625 -1.11718,-0.0547 -1.1211,-0.0508 -1.125,-0.043 -1.1289,-0.0391 -1.13282,-0.0234 -1.13671,-0.0195 -1.13672,-0.004 -1.13672,0.0117 -1.13672,0.0234 -1.13672,0.0352 -1.13672,0.0547 -1.1289,0.0703 -1.12891,0.0898 -1.12109,0.10938 -1.11719,0.125 -1.10938,0.15234 -1.10156,0.17188 -1.08984,0.19531 -1.08203,0.22266 -1.07032,0.24218 -1.05859,0.26563 -1.05078,0.28516 -1.04297,0.30468 -1.03516,0.32032 -1.02734,0.33984 -1.01953,0.35937 -1.01172,0.3711 -1.00781,0.38281 -1.00391,0.39844 -0.99609,0.41015 -0.99219,0.42188 -0.98828,0.43359 -0.98438,0.44141 -0.98437,0.45312 -0.98047,0.45703 -0.98047,0.46875 -0.97656,0.47266 -0.97656,0.48047 -0.97657,0.48828 -0.97656,0.49219 -0.97266,0.5 -0.97265,0.50781 -0.97266,0.51563 -0.96875,0.52343 -0.97265,0.52344 -0.96875,0.53125 -0.97266,0.53906 -0.97656,0.53907 -0.97657,0.54296 -0.97656,0.55079 -0.98047,0.55078 -0.98437,0.55468 -0.98438,0.5625 -0.98437,0.56641 -0.98438,0.57031 -0.98437,0.57813 -0.98438,0.58594 -0.98437,0.59375 -0.98047,0.60156 -0.97656,0.60937 -0.97266,0.61719 -0.96484,0.62891 -0.96485,0.64062 -0.95312,0.64844 -0.94922,0.66016 -0.9375,0.67187 -0.92969,0.6875 -0.92187,0.69531 -0.91016,0.71094 -0.89844,0.71875 -0.89453,0.73047 -0.88281,0.74219 -0.875,0.7539 -0.86719,0.76172 -0.86328,0.76953 -0.85156,0.78125 -0.84375,0.78907 -0.83594,0.80078 -0.82812,0.80468 -0.82422,0.82032 -0.8125,0.82422 -0.80469,0.83203 -0.80078,0.83984 -0.79297,0.85156 -0.78516,0.85547 -0.78125,0.86328 -0.77343,0.8711 -0.76563,0.875 -0.76172,0.88672 -0.7539,0.89062 -0.75,0.89453 -0.74219,0.90625 -0.73828,0.91016 -0.73438,0.91406 -0.73047,0.92188 -0.72656,0.92578 -0.72266,0.92968 -0.72265,0.9336 -0.71875,0.9414 -0.71485,0.94141 -0.71484,0.94922 -0.71094,0.95312 -0.70703,0.95704 -0.70312,0.96484 -0.69922,0.96875 -0.69531,0.97266 -0.69141,0.98046 -0.68359,0.98829 -0.67579,0.99218 -0.67187,0.9961 -0.66797,1.0039 -0.65625,1.01172 -0.64844,1.01563 -0.64062,1.02343 -0.63281,1.02735 -0.6211,1.03515 -0.61719,1.04297 -0.60546,1.04688 -0.59766,1.05469 -0.59375,1.05859 -0.58203,1.0625 -0.57813,1.07031 -0.57422,1.07422 -0.5664,1.07813 -0.5586,1.08593 -0.55468,1.08594 -0.55078,1.09375 -0.54688,1.09766 -0.54297,1.10156 -0.53515,1.10547 -0.53516,1.10937 -0.52734,1.11328 -0.52735,1.11719 -0.51953,1.125 -0.51562,1.125 -0.51172,1.13281 -0.50391,1.13282 -0.49609,1.14062 -0.49219,1.14453 -0.48438,1.15235 -0.48046,1.15234 -0.46875,1.16016 -0.46094,1.16406 -0.45313,1.16797 -0.4414,1.17187 -0.4375,1.17578 -0.42578,1.1836 -0.41407,1.18359 -0.40625,1.19141 -0.40234,1.19531 -0.39063,1.19922 -0.38281,1.20312 -0.375,1.20313 -0.36719,1.21094 -0.35937,1.21484 -0.35547,1.21875 -0.35156,1.21875 -0.34375,1.22656 -0.33985,1.22657 -0.33593,1.23046 -0.33594,1.23438 -0.33203,1.23828 -0.32813,1.24219 -0.32422,1.24609 -0.32031,1.2461 -0.3164,1.2539 -0.30469,1.25391 -0.30078,1.26172 -0.28907,1.26172 -0.28125,1.26562"
       style="fill:none;stroke:#000000;stroke-width:3;stroke-linecap:round;stroke-linejoin:round;stroke-miterlimit:10;stroke-opacity:1" />
  </g>
</svg>
