<?xml version="1.0" encoding="UTF-8"?>
<svg xmlns="http://www.w3.org/2000/svg" xmlns:xlink="http://www.w3.org/1999/xlink" width="702pt" height="518pt" viewBox="0 0 702 518" version="1.1">
<defs>
<clipPath id="clip1">
  <path d="M 59.039063 59.039063 L 672.757813 59.039063 L 672.757813 445.558594 L 59.039063 445.558594 Z M 59.039063 59.039063 "/>
</clipPath>
</defs>
<g id="surface31">
<rect x="0" y="0" width="702" height="518" style="fill:rgb(100%,100%,100%);fill-opacity:1;stroke:none;"/>
<g clip-path="url(#clip1)" clip-rule="nonzero">
<path style="fill:none;stroke-width:3;stroke-linecap:round;stroke-linejoin:round;stroke:rgb(0%,0%,0%);stroke-opacity:1;stroke-miterlimit:10;" d="M 175.71875 252.605469 L 175.476563 253.828125 L 175.246094 255.054688 L 175.027344 256.28125 L 174.816406 257.511719 L 174.617188 258.742188 L 174.429688 259.976563 L 174.257813 261.214844 L 174.09375 262.457031 L 173.945313 263.699219 L 173.8125 264.941406 L 173.691406 266.1875 L 173.582031 267.433594 L 173.492188 268.679688 L 173.417969 269.929688 L 173.363281 271.179688 L 173.324219 272.429688 L 173.304688 273.679688 L 173.300781 274.929688 L 173.316406 276.179688 L 173.351563 277.425781 L 173.402344 278.675781 L 173.476563 279.921875 L 173.566406 281.164063 L 173.675781 282.40625 L 173.808594 283.648438 L 173.96875 284.886719 L 174.152344 286.117188 L 174.371094 287.34375 L 174.617188 288.566406 L 174.898438 289.78125 L 175.214844 290.988281 L 175.570313 292.1875 L 175.964844 293.378906 L 176.398438 294.554688 L 176.878906 295.722656 L 177.40625 296.875 L 177.976563 298.011719 L 178.597656 299.136719 L 179.269531 300.242188 L 179.988281 301.332031 L 180.757813 302.402344 L 181.574219 303.453125 L 182.433594 304.484375 L 183.335938 305.5 L 184.273438 306.496094 L 185.25 307.472656 L 186.257813 308.429688 L 187.296875 309.371094 L 188.363281 310.292969 L 189.453125 311.199219 L 190.566406 312.085938 L 191.703125 312.957031 L 192.859375 313.808594 L 194.03125 314.648438 L 195.210938 315.46875 L 196.40625 316.273438 L 197.609375 317.066406 L 198.820313 317.847656 L 200.035156 318.613281 L 201.253906 319.363281 L 202.472656 320.105469 L 203.695313 320.835938 L 204.914063 321.550781 L 206.132813 322.257813 L 207.351563 322.957031 L 208.5625 323.644531 L 209.761719 324.324219 L 210.953125 325 L 212.136719 325.667969 L 213.300781 326.332031 L 214.453125 326.992188 L 215.589844 327.648438 L 216.710938 328.304688 L 217.816406 328.957031 L 218.902344 329.613281 L 219.972656 330.261719 L 221.03125 330.914063 L 222.070313 331.5625 L 223.09375 332.210938 L 224.101563 332.863281 L 225.097656 333.511719 L 226.078125 334.160156 L 227.042969 334.8125 L 227.992188 335.460938 L 228.933594 336.113281 L 229.863281 336.765625 L 230.777344 337.414063 L 231.6875 338.0625 L 232.585938 338.714844 L 233.472656 339.363281 L 234.355469 340.011719 L 235.226563 340.660156 L 236.089844 341.304688 L 236.949219 341.953125 L 237.800781 342.597656 L 238.644531 343.242188 L 239.484375 343.886719 L 240.320313 344.527344 L 241.152344 345.164063 L 241.980469 345.800781 L 242.808594 346.433594 L 243.636719 347.0625 L 244.460938 347.6875 L 245.289063 348.308594 L 246.113281 348.921875 L 246.941406 349.53125 L 247.769531 350.136719 L 248.597656 350.738281 L 249.425781 351.335938 L 250.253906 351.925781 L 251.085938 352.511719 L 251.917969 353.089844 L 252.753906 353.664063 L 253.585938 354.234375 L 254.421875 354.800781 L 255.257813 355.359375 L 256.097656 355.914063 L 256.933594 356.460938 L 257.773438 357.003906 L 258.613281 357.542969 L 259.457031 358.078125 L 260.296875 358.605469 L 261.140625 359.128906 L 261.984375 359.648438 L 262.828125 360.160156 L 263.675781 360.667969 L 264.523438 361.167969 L 265.375 361.664063 L 266.226563 362.152344 L 267.078125 362.636719 L 267.929688 363.117188 L 268.785156 363.589844 L 269.640625 364.058594 L 270.496094 364.519531 L 271.355469 364.976563 L 273.074219 365.875 L 274.792969 366.75 L 275.65625 367.179688 L 277.382813 368.023438 L 278.246094 368.433594 L 279.113281 368.839844 L 279.980469 369.242188 L 280.847656 369.636719 L 281.71875 370.027344 L 282.589844 370.410156 L 283.460938 370.789063 L 284.332031 371.15625 L 285.207031 371.523438 L 286.082031 371.878906 L 286.960938 372.230469 L 287.839844 372.574219 L 288.71875 372.914063 L 289.597656 373.246094 L 290.476563 373.574219 L 291.355469 373.894531 L 292.238281 374.210938 L 293.117188 374.523438 L 293.996094 374.832031 L 294.875 375.132813 L 296.632813 375.726563 L 297.511719 376.015625 L 298.390625 376.300781 L 300.140625 376.863281 L 301.015625 377.136719 L 301.886719 377.410156 L 302.761719 377.679688 L 303.632813 377.949219 L 304.503906 378.210938 L 305.371094 378.472656 L 306.238281 378.726563 L 307.109375 378.980469 L 307.972656 379.234375 L 309.707031 379.726563 L 310.570313 379.96875 L 311.433594 380.207031 L 312.296875 380.441406 L 313.15625 380.675781 L 314.019531 380.90625 L 314.878906 381.132813 L 315.738281 381.355469 L 316.59375 381.578125 L 317.453125 381.800781 L 318.308594 382.019531 L 319.164063 382.234375 L 320.015625 382.449219 L 320.871094 382.664063 L 321.71875 382.878906 L 322.570313 383.089844 L 323.417969 383.304688 L 325.113281 383.726563 L 327.644531 384.359375 L 328.488281 384.574219 L 331.007813 385.207031 L 331.84375 385.417969 L 332.683594 385.628906 L 333.519531 385.839844 L 334.355469 386.046875 L 335.195313 386.257813 L 336.867188 386.671875 L 337.703125 386.875 L 338.539063 387.082031 L 339.378906 387.285156 L 340.214844 387.484375 L 341.050781 387.6875 L 341.890625 387.886719 L 342.726563 388.082031 L 343.566406 388.277344 L 344.402344 388.472656 L 345.242188 388.667969 L 346.082031 388.859375 L 346.921875 389.054688 L 347.761719 389.246094 L 348.601563 389.433594 L 349.445313 389.625 L 350.285156 389.8125 L 353.660156 390.5625 L 354.507813 390.746094 L 355.351563 390.929688 L 356.199219 391.113281 L 357.050781 391.292969 L 357.898438 391.476563 L 358.75 391.660156 L 360.453125 392.019531 L 363.019531 392.558594 L 363.878906 392.738281 L 364.738281 392.914063 L 365.597656 393.09375 L 367.324219 393.453125 L 369.058594 393.8125 L 371.671875 394.351563 L 372.546875 394.527344 L 373.425781 394.703125 L 374.304688 394.882813 L 375.1875 395.054688 L 376.070313 395.230469 L 376.957031 395.398438 L 377.84375 395.570313 L 378.734375 395.738281 L 379.628906 395.902344 L 380.523438 396.0625 L 381.421875 396.222656 L 382.320313 396.378906 L 383.222656 396.53125 L 384.125 396.679688 L 385.03125 396.828125 L 385.941406 396.972656 L 387.769531 397.253906 L 388.683594 397.390625 L 389.605469 397.527344 L 390.527344 397.660156 L 391.449219 397.789063 L 393.308594 398.046875 L 394.238281 398.171875 L 395.175781 398.292969 L 396.113281 398.417969 L 397.054688 398.539063 L 398 398.65625 L 399.898438 398.890625 L 400.851563 399.003906 L 401.808594 399.113281 L 402.769531 399.222656 L 403.730469 399.324219 L 404.695313 399.425781 L 405.664063 399.523438 L 406.636719 399.617188 L 407.609375 399.707031 L 408.585938 399.792969 L 409.566406 399.871094 L 410.550781 399.949219 L 411.535156 400.015625 L 412.523438 400.082031 L 413.511719 400.140625 L 414.503906 400.195313 L 416.496094 400.289063 L 417.496094 400.324219 L 418.5 400.359375 L 419.503906 400.386719 L 420.511719 400.414063 L 421.523438 400.433594 L 422.535156 400.445313 L 423.550781 400.457031 L 424.570313 400.464844 L 426.613281 400.464844 L 427.640625 400.457031 L 428.671875 400.445313 L 429.707031 400.433594 L 430.742188 400.410156 L 431.78125 400.386719 L 432.820313 400.355469 L 433.863281 400.316406 L 434.90625 400.269531 L 435.949219 400.214844 L 436.996094 400.152344 L 438.042969 400.082031 L 439.09375 400 L 440.140625 399.914063 L 441.1875 399.8125 L 442.238281 399.703125 L 443.285156 399.582031 L 444.332031 399.449219 L 445.378906 399.304688 L 446.421875 399.148438 L 447.464844 398.984375 L 448.507813 398.804688 L 449.550781 398.617188 L 450.589844 398.417969 L 451.628906 398.210938 L 452.667969 397.992188 L 453.703125 397.765625 L 454.742188 397.53125 L 455.777344 397.289063 L 456.8125 397.035156 L 457.847656 396.773438 L 458.878906 396.503906 L 459.914063 396.226563 L 460.945313 395.941406 L 461.980469 395.648438 L 463.011719 395.351563 L 464.042969 395.042969 L 465.074219 394.726563 L 466.101563 394.40625 L 467.132813 394.074219 L 468.160156 393.734375 L 469.183594 393.386719 L 470.207031 393.027344 L 471.226563 392.660156 L 472.246094 392.285156 L 473.261719 391.898438 L 474.277344 391.503906 L 475.289063 391.101563 L 476.300781 390.691406 L 477.304688 390.269531 L 478.308594 389.839844 L 479.3125 389.398438 L 480.308594 388.953125 L 481.304688 388.496094 L 482.296875 388.03125 L 483.285156 387.554688 L 484.269531 387.070313 L 485.253906 386.582031 L 486.234375 386.082031 L 487.210938 385.574219 L 488.1875 385.058594 L 489.15625 384.535156 L 490.125 384.003906 L 491.089844 383.460938 L 492.046875 382.910156 L 493.003906 382.351563 L 493.957031 381.785156 L 494.902344 381.210938 L 495.847656 380.628906 L 496.789063 380.035156 L 497.722656 379.4375 L 498.65625 378.832031 L 499.589844 378.21875 L 500.515625 377.597656 L 501.4375 376.972656 L 502.359375 376.339844 L 503.277344 375.699219 L 504.195313 375.054688 L 505.109375 374.402344 L 506.019531 373.746094 L 506.929688 373.085938 L 507.839844 372.417969 L 508.75 371.746094 L 509.65625 371.070313 L 510.558594 370.386719 L 511.460938 369.699219 L 512.359375 369.003906 L 513.253906 368.300781 L 514.140625 367.59375 L 515.027344 366.875 L 515.90625 366.152344 L 516.78125 365.417969 L 517.648438 364.675781 L 518.507813 363.925781 L 519.359375 363.164063 L 520.203125 362.394531 L 521.035156 361.613281 L 521.859375 360.820313 L 522.671875 360.019531 L 523.472656 359.207031 L 524.265625 358.382813 L 525.046875 357.554688 L 525.820313 356.710938 L 526.585938 355.863281 L 527.339844 355.007813 L 528.085938 354.140625 L 528.824219 353.269531 L 529.558594 352.390625 L 530.28125 351.503906 L 531 350.613281 L 531.710938 349.714844 L 532.414063 348.8125 L 533.113281 347.902344 L 533.804688 346.988281 L 534.492188 346.070313 L 535.175781 345.144531 L 535.851563 344.214844 L 536.519531 343.28125 L 537.179688 342.339844 L 537.835938 341.394531 L 538.480469 340.441406 L 539.117188 339.484375 L 539.746094 338.515625 L 540.359375 337.542969 L 540.96875 336.566406 L 541.5625 335.578125 L 542.148438 334.585938 L 542.722656 333.585938 L 543.285156 332.582031 L 543.832031 331.570313 L 544.371094 330.550781 L 544.894531 329.523438 L 545.40625 328.492188 L 545.90625 327.453125 L 546.398438 326.410156 L 546.875 325.363281 L 547.34375 324.308594 L 547.800781 323.253906 L 548.246094 322.191406 L 548.683594 321.125 L 549.113281 320.054688 L 549.53125 318.980469 L 549.941406 317.902344 L 550.34375 316.824219 L 550.734375 315.742188 L 551.121094 314.652344 L 551.496094 313.566406 L 551.863281 312.472656 L 552.226563 311.378906 L 552.578125 310.28125 L 552.921875 309.183594 L 553.257813 308.082031 L 553.585938 306.976563 L 553.90625 305.871094 L 554.21875 304.761719 L 554.523438 303.652344 L 554.820313 302.539063 L 555.109375 301.425781 L 555.390625 300.308594 L 555.664063 299.191406 L 555.933594 298.070313 L 556.191406 296.949219 L 556.441406 295.824219 L 556.6875 294.703125 L 556.925781 293.574219 L 557.15625 292.449219 L 557.382813 291.320313 L 557.601563 290.191406 L 557.8125 289.0625 L 558.019531 287.929688 L 558.21875 286.800781 L 558.414063 285.667969 L 558.605469 284.535156 L 558.789063 283.398438 L 558.964844 282.265625 L 559.136719 281.128906 L 559.304688 279.992188 L 559.46875 278.855469 L 559.625 277.71875 L 559.777344 276.578125 L 559.921875 275.4375 L 560.066406 274.300781 L 560.199219 273.160156 L 560.328125 272.019531 L 560.453125 270.875 L 560.570313 269.734375 L 560.683594 268.589844 L 560.789063 267.449219 L 560.890625 266.304688 L 560.984375 265.160156 L 561.074219 264.011719 L 561.230469 261.722656 L 561.296875 260.574219 L 561.359375 259.425781 L 561.414063 258.28125 L 561.460938 257.132813 L 561.503906 255.984375 L 561.539063 254.835938 L 561.566406 253.6875 L 561.585938 252.539063 L 561.601563 251.386719 L 561.609375 250.238281 L 561.609375 249.089844 L 561.601563 247.941406 L 561.585938 246.789063 L 561.5625 245.640625 L 561.53125 244.492188 L 561.492188 243.34375 L 561.445313 242.195313 L 561.390625 241.046875 L 561.328125 239.898438 L 561.257813 238.75 L 561.179688 237.605469 L 561.09375 236.457031 L 561.003906 235.3125 L 560.902344 234.164063 L 560.796875 233.019531 L 560.683594 231.875 L 560.5625 230.734375 L 560.4375 229.589844 L 560.304688 228.449219 L 560.164063 227.304688 L 560.019531 226.164063 L 559.871094 225.023438 L 559.714844 223.886719 L 559.554688 222.746094 L 559.390625 221.609375 L 559.214844 220.46875 L 559.039063 219.332031 L 558.855469 218.199219 L 558.664063 217.0625 L 558.46875 215.929688 L 558.054688 213.664063 L 557.835938 212.535156 L 557.609375 211.40625 L 557.375 210.277344 L 557.136719 209.152344 L 556.886719 208.027344 L 556.628906 206.90625 L 556.363281 205.785156 L 556.085938 204.667969 L 555.804688 203.550781 L 555.511719 202.4375 L 555.210938 201.324219 L 554.902344 200.214844 L 554.585938 199.109375 L 554.261719 198.003906 L 553.933594 196.898438 L 553.59375 195.796875 L 553.25 194.699219 L 552.898438 193.601563 L 552.539063 192.507813 L 552.175781 191.414063 L 551.804688 190.324219 L 551.429688 189.234375 L 551.046875 188.148438 L 550.660156 187.066406 L 550.265625 185.980469 L 549.863281 184.902344 L 549.457031 183.824219 L 549.042969 182.75 L 548.621094 181.679688 L 548.191406 180.609375 L 547.753906 179.542969 L 547.308594 178.480469 L 546.855469 177.421875 L 546.390625 176.367188 L 545.917969 175.316406 L 545.4375 174.269531 L 544.945313 173.230469 L 544.441406 172.191406 L 543.929688 171.160156 L 543.40625 170.136719 L 542.875 169.113281 L 542.332031 168.097656 L 541.777344 167.089844 L 541.214844 166.085938 L 540.644531 165.085938 L 540.066406 164.089844 L 539.476563 163.101563 L 538.882813 162.117188 L 538.277344 161.140625 L 537.664063 160.164063 L 537.046875 159.195313 L 536.417969 158.234375 L 535.785156 157.273438 L 535.144531 156.320313 L 534.5 155.371094 L 533.847656 154.425781 L 533.1875 153.488281 L 532.519531 152.554688 L 531.847656 151.625 L 531.167969 150.703125 L 530.480469 149.785156 L 529.785156 148.871094 L 529.085938 147.96875 L 528.375 147.070313 L 527.65625 146.175781 L 526.929688 145.292969 L 526.195313 144.414063 L 525.453125 143.542969 L 524.703125 142.679688 L 523.941406 141.824219 L 523.175781 140.976563 L 522.398438 140.136719 L 521.617188 139.308594 L 520.824219 138.484375 L 520.023438 137.667969 L 519.214844 136.863281 L 518.398438 136.0625 L 517.578125 135.273438 L 516.746094 134.488281 L 515.910156 133.714844 L 515.066406 132.949219 L 514.214844 132.191406 L 513.359375 131.441406 L 512.492188 130.699219 L 511.621094 129.964844 L 510.746094 129.242188 L 509.863281 128.527344 L 508.972656 127.820313 L 508.074219 127.121094 L 507.175781 126.429688 L 506.265625 125.75 L 505.351563 125.078125 L 504.433594 124.414063 L 503.507813 123.761719 L 502.578125 123.117188 L 501.640625 122.480469 L 500.699219 121.851563 L 499.753906 121.234375 L 498.804688 120.625 L 497.847656 120.023438 L 496.886719 119.429688 L 495.921875 118.847656 L 494.957031 118.269531 L 493.984375 117.703125 L 493.007813 117.144531 L 492.027344 116.597656 L 491.042969 116.058594 L 490.054688 115.527344 L 489.058594 115.007813 L 488.0625 114.496094 L 487.058594 113.996094 L 486.054688 113.503906 L 485.042969 113.027344 L 484.027344 112.558594 L 483.003906 112.101563 L 481.980469 111.65625 L 480.949219 111.222656 L 479.914063 110.800781 L 478.875 110.394531 L 477.828125 109.996094 L 476.777344 109.613281 L 475.726563 109.242188 L 474.667969 108.886719 L 473.605469 108.539063 L 472.539063 108.203125 L 471.472656 107.878906 L 470.402344 107.566406 L 469.328125 107.269531 L 468.253906 106.976563 L 467.175781 106.699219 L 466.097656 106.429688 L 465.015625 106.175781 L 463.933594 105.929688 L 462.851563 105.691406 L 461.769531 105.464844 L 460.683594 105.25 L 459.597656 105.042969 L 458.511719 104.84375 L 457.425781 104.65625 L 456.339844 104.480469 L 455.253906 104.3125 L 454.167969 104.15625 L 453.078125 104.011719 L 451.992188 103.875 L 450.90625 103.75 L 449.816406 103.632813 L 448.730469 103.527344 L 447.644531 103.433594 L 446.558594 103.34375 L 445.476563 103.269531 L 444.390625 103.203125 L 443.308594 103.144531 L 442.226563 103.09375 L 441.148438 103.054688 L 440.070313 103.027344 L 438.992188 103.007813 L 437.914063 102.996094 L 436.839844 102.996094 L 435.765625 103.003906 L 434.695313 103.023438 L 433.625 103.050781 L 432.558594 103.089844 L 431.492188 103.132813 L 430.429688 103.191406 L 429.367188 103.257813 L 428.308594 103.332031 L 427.25 103.417969 L 426.195313 103.515625 L 425.140625 103.621094 L 424.089844 103.734375 L 423.042969 103.855469 L 422 103.984375 L 420.957031 104.125 L 419.921875 104.269531 L 418.886719 104.421875 L 417.855469 104.578125 L 416.832031 104.742188 L 415.808594 104.910156 L 414.792969 105.085938 L 413.78125 105.261719 L 412.769531 105.445313 L 411.765625 105.628906 L 410.769531 105.816406 L 409.773438 106.007813 L 408.785156 106.199219 L 407.800781 106.394531 L 406.820313 106.589844 L 405.84375 106.789063 L 403.90625 107.195313 L 402.945313 107.398438 L 401.988281 107.605469 L 401.035156 107.816406 L 400.085938 108.027344 L 399.144531 108.238281 L 398.203125 108.453125 L 397.269531 108.671875 L 396.335938 108.886719 L 395.410156 109.105469 L 394.488281 109.328125 L 392.652344 109.773438 L 391.742188 109.996094 L 390.835938 110.21875 L 389.9375 110.441406 L 389.039063 110.660156 L 388.144531 110.882813 L 387.253906 111.101563 L 386.367188 111.320313 L 385.484375 111.535156 L 384.605469 111.746094 L 383.730469 111.957031 L 382.859375 112.167969 L 381.988281 112.371094 L 381.125 112.574219 L 380.261719 112.773438 L 379.402344 112.96875 L 378.546875 113.164063 L 377.691406 113.351563 L 376.84375 113.535156 L 375.996094 113.714844 L 375.148438 113.890625 L 374.304688 114.058594 L 373.464844 114.226563 L 372.625 114.386719 L 371.785156 114.542969 L 370.949219 114.695313 L 370.113281 114.839844 L 369.28125 114.976563 L 368.449219 115.109375 L 367.617188 115.238281 L 366.785156 115.359375 L 365.953125 115.472656 L 365.125 115.582031 L 364.292969 115.683594 L 363.464844 115.78125 L 362.636719 115.871094 L 361.804688 115.957031 L 360.972656 116.035156 L 360.140625 116.109375 L 359.308594 116.175781 L 358.476563 116.238281 L 357.644531 116.296875 L 356.808594 116.347656 L 355.96875 116.394531 L 355.132813 116.4375 L 354.292969 116.476563 L 353.449219 116.507813 L 351.761719 116.5625 L 350.914063 116.582031 L 350.0625 116.597656 L 349.210938 116.609375 L 348.355469 116.617188 L 347.496094 116.621094 L 346.636719 116.621094 L 345.773438 116.617188 L 344.90625 116.609375 L 344.035156 116.601563 L 343.164063 116.585938 L 342.289063 116.570313 L 341.40625 116.550781 L 340.523438 116.527344 L 339.636719 116.503906 L 338.746094 116.476563 L 337.851563 116.449219 L 336.953125 116.417969 L 336.050781 116.386719 L 334.238281 116.324219 L 333.324219 116.289063 L 332.40625 116.253906 L 331.484375 116.222656 L 330.558594 116.1875 L 328.699219 116.125 L 327.761719 116.097656 L 325.878906 116.042969 L 324.929688 116.019531 L 323.980469 116 L 322.066406 115.96875 L 321.105469 115.957031 L 320.140625 115.949219 L 319.171875 115.945313 L 318.203125 115.945313 L 317.226563 115.949219 L 316.25 115.957031 L 315.269531 115.96875 L 314.285156 115.988281 L 313.300781 116.011719 L 312.308594 116.039063 L 311.316406 116.070313 L 310.320313 116.105469 L 309.324219 116.148438 L 308.324219 116.199219 L 307.320313 116.253906 L 306.316406 116.316406 L 305.308594 116.386719 L 304.300781 116.460938 L 303.292969 116.546875 L 302.28125 116.640625 L 301.269531 116.742188 L 300.257813 116.855469 L 299.246094 116.972656 L 298.234375 117.105469 L 297.222656 117.246094 L 296.210938 117.394531 L 295.199219 117.554688 L 294.191406 117.726563 L 293.183594 117.910156 L 292.175781 118.101563 L 291.171875 118.308594 L 290.167969 118.519531 L 289.164063 118.746094 L 288.164063 118.980469 L 287.164063 119.226563 L 286.167969 119.480469 L 285.171875 119.746094 L 284.175781 120.019531 L 283.183594 120.304688 L 282.191406 120.59375 L 281.199219 120.898438 L 280.210938 121.207031 L 279.222656 121.527344 L 278.238281 121.855469 L 277.25 122.191406 L 276.269531 122.535156 L 275.285156 122.890625 L 274.304688 123.25 L 273.324219 123.621094 L 272.347656 123.996094 L 271.371094 124.378906 L 270.394531 124.773438 L 269.417969 125.171875 L 268.445313 125.578125 L 267.472656 125.992188 L 266.5 126.414063 L 265.53125 126.84375 L 264.5625 127.277344 L 263.589844 127.71875 L 262.625 128.167969 L 261.65625 128.621094 L 260.6875 129.082031 L 259.722656 129.550781 L 258.757813 130.023438 L 257.792969 130.507813 L 256.828125 130.996094 L 255.867188 131.488281 L 254.90625 131.992188 L 253.945313 132.5 L 252.988281 133.015625 L 252.03125 133.535156 L 251.078125 134.066406 L 250.125 134.601563 L 249.171875 135.144531 L 248.222656 135.695313 L 247.277344 136.257813 L 246.332031 136.824219 L 245.390625 137.394531 L 244.449219 137.976563 L 243.515625 138.566406 L 242.582031 139.164063 L 241.652344 139.773438 L 240.726563 140.386719 L 239.804688 141.007813 L 238.886719 141.636719 L 237.976563 142.277344 L 237.066406 142.925781 L 236.160156 143.582031 L 235.261719 144.246094 L 234.367188 144.917969 L 233.480469 145.601563 L 232.597656 146.292969 L 231.722656 146.992188 L 230.851563 147.699219 L 229.988281 148.417969 L 229.132813 149.144531 L 228.28125 149.882813 L 227.4375 150.625 L 226.601563 151.378906 L 225.773438 152.140625 L 224.953125 152.914063 L 224.136719 153.695313 L 223.332031 154.484375 L 222.535156 155.28125 L 221.746094 156.085938 L 220.964844 156.902344 L 220.191406 157.726563 L 219.429688 158.558594 L 218.671875 159.398438 L 217.925781 160.25 L 217.1875 161.105469 L 216.460938 161.96875 L 215.738281 162.84375 L 215.027344 163.722656 L 214.324219 164.613281 L 213.632813 165.507813 L 212.949219 166.410156 L 212.273438 167.320313 L 211.605469 168.238281 L 210.945313 169.160156 L 210.296875 170.089844 L 209.652344 171.027344 L 209.019531 171.96875 L 208.394531 172.917969 L 207.777344 173.871094 L 207.167969 174.832031 L 206.5625 175.800781 L 205.96875 176.769531 L 205.382813 177.746094 L 204.800781 178.726563 L 204.226563 179.714844 L 203.660156 180.707031 L 203.101563 181.703125 L 202.546875 182.703125 L 202.003906 183.707031 L 201.460938 184.714844 L 200.929688 185.730469 L 200.402344 186.746094 L 199.882813 187.769531 L 199.367188 188.796875 L 198.859375 189.824219 L 198.359375 190.859375 L 197.863281 191.894531 L 197.371094 192.9375 L 196.882813 193.980469 L 196.398438 195.027344 L 195.914063 196.078125 L 195.4375 197.128906 L 194.960938 198.183594 L 194.484375 199.242188 L 194.011719 200.300781 L 193.539063 201.363281 L 193.0625 202.425781 L 192.589844 203.492188 L 191.636719 205.632813 L 191.15625 206.703125 L 190.679688 207.78125 L 190.195313 208.855469 L 189.234375 211.019531 L 188.753906 212.105469 L 188.277344 213.195313 L 187.800781 214.289063 L 187.332031 215.386719 L 186.863281 216.488281 L 186.398438 217.59375 L 185.9375 218.703125 L 185.484375 219.816406 L 185.039063 220.933594 L 184.597656 222.058594 L 184.164063 223.183594 L 183.742188 224.316406 L 183.324219 225.449219 L 182.914063 226.589844 L 182.515625 227.734375 L 182.121094 228.882813 L 181.738281 230.03125 L 181.359375 231.1875 L 180.984375 232.347656 L 180.621094 233.511719 L 180.261719 234.679688 L 179.910156 235.847656 L 179.5625 237.023438 L 179.222656 238.203125 L 178.890625 239.382813 L 178.566406 240.566406 L 178.25 241.757813 L 177.9375 242.949219 L 177.632813 244.144531 L 177.335938 245.34375 L 177.046875 246.546875 L 176.765625 247.75 L 176.492188 248.960938 L 176.222656 250.171875 L 175.964844 251.386719 "/>
</g>
</g>
</svg>
