<?xml version="1.0" encoding="UTF-8"?>
<svg xmlns="http://www.w3.org/2000/svg" xmlns:xlink="http://www.w3.org/1999/xlink" width="702pt" height="518pt" viewBox="0 0 702 518" version="1.1">
<defs>
<clipPath id="clip1">
  <path d="M 59.039063 59.039063 L 672.757813 59.039063 L 672.757813 445.558594 L 59.039063 445.558594 Z M 59.039063 59.039063 "/>
</clipPath>
</defs>
<g id="surface21">
<rect x="0" y="0" width="702" height="518" style="fill:rgb(100%,100%,100%);fill-opacity:1;stroke:none;"/>
<g clip-path="url(#clip1)" clip-rule="nonzero">
<path style="fill:none;stroke-width:3;stroke-linecap:round;stroke-linejoin:round;stroke:rgb(0%,0%,0%);stroke-opacity:1;stroke-miterlimit:10;" d="M 177.25 251.308594 L 177.074219 252.496094 L 176.910156 253.6875 L 176.757813 254.878906 L 176.617188 256.074219 L 176.488281 257.273438 L 176.371094 258.46875 L 176.269531 259.671875 L 176.175781 260.871094 L 176.097656 262.074219 L 176.035156 263.277344 L 175.980469 264.480469 L 175.941406 265.683594 L 175.914063 266.890625 L 175.902344 268.097656 L 175.902344 269.300781 L 175.914063 270.507813 L 175.941406 271.714844 L 175.984375 272.917969 L 176.039063 274.125 L 176.105469 275.328125 L 176.1875 276.53125 L 176.28125 277.734375 L 176.390625 278.9375 L 176.511719 280.136719 L 176.648438 281.335938 L 176.800781 282.53125 L 176.972656 283.726563 L 177.167969 284.917969 L 177.386719 286.105469 L 177.628906 287.285156 L 177.898438 288.460938 L 178.199219 289.632813 L 178.527344 290.792969 L 178.886719 291.949219 L 179.277344 293.09375 L 179.703125 294.234375 L 180.160156 295.359375 L 180.65625 296.476563 L 181.191406 297.578125 L 181.761719 298.667969 L 182.371094 299.746094 L 183.015625 300.808594 L 183.699219 301.859375 L 184.421875 302.890625 L 185.175781 303.90625 L 185.96875 304.910156 L 186.792969 305.894531 L 187.652344 306.863281 L 188.539063 307.8125 L 189.464844 308.746094 L 190.417969 309.660156 L 191.40625 310.558594 L 192.425781 311.433594 L 193.476563 312.292969 L 194.554688 313.128906 L 195.660156 313.949219 L 196.792969 314.746094 L 197.949219 315.523438 L 199.125 316.285156 L 200.316406 317.03125 L 201.527344 317.753906 L 202.75 318.464844 L 203.980469 319.15625 L 205.222656 319.835938 L 206.46875 320.5 L 207.714844 321.152344 L 208.964844 321.792969 L 210.210938 322.421875 L 211.449219 323.042969 L 212.679688 323.652344 L 213.902344 324.257813 L 215.109375 324.859375 L 216.300781 325.453125 L 217.484375 326.046875 L 218.648438 326.632813 L 219.804688 327.214844 L 220.941406 327.796875 L 222.070313 328.371094 L 223.183594 328.945313 L 224.28125 329.515625 L 225.367188 330.085938 L 226.441406 330.648438 L 227.5 331.214844 L 228.546875 331.777344 L 229.582031 332.339844 L 230.601563 332.902344 L 231.609375 333.460938 L 232.605469 334.019531 L 233.589844 334.578125 L 234.558594 335.136719 L 235.519531 335.691406 L 236.464844 336.25 L 237.402344 336.808594 L 238.328125 337.367188 L 239.238281 337.929688 L 240.136719 338.492188 L 241.027344 339.054688 L 241.90625 339.617188 L 242.773438 340.183594 L 243.632813 340.75 L 244.480469 341.316406 L 245.324219 341.882813 L 246.160156 342.453125 L 246.988281 343.019531 L 247.808594 343.585938 L 248.625 344.152344 L 250.242188 345.285156 L 251.042969 345.851563 L 251.839844 346.414063 L 252.632813 346.976563 L 253.421875 347.539063 L 254.210938 348.097656 L 254.996094 348.65625 L 256.558594 349.765625 L 257.339844 350.316406 L 258.121094 350.863281 L 258.898438 351.40625 L 259.679688 351.949219 L 260.457031 352.488281 L 261.234375 353.023438 L 262.011719 353.554688 L 263.566406 354.609375 L 264.34375 355.132813 L 265.121094 355.652344 L 265.898438 356.167969 L 266.671875 356.683594 L 267.449219 357.195313 L 268.222656 357.703125 L 269 358.210938 L 269.773438 358.71875 L 270.542969 359.21875 L 271.316406 359.722656 L 272.085938 360.21875 L 272.859375 360.71875 L 273.628906 361.214844 L 274.398438 361.707031 L 275.164063 362.199219 L 276.703125 363.175781 L 277.476563 363.65625 L 278.246094 364.136719 L 279.015625 364.613281 L 279.789063 365.089844 L 281.335938 366.027344 L 282.890625 366.949219 L 283.667969 367.40625 L 285.230469 368.304688 L 286.011719 368.75 L 286.796875 369.1875 L 288.367188 370.054688 L 289.945313 370.90625 L 290.738281 371.324219 L 292.324219 372.152344 L 293.121094 372.558594 L 293.917969 372.960938 L 294.714844 373.359375 L 295.515625 373.753906 L 296.316406 374.144531 L 297.117188 374.527344 L 297.921875 374.910156 L 298.730469 375.285156 L 299.535156 375.65625 L 300.34375 376.027344 L 301.96875 376.746094 L 302.78125 377.101563 L 303.59375 377.449219 L 304.410156 377.796875 L 305.226563 378.136719 L 306.046875 378.472656 L 306.863281 378.804688 L 307.683594 379.132813 L 308.507813 379.460938 L 309.328125 379.78125 L 310.152344 380.097656 L 310.976563 380.410156 L 311.800781 380.71875 L 312.628906 381.023438 L 313.453125 381.324219 L 314.28125 381.621094 L 315.113281 381.914063 L 315.941406 382.203125 L 316.773438 382.488281 L 318.4375 383.042969 L 320.109375 383.582031 L 320.945313 383.84375 L 321.785156 384.101563 L 323.464844 384.601563 L 324.304688 384.84375 L 325.148438 385.082031 L 325.988281 385.316406 L 326.832031 385.546875 L 327.675781 385.773438 L 328.523438 386 L 330.210938 386.4375 L 331.90625 386.867188 L 332.75 387.078125 L 333.597656 387.289063 L 334.445313 387.496094 L 335.289063 387.707031 L 336.136719 387.914063 L 336.984375 388.117188 L 337.832031 388.324219 L 341.222656 389.136719 L 342.070313 389.335938 L 342.921875 389.535156 L 343.773438 389.730469 L 344.625 389.921875 L 345.476563 390.117188 L 346.328125 390.304688 L 347.183594 390.492188 L 348.035156 390.675781 L 348.894531 390.859375 L 349.75 391.035156 L 350.609375 391.210938 L 351.464844 391.382813 L 352.328125 391.554688 L 353.1875 391.722656 L 355.777344 392.214844 L 356.640625 392.375 L 358.375 392.695313 L 359.242188 392.851563 L 360.984375 393.171875 L 361.855469 393.328125 L 362.726563 393.488281 L 363.601563 393.644531 L 364.476563 393.804688 L 367.113281 394.285156 L 368.878906 394.605469 L 370.652344 394.925781 L 372.433594 395.246094 L 374.222656 395.558594 L 375.121094 395.71875 L 376.019531 395.875 L 376.921875 396.027344 L 377.828125 396.183594 L 378.734375 396.335938 L 379.644531 396.488281 L 380.558594 396.640625 L 382.386719 396.9375 L 383.308594 397.082031 L 384.230469 397.230469 L 385.15625 397.371094 L 386.082031 397.515625 L 387.011719 397.652344 L 387.945313 397.792969 L 389.820313 398.058594 L 390.761719 398.191406 L 392.652344 398.441406 L 393.601563 398.5625 L 394.554688 398.679688 L 395.511719 398.792969 L 396.46875 398.902344 L 398.390625 399.113281 L 399.359375 399.210938 L 401.296875 399.398438 L 402.273438 399.484375 L 403.25 399.566406 L 404.230469 399.648438 L 405.210938 399.722656 L 406.199219 399.792969 L 407.183594 399.859375 L 408.175781 399.921875 L 409.167969 399.980469 L 410.164063 400.035156 L 411.164063 400.085938 L 412.164063 400.128906 L 413.167969 400.167969 L 414.171875 400.199219 L 415.179688 400.222656 L 416.191406 400.242188 L 417.203125 400.25 L 418.214844 400.253906 L 419.230469 400.25 L 420.242188 400.238281 L 421.261719 400.214844 L 422.277344 400.1875 L 423.296875 400.148438 L 424.316406 400.097656 L 425.335938 400.039063 L 426.355469 399.972656 L 427.375 399.894531 L 428.394531 399.808594 L 429.414063 399.714844 L 430.433594 399.609375 L 431.453125 399.496094 L 432.472656 399.371094 L 433.492188 399.238281 L 434.511719 399.097656 L 435.53125 398.945313 L 436.550781 398.785156 L 437.570313 398.617188 L 438.585938 398.4375 L 439.601563 398.25 L 440.621094 398.054688 L 441.636719 397.847656 L 442.648438 397.632813 L 443.664063 397.414063 L 444.675781 397.179688 L 445.6875 396.941406 L 446.699219 396.695313 L 447.710938 396.4375 L 448.71875 396.171875 L 449.726563 395.898438 L 450.734375 395.617188 L 451.738281 395.328125 L 452.742188 395.03125 L 453.746094 394.726563 L 454.75 394.414063 L 455.75 394.09375 L 456.75 393.769531 L 457.75 393.433594 L 458.75 393.09375 L 459.746094 392.746094 L 460.742188 392.386719 L 461.738281 392.023438 L 462.730469 391.65625 L 463.722656 391.277344 L 464.710938 390.890625 L 465.699219 390.5 L 466.6875 390.097656 L 467.671875 389.691406 L 468.65625 389.273438 L 469.636719 388.851563 L 470.617188 388.421875 L 471.589844 387.980469 L 472.566406 387.535156 L 473.535156 387.082031 L 474.503906 386.617188 L 475.472656 386.148438 L 476.433594 385.667969 L 477.394531 385.183594 L 478.351563 384.6875 L 479.308594 384.1875 L 480.257813 383.675781 L 481.207031 383.160156 L 482.15625 382.636719 L 483.097656 382.105469 L 484.035156 381.566406 L 484.972656 381.019531 L 485.90625 380.464844 L 486.835938 379.902344 L 487.761719 379.332031 L 488.6875 378.757813 L 489.605469 378.171875 L 490.523438 377.582031 L 491.433594 376.980469 L 492.339844 376.375 L 493.246094 375.757813 L 494.144531 375.136719 L 495.039063 374.507813 L 495.925781 373.867188 L 496.8125 373.222656 L 497.691406 372.566406 L 498.5625 371.902344 L 499.433594 371.230469 L 500.292969 370.550781 L 501.152344 369.863281 L 502 369.167969 L 502.84375 368.464844 L 503.683594 367.75 L 504.515625 367.03125 L 505.339844 366.304688 L 506.160156 365.566406 L 506.972656 364.824219 L 507.777344 364.074219 L 508.578125 363.3125 L 509.371094 362.546875 L 510.160156 361.777344 L 510.941406 360.996094 L 511.71875 360.210938 L 512.488281 359.417969 L 513.25 358.617188 L 514.007813 357.808594 L 514.757813 356.996094 L 515.5 356.175781 L 516.238281 355.351563 L 516.972656 354.519531 L 517.695313 353.679688 L 518.417969 352.835938 L 519.128906 351.988281 L 519.835938 351.132813 L 520.539063 350.269531 L 521.230469 349.402344 L 521.921875 348.53125 L 522.601563 347.652344 L 523.277344 346.769531 L 523.949219 345.882813 L 524.613281 344.988281 L 525.269531 344.089844 L 525.921875 343.1875 L 526.570313 342.277344 L 527.210938 341.363281 L 527.84375 340.445313 L 528.472656 339.523438 L 529.09375 338.597656 L 529.707031 337.664063 L 530.316406 336.726563 L 530.921875 335.785156 L 531.515625 334.839844 L 532.105469 333.886719 L 532.6875 332.933594 L 533.261719 331.972656 L 533.832031 331.007813 L 534.390625 330.035156 L 534.945313 329.0625 L 535.492188 328.085938 L 536.03125 327.101563 L 536.5625 326.113281 L 537.085938 325.121094 L 537.605469 324.125 L 538.113281 323.125 L 538.617188 322.121094 L 539.109375 321.113281 L 539.597656 320.101563 L 540.078125 319.085938 L 540.554688 318.066406 L 541.019531 317.042969 L 541.476563 316.015625 L 541.929688 314.984375 L 542.375 313.953125 L 542.8125 312.914063 L 543.242188 311.875 L 543.664063 310.832031 L 544.082031 309.785156 L 544.492188 308.734375 L 544.890625 307.683594 L 545.289063 306.625 L 545.675781 305.566406 L 546.058594 304.507813 L 546.433594 303.445313 L 546.800781 302.378906 L 547.164063 301.308594 L 547.519531 300.238281 L 547.867188 299.164063 L 548.210938 298.085938 L 548.550781 297.007813 L 548.878906 295.929688 L 549.203125 294.847656 L 549.523438 293.761719 L 549.835938 292.675781 L 550.144531 291.585938 L 550.445313 290.496094 L 550.738281 289.402344 L 551.027344 288.308594 L 551.3125 287.210938 L 551.589844 286.109375 L 551.859375 285.011719 L 552.125 283.910156 L 552.382813 282.804688 L 552.636719 281.699219 L 552.882813 280.589844 L 553.121094 279.480469 L 553.355469 278.367188 L 553.582031 277.257813 L 553.804688 276.140625 L 554.019531 275.023438 L 554.226563 273.90625 L 554.429688 272.789063 L 554.625 271.667969 L 554.8125 270.542969 L 554.996094 269.417969 L 555.171875 268.292969 L 555.34375 267.167969 L 555.664063 264.910156 L 555.8125 263.777344 L 555.953125 262.648438 L 556.089844 261.511719 L 556.21875 260.378906 L 556.34375 259.242188 L 556.457031 258.105469 L 556.566406 256.96875 L 556.667969 255.828125 L 556.761719 254.6875 L 556.847656 253.546875 L 556.925781 252.40625 L 557 251.265625 L 557.066406 250.121094 L 557.121094 248.976563 L 557.171875 247.832031 L 557.21875 246.6875 L 557.253906 245.539063 L 557.28125 244.394531 L 557.304688 243.246094 L 557.316406 242.097656 L 557.324219 240.949219 L 557.324219 239.800781 L 557.3125 238.652344 L 557.296875 237.503906 L 557.273438 236.355469 L 557.242188 235.207031 L 557.199219 234.054688 L 557.152344 232.90625 L 557.09375 231.757813 L 557.03125 230.609375 L 556.953125 229.460938 L 556.871094 228.3125 L 556.78125 227.164063 L 556.679688 226.015625 L 556.570313 224.871094 L 556.449219 223.722656 L 556.320313 222.578125 L 556.183594 221.433594 L 556.039063 220.292969 L 555.882813 219.148438 L 555.714844 218.007813 L 555.539063 216.871094 L 555.355469 215.730469 L 555.164063 214.59375 L 554.960938 213.460938 L 554.746094 212.328125 L 554.523438 211.195313 L 554.292969 210.066406 L 554.050781 208.9375 L 553.800781 207.8125 L 553.539063 206.6875 L 553.269531 205.566406 L 552.988281 204.449219 L 552.699219 203.332031 L 552.398438 202.21875 L 552.089844 201.105469 L 551.773438 199.996094 L 551.445313 198.890625 L 551.109375 197.789063 L 550.765625 196.6875 L 550.414063 195.589844 L 550.050781 194.496094 L 549.683594 193.402344 L 549.304688 192.316406 L 548.921875 191.230469 L 548.527344 190.144531 L 548.128906 189.066406 L 547.722656 187.988281 L 547.308594 186.910156 L 546.886719 185.839844 L 546.460938 184.769531 L 546.027344 183.703125 L 545.585938 182.640625 L 545.136719 181.582031 L 544.679688 180.523438 L 544.21875 179.472656 L 543.746094 178.421875 L 543.269531 177.375 L 542.78125 176.335938 L 542.289063 175.296875 L 541.785156 174.261719 L 541.277344 173.234375 L 540.757813 172.207031 L 540.230469 171.183594 L 539.699219 170.167969 L 539.15625 169.15625 L 538.605469 168.148438 L 538.046875 167.144531 L 537.476563 166.148438 L 536.902344 165.15625 L 536.320313 164.167969 L 535.726563 163.183594 L 535.128906 162.207031 L 534.523438 161.234375 L 533.90625 160.265625 L 533.285156 159.304688 L 532.65625 158.347656 L 532.015625 157.398438 L 531.371094 156.453125 L 530.714844 155.511719 L 530.054688 154.578125 L 529.382813 153.652344 L 528.707031 152.730469 L 528.019531 151.816406 L 527.328125 150.90625 L 526.625 150.003906 L 525.917969 149.109375 L 525.203125 148.21875 L 524.480469 147.335938 L 523.75 146.460938 L 523.015625 145.589844 L 522.269531 144.722656 L 521.519531 143.867188 L 520.765625 143.015625 L 520.003906 142.171875 L 519.234375 141.332031 L 518.460938 140.5 L 517.679688 139.675781 L 516.890625 138.855469 L 516.101563 138.042969 L 515.300781 137.234375 L 514.496094 136.4375 L 513.683594 135.644531 L 512.867188 134.863281 L 512.042969 134.085938 L 511.210938 133.316406 L 510.375 132.554688 L 509.527344 131.804688 L 508.675781 131.058594 L 507.820313 130.324219 L 506.953125 129.597656 L 506.082031 128.878906 L 505.203125 128.171875 L 504.3125 127.472656 L 503.421875 126.785156 L 502.519531 126.105469 L 501.613281 125.433594 L 500.699219 124.773438 L 499.78125 124.121094 L 498.855469 123.480469 L 497.925781 122.847656 L 496.992188 122.222656 L 496.050781 121.605469 L 495.105469 121 L 494.15625 120.398438 L 493.203125 119.8125 L 492.242188 119.230469 L 491.28125 118.65625 L 490.3125 118.09375 L 489.34375 117.539063 L 488.371094 116.992188 L 487.390625 116.453125 L 486.410156 115.925781 L 485.425781 115.402344 L 484.4375 114.894531 L 483.445313 114.390625 L 482.449219 113.898438 L 481.449219 113.414063 L 480.445313 112.941406 L 479.4375 112.476563 L 478.425781 112.023438 L 477.410156 111.578125 L 476.394531 111.144531 L 475.371094 110.71875 L 474.347656 110.304688 L 473.316406 109.902344 L 472.285156 109.507813 L 471.253906 109.125 L 470.214844 108.753906 L 469.171875 108.390625 L 468.128906 108.039063 L 467.085938 107.699219 L 466.035156 107.371094 L 464.984375 107.050781 L 463.929688 106.742188 L 462.875 106.445313 L 461.816406 106.15625 L 460.757813 105.878906 L 459.695313 105.617188 L 458.628906 105.363281 L 457.5625 105.121094 L 456.496094 104.886719 L 455.425781 104.667969 L 454.351563 104.460938 L 453.28125 104.261719 L 452.207031 104.078125 L 451.128906 103.902344 L 450.050781 103.742188 L 448.972656 103.59375 L 447.890625 103.457031 L 446.8125 103.332031 L 445.726563 103.222656 L 444.644531 103.121094 L 443.5625 103.035156 L 442.476563 102.960938 L 441.390625 102.902344 L 440.304688 102.851563 L 439.21875 102.816406 L 438.132813 102.796875 L 437.046875 102.785156 L 435.960938 102.789063 L 434.875 102.804688 L 433.789063 102.832031 L 432.703125 102.875 L 431.621094 102.929688 L 430.539063 102.996094 L 429.457031 103.074219 L 428.378906 103.167969 L 427.296875 103.269531 L 426.222656 103.386719 L 425.148438 103.515625 L 424.074219 103.652344 L 423.003906 103.804688 L 421.9375 103.964844 L 420.871094 104.140625 L 419.8125 104.324219 L 418.753906 104.519531 L 417.695313 104.726563 L 416.644531 104.941406 L 415.597656 105.164063 L 414.554688 105.398438 L 413.511719 105.644531 L 412.476563 105.894531 L 411.445313 106.15625 L 410.417969 106.425781 L 409.394531 106.703125 L 408.378906 106.988281 L 407.363281 107.28125 L 406.355469 107.578125 L 405.355469 107.882813 L 404.355469 108.195313 L 403.367188 108.511719 L 402.378906 108.832031 L 401.398438 109.160156 L 400.425781 109.488281 L 399.457031 109.820313 L 398.492188 110.15625 L 397.535156 110.492188 L 396.585938 110.832031 L 395.640625 111.167969 L 394.703125 111.507813 L 393.773438 111.847656 L 392.847656 112.1875 L 391.925781 112.523438 L 391.011719 112.855469 L 390.105469 113.1875 L 389.207031 113.519531 L 388.308594 113.84375 L 387.421875 114.167969 L 386.535156 114.488281 L 385.660156 114.804688 L 384.785156 115.117188 L 383.917969 115.429688 L 383.054688 115.734375 L 382.199219 116.035156 L 381.347656 116.335938 L 380.5 116.632813 L 379.65625 116.921875 L 378.816406 117.210938 L 377.984375 117.496094 L 377.152344 117.777344 L 376.328125 118.054688 L 374.6875 118.59375 L 373.0625 119.117188 L 371.453125 119.617188 L 370.652344 119.859375 L 369.855469 120.09375 L 369.058594 120.320313 L 368.265625 120.542969 L 367.476563 120.757813 L 366.6875 120.96875 L 365.902344 121.167969 L 365.117188 121.363281 L 364.335938 121.546875 L 363.554688 121.726563 L 362.773438 121.898438 L 361.996094 122.0625 L 361.21875 122.21875 L 360.441406 122.367188 L 359.664063 122.511719 L 358.109375 122.777344 L 357.332031 122.898438 L 356.558594 123.015625 L 355.78125 123.128906 L 355.003906 123.234375 L 354.222656 123.332031 L 353.445313 123.429688 L 351.882813 123.601563 L 351.101563 123.679688 L 350.320313 123.75 L 349.535156 123.816406 L 348.746094 123.878906 L 347.957031 123.9375 L 347.167969 123.988281 L 346.375 124.035156 L 345.582031 124.074219 L 344.78125 124.109375 L 343.980469 124.140625 L 343.179688 124.164063 L 342.371094 124.183594 L 341.5625 124.199219 L 340.75 124.210938 L 339.933594 124.214844 L 339.113281 124.214844 L 338.292969 124.210938 L 337.464844 124.203125 L 336.632813 124.1875 L 335.796875 124.167969 L 334.957031 124.144531 L 334.113281 124.117188 L 333.261719 124.082031 L 332.40625 124.042969 L 331.546875 124 L 330.679688 123.949219 L 329.808594 123.894531 L 328.933594 123.832031 L 328.050781 123.769531 L 327.160156 123.695313 L 326.261719 123.621094 L 325.359375 123.539063 L 324.449219 123.449219 L 323.535156 123.359375 L 322.609375 123.261719 L 321.679688 123.160156 L 320.742188 123.058594 L 319.796875 122.949219 L 318.84375 122.84375 L 317.886719 122.730469 L 316.921875 122.621094 L 315.949219 122.507813 L 314.96875 122.394531 L 313.984375 122.28125 L 312.996094 122.171875 L 311.996094 122.0625 L 310.992188 121.953125 L 309.984375 121.851563 L 308.96875 121.75 L 307.949219 121.648438 L 306.925781 121.554688 L 305.894531 121.46875 L 304.859375 121.382813 L 303.816406 121.304688 L 302.773438 121.230469 L 301.722656 121.164063 L 300.671875 121.105469 L 299.613281 121.050781 L 298.550781 121.007813 L 297.488281 120.96875 L 296.421875 120.941406 L 295.351563 120.921875 L 294.28125 120.910156 L 293.207031 120.910156 L 292.132813 120.921875 L 291.054688 120.941406 L 289.976563 120.972656 L 288.898438 121.015625 L 287.820313 121.070313 L 286.738281 121.136719 L 285.660156 121.21875 L 284.582031 121.308594 L 283.507813 121.414063 L 282.429688 121.53125 L 281.355469 121.660156 L 280.28125 121.804688 L 279.210938 121.964844 L 278.144531 122.132813 L 277.078125 122.320313 L 276.015625 122.519531 L 274.957031 122.730469 L 273.898438 122.957031 L 272.847656 123.195313 L 271.796875 123.453125 L 270.753906 123.71875 L 269.714844 124 L 268.679688 124.296875 L 267.648438 124.609375 L 266.621094 124.929688 L 265.597656 125.269531 L 264.582031 125.621094 L 263.570313 125.984375 L 262.566406 126.363281 L 261.566406 126.753906 L 260.574219 127.160156 L 259.585938 127.574219 L 258.601563 128.007813 L 257.625 128.449219 L 256.65625 128.90625 L 255.691406 129.375 L 254.734375 129.851563 L 253.777344 130.34375 L 252.832031 130.84375 L 251.890625 131.359375 L 250.953125 131.882813 L 250.019531 132.414063 L 249.09375 132.957031 L 248.171875 133.511719 L 247.257813 134.074219 L 246.34375 134.644531 L 245.4375 135.226563 L 244.535156 135.8125 L 243.632813 136.410156 L 242.738281 137.015625 L 241.851563 137.628906 L 240.964844 138.25 L 240.082031 138.878906 L 239.203125 139.515625 L 238.332031 140.164063 L 237.464844 140.816406 L 236.601563 141.476563 L 235.742188 142.148438 L 234.890625 142.824219 L 234.042969 143.507813 L 233.199219 144.203125 L 232.359375 144.902344 L 231.527344 145.609375 L 230.699219 146.324219 L 229.875 147.046875 L 229.054688 147.773438 L 228.242188 148.511719 L 227.433594 149.257813 L 226.632813 150.007813 L 225.835938 150.765625 L 225.046875 151.53125 L 224.261719 152.304688 L 223.484375 153.085938 L 222.710938 153.875 L 221.945313 154.667969 L 221.183594 155.472656 L 220.429688 156.28125 L 219.683594 157.097656 L 218.945313 157.921875 L 218.210938 158.75 L 217.488281 159.589844 L 216.769531 160.433594 L 216.058594 161.289063 L 215.355469 162.144531 L 214.660156 163.011719 L 213.96875 163.882813 L 213.285156 164.761719 L 212.609375 165.644531 L 211.941406 166.535156 L 211.277344 167.433594 L 210.621094 168.332031 L 209.96875 169.242188 L 209.324219 170.152344 L 208.6875 171.070313 L 208.054688 171.992188 L 207.425781 172.917969 L 206.800781 173.851563 L 206.183594 174.789063 L 205.574219 175.730469 L 204.964844 176.675781 L 204.367188 177.628906 L 203.773438 178.585938 L 203.183594 179.546875 L 202.601563 180.511719 L 202.027344 181.484375 L 201.460938 182.460938 L 200.898438 183.441406 L 200.347656 184.425781 L 199.800781 185.417969 L 199.257813 186.414063 L 198.726563 187.414063 L 198.203125 188.417969 L 197.683594 189.425781 L 197.171875 190.441406 L 196.667969 191.457031 L 196.171875 192.480469 L 195.683594 193.507813 L 195.199219 194.539063 L 194.722656 195.570313 L 194.25 196.609375 L 193.785156 197.652344 L 192.871094 199.746094 L 192.425781 200.796875 L 191.980469 201.855469 L 191.542969 202.914063 L 191.113281 203.976563 L 190.6875 205.042969 L 190.265625 206.109375 L 189.847656 207.183594 L 189.4375 208.257813 L 189.03125 209.335938 L 188.628906 210.417969 L 188.230469 211.5 L 187.835938 212.589844 L 187.449219 213.679688 L 187.0625 214.773438 L 186.679688 215.867188 L 186.300781 216.964844 L 185.925781 218.066406 L 185.183594 220.277344 L 184.816406 221.386719 L 184.453125 222.5 L 184.089844 223.617188 L 183.730469 224.734375 L 183.375 225.855469 L 183.023438 226.980469 L 182.675781 228.105469 L 182.332031 229.234375 L 181.992188 230.371094 L 181.660156 231.507813 L 181.332031 232.648438 L 181.011719 233.789063 L 180.699219 234.9375 L 180.390625 236.085938 L 180.09375 237.238281 L 179.804688 238.394531 L 179.523438 239.554688 L 179.25 240.71875 L 178.988281 241.882813 L 178.738281 243.050781 L 178.496094 244.222656 L 178.261719 245.398438 L 178.039063 246.574219 L 177.828125 247.753906 L 177.625 248.9375 L 177.433594 250.121094 "/>
</g>
</g>
</svg>
