<?xml version="1.0" encoding="UTF-8"?>
<svg xmlns="http://www.w3.org/2000/svg" xmlns:xlink="http://www.w3.org/1999/xlink" width="702pt" height="518pt" viewBox="0 0 702 518" version="1.1">
<defs>
<clipPath id="clip1">
  <path d="M 59.039063 59.039063 L 672.757813 59.039063 L 672.757813 445.558594 L 59.039063 445.558594 Z M 59.039063 59.039063 "/>
</clipPath>
</defs>
<g id="surface36">
<rect x="0" y="0" width="702" height="518" style="fill:rgb(100%,100%,100%);fill-opacity:1;stroke:none;"/>
<g clip-path="url(#clip1)" clip-rule="nonzero">
<path style="fill:none;stroke-width:3;stroke-linecap:round;stroke-linejoin:round;stroke:rgb(0%,0%,0%);stroke-opacity:1;stroke-miterlimit:10;" d="M 170.394531 254.578125 L 170.089844 255.828125 L 169.792969 257.082031 L 169.507813 258.34375 L 169.230469 259.605469 L 168.96875 260.871094 L 168.722656 262.140625 L 168.488281 263.414063 L 168.269531 264.6875 L 168.066406 265.964844 L 167.878906 267.246094 L 167.707031 268.527344 L 167.554688 269.8125 L 167.414063 271.097656 L 167.292969 272.382813 L 167.191406 273.671875 L 167.105469 274.960938 L 167.039063 276.25 L 166.992188 277.542969 L 166.960938 278.832031 L 166.949219 280.121094 L 166.957031 281.414063 L 166.980469 282.703125 L 167.023438 283.992188 L 167.085938 285.28125 L 167.171875 286.566406 L 167.277344 287.847656 L 167.414063 289.128906 L 167.582031 290.40625 L 167.78125 291.675781 L 168.019531 292.9375 L 168.292969 294.195313 L 168.605469 295.441406 L 168.960938 296.679688 L 169.363281 297.90625 L 169.8125 299.121094 L 170.308594 300.324219 L 170.855469 301.507813 L 171.457031 302.679688 L 172.109375 303.832031 L 172.816406 304.96875 L 173.578125 306.085938 L 174.390625 307.179688 L 175.253906 308.257813 L 176.164063 309.3125 L 177.117188 310.347656 L 178.113281 311.363281 L 179.152344 312.355469 L 180.226563 313.328125 L 181.335938 314.28125 L 182.476563 315.214844 L 183.652344 316.125 L 184.859375 317.011719 L 186.09375 317.882813 L 187.355469 318.730469 L 188.640625 319.558594 L 189.945313 320.367188 L 191.269531 321.152344 L 192.609375 321.925781 L 193.960938 322.675781 L 195.324219 323.410156 L 196.695313 324.128906 L 198.074219 324.832031 L 199.460938 325.515625 L 200.84375 326.1875 L 202.230469 326.847656 L 203.613281 327.492188 L 204.988281 328.128906 L 206.355469 328.757813 L 207.707031 329.375 L 209.046875 329.988281 L 210.367188 330.597656 L 211.667969 331.199219 L 212.953125 331.800781 L 214.214844 332.402344 L 215.460938 332.996094 L 216.6875 333.59375 L 217.894531 334.183594 L 219.082031 334.777344 L 220.25 335.367188 L 221.402344 335.957031 L 222.535156 336.546875 L 223.652344 337.136719 L 224.753906 337.726563 L 225.835938 338.316406 L 226.902344 338.90625 L 227.957031 339.492188 L 229 340.082031 L 230.027344 340.667969 L 231.042969 341.253906 L 232.042969 341.839844 L 233.035156 342.425781 L 234.011719 343.011719 L 234.980469 343.601563 L 235.933594 344.1875 L 236.875 344.777344 L 237.800781 345.367188 L 238.71875 345.960938 L 239.628906 346.554688 L 240.523438 347.148438 L 241.414063 347.742188 L 242.292969 348.335938 L 243.164063 348.929688 L 244.027344 349.527344 L 244.886719 350.121094 L 245.738281 350.714844 L 247.425781 351.902344 L 249.097656 353.082031 L 249.929688 353.667969 L 250.761719 354.25 L 251.589844 354.832031 L 252.421875 355.40625 L 254.078125 356.546875 L 255.742188 357.664063 L 256.574219 358.214844 L 257.410156 358.757813 L 258.246094 359.296875 L 259.085938 359.832031 L 259.929688 360.355469 L 260.773438 360.875 L 261.621094 361.390625 L 262.472656 361.894531 L 263.324219 362.394531 L 264.175781 362.886719 L 265.035156 363.371094 L 265.894531 363.851563 L 266.753906 364.324219 L 267.617188 364.789063 L 268.484375 365.246094 L 269.351563 365.695313 L 270.222656 366.140625 L 271.09375 366.578125 L 271.96875 367.007813 L 272.84375 367.429688 L 273.71875 367.847656 L 274.597656 368.257813 L 275.480469 368.660156 L 276.359375 369.054688 L 277.242188 369.445313 L 278.128906 369.828125 L 279.015625 370.203125 L 279.902344 370.570313 L 280.789063 370.933594 L 281.679688 371.289063 L 282.570313 371.636719 L 283.460938 371.980469 L 284.351563 372.316406 L 285.242188 372.648438 L 286.132813 372.972656 L 287.027344 373.292969 L 287.917969 373.605469 L 288.808594 373.914063 L 289.703125 374.214844 L 290.59375 374.511719 L 291.488281 374.800781 L 292.378906 375.085938 L 293.273438 375.363281 L 294.164063 375.636719 L 295.058594 375.90625 L 295.949219 376.167969 L 296.839844 376.421875 L 297.734375 376.671875 L 298.625 376.917969 L 299.515625 377.15625 L 300.40625 377.390625 L 301.296875 377.617188 L 302.1875 377.839844 L 303.078125 378.058594 L 303.964844 378.269531 L 304.855469 378.476563 L 305.742188 378.683594 L 306.625 378.882813 L 307.511719 379.078125 L 308.394531 379.269531 L 309.273438 379.457031 L 310.15625 379.640625 L 311.035156 379.824219 L 311.910156 380.003906 L 312.785156 380.179688 L 313.65625 380.351563 L 314.53125 380.523438 L 316.265625 380.859375 L 317.132813 381.023438 L 317.996094 381.1875 L 318.855469 381.351563 L 319.71875 381.511719 L 320.574219 381.667969 L 321.429688 381.828125 L 322.285156 381.984375 L 323.136719 382.140625 L 323.988281 382.292969 L 324.835938 382.449219 L 325.683594 382.601563 L 328.214844 383.058594 L 329.054688 383.210938 L 331.5625 383.667969 L 333.226563 383.972656 L 334.058594 384.128906 L 334.886719 384.28125 L 335.714844 384.4375 L 336.539063 384.59375 L 337.367188 384.753906 L 338.191406 384.910156 L 339.832031 385.230469 L 340.65625 385.394531 L 341.472656 385.558594 L 342.292969 385.722656 L 343.113281 385.890625 L 344.746094 386.226563 L 345.566406 386.394531 L 348.832031 387.082031 L 349.648438 387.257813 L 350.464844 387.429688 L 351.285156 387.601563 L 352.101563 387.777344 L 352.921875 387.953125 L 353.738281 388.128906 L 354.558594 388.300781 L 355.378906 388.476563 L 356.203125 388.652344 L 357.023438 388.828125 L 357.847656 389 L 360.320313 389.527344 L 361.148438 389.703125 L 361.976563 389.882813 L 362.804688 390.058594 L 364.46875 390.410156 L 365.300781 390.589844 L 366.136719 390.765625 L 366.976563 390.941406 L 367.8125 391.121094 L 368.652344 391.296875 L 369.496094 391.472656 L 371.183594 391.832031 L 372.035156 392.011719 L 372.882813 392.191406 L 373.734375 392.371094 L 375.445313 392.738281 L 376.304688 392.921875 L 378.03125 393.296875 L 379.765625 393.679688 L 380.640625 393.871094 L 381.515625 394.066406 L 382.394531 394.265625 L 384.160156 394.664063 L 385.941406 395.0625 L 386.835938 395.265625 L 387.734375 395.464844 L 388.636719 395.664063 L 389.542969 395.859375 L 390.449219 396.058594 L 391.363281 396.253906 L 392.28125 396.445313 L 393.199219 396.640625 L 394.121094 396.828125 L 395.050781 397.015625 L 395.980469 397.199219 L 396.914063 397.382813 L 397.851563 397.558594 L 398.792969 397.734375 L 399.738281 397.90625 L 400.683594 398.070313 L 401.636719 398.234375 L 402.589844 398.394531 L 403.546875 398.546875 L 404.511719 398.695313 L 405.476563 398.839844 L 406.441406 398.980469 L 407.414063 399.113281 L 408.386719 399.238281 L 409.363281 399.355469 L 410.339844 399.46875 L 411.324219 399.574219 L 412.304688 399.671875 L 413.292969 399.761719 L 414.28125 399.847656 L 415.273438 399.925781 L 416.269531 400 L 417.265625 400.070313 L 418.269531 400.132813 L 419.273438 400.191406 L 420.28125 400.25 L 421.289063 400.300781 L 422.304688 400.351563 L 423.324219 400.398438 L 424.347656 400.445313 L 425.375 400.488281 L 426.40625 400.53125 L 427.441406 400.574219 L 429.527344 400.652344 L 430.578125 400.6875 L 431.628906 400.71875 L 432.6875 400.746094 L 433.75 400.765625 L 434.8125 400.78125 L 435.878906 400.789063 L 436.945313 400.789063 L 438.015625 400.78125 L 439.089844 400.765625 L 440.164063 400.742188 L 441.238281 400.707031 L 442.316406 400.664063 L 443.390625 400.605469 L 444.46875 400.539063 L 445.546875 400.460938 L 446.621094 400.371094 L 447.699219 400.269531 L 448.777344 400.160156 L 449.851563 400.035156 L 450.929688 399.90625 L 452.003906 399.761719 L 453.082031 399.609375 L 454.160156 399.449219 L 455.234375 399.277344 L 456.3125 399.097656 L 457.390625 398.90625 L 458.464844 398.707031 L 459.539063 398.5 L 460.617188 398.28125 L 461.691406 398.054688 L 462.765625 397.820313 L 463.839844 397.574219 L 464.914063 397.320313 L 465.988281 397.054688 L 467.0625 396.78125 L 468.132813 396.5 L 469.203125 396.207031 L 470.273438 395.90625 L 471.339844 395.59375 L 472.40625 395.273438 L 473.46875 394.941406 L 474.535156 394.601563 L 475.59375 394.253906 L 476.65625 393.894531 L 477.714844 393.527344 L 478.769531 393.152344 L 479.824219 392.765625 L 480.878906 392.371094 L 481.933594 391.96875 L 482.984375 391.558594 L 484.03125 391.140625 L 485.078125 390.714844 L 486.125 390.277344 L 487.171875 389.832031 L 488.214844 389.382813 L 489.253906 388.921875 L 490.296875 388.457031 L 491.335938 387.980469 L 492.371094 387.496094 L 493.410156 387.007813 L 494.441406 386.507813 L 495.476563 386.003906 L 496.507813 385.488281 L 497.535156 384.96875 L 498.5625 384.4375 L 499.585938 383.902344 L 500.609375 383.359375 L 501.632813 382.804688 L 502.648438 382.242188 L 503.664063 381.675781 L 504.679688 381.097656 L 505.6875 380.511719 L 506.695313 379.917969 L 507.699219 379.316406 L 508.703125 378.707031 L 509.699219 378.089844 L 510.695313 377.460938 L 511.683594 376.824219 L 512.671875 376.179688 L 513.652344 375.527344 L 514.632813 374.867188 L 515.605469 374.195313 L 516.574219 373.515625 L 517.535156 372.828125 L 518.496094 372.132813 L 519.449219 371.425781 L 520.398438 370.710938 L 521.339844 369.984375 L 522.273438 369.25 L 523.203125 368.507813 L 524.125 367.753906 L 525.042969 366.992188 L 525.949219 366.21875 L 526.847656 365.4375 L 527.742188 364.644531 L 528.625 363.84375 L 529.503906 363.03125 L 530.371094 362.210938 L 531.230469 361.382813 L 532.082031 360.542969 L 532.925781 359.695313 L 533.757813 358.839844 L 534.585938 357.972656 L 535.402344 357.097656 L 536.210938 356.214844 L 537.011719 355.324219 L 537.800781 354.421875 L 538.582031 353.515625 L 539.355469 352.597656 L 540.121094 351.675781 L 540.875 350.742188 L 541.621094 349.800781 L 542.355469 348.851563 L 543.082031 347.894531 L 543.792969 346.929688 L 544.496094 345.953125 L 545.1875 344.972656 L 545.863281 343.980469 L 546.53125 342.980469 L 547.183594 341.972656 L 547.820313 340.957031 L 548.449219 339.933594 L 549.058594 338.898438 L 549.65625 337.859375 L 550.238281 336.808594 L 550.808594 335.753906 L 551.363281 334.6875 L 551.902344 333.617188 L 552.425781 332.535156 L 552.9375 331.453125 L 553.433594 330.359375 L 553.917969 329.261719 L 554.390625 328.15625 L 554.847656 327.050781 L 555.292969 325.9375 L 555.726563 324.816406 L 556.148438 323.695313 L 556.558594 322.566406 L 556.960938 321.433594 L 557.347656 320.300781 L 557.726563 319.164063 L 558.09375 318.019531 L 558.453125 316.875 L 558.800781 315.730469 L 559.140625 314.578125 L 559.46875 313.425781 L 559.789063 312.269531 L 560.097656 311.113281 L 560.398438 309.953125 L 560.691406 308.789063 L 560.972656 307.625 L 561.246094 306.460938 L 561.511719 305.292969 L 561.765625 304.125 L 562.015625 302.953125 L 562.257813 301.78125 L 562.488281 300.609375 L 562.714844 299.433594 L 562.933594 298.261719 L 563.144531 297.085938 L 563.347656 295.910156 L 563.546875 294.730469 L 563.742188 293.554688 L 564.109375 291.195313 L 564.285156 290.015625 L 564.453125 288.839844 L 564.621094 287.660156 L 564.78125 286.476563 L 565.085938 284.117188 L 565.226563 282.9375 L 565.367188 281.753906 L 565.5 280.574219 L 565.628906 279.390625 L 565.75 278.210938 L 565.871094 277.027344 L 566.097656 274.660156 L 566.203125 273.480469 L 566.308594 272.296875 L 566.503906 269.929688 L 566.597656 268.746094 L 566.867188 265.195313 L 566.953125 264.011719 L 567.039063 262.824219 L 567.121094 261.640625 L 567.203125 260.453125 L 567.28125 259.269531 L 567.355469 258.082031 L 567.425781 256.894531 L 567.488281 255.707031 L 567.546875 254.519531 L 567.59375 253.328125 L 567.636719 252.140625 L 567.667969 250.949219 L 567.6875 249.757813 L 567.695313 248.566406 L 567.691406 247.375 L 567.675781 246.1875 L 567.644531 244.996094 L 567.597656 243.804688 L 567.539063 242.617188 L 567.460938 241.425781 L 567.367188 240.238281 L 567.261719 239.054688 L 567.144531 237.867188 L 567.011719 236.683594 L 566.867188 235.503906 L 566.710938 234.324219 L 566.546875 233.144531 L 566.367188 231.964844 L 566.183594 230.789063 L 565.988281 229.617188 L 565.785156 228.445313 L 565.574219 227.273438 L 565.355469 226.105469 L 565.128906 224.9375 L 564.894531 223.773438 L 564.65625 222.609375 L 564.410156 221.449219 L 564.160156 220.289063 L 563.898438 219.128906 L 563.632813 217.972656 L 563.359375 216.820313 L 563.078125 215.667969 L 562.789063 214.515625 L 562.488281 213.371094 L 562.183594 212.222656 L 561.871094 211.082031 L 561.550781 209.941406 L 561.222656 208.804688 L 560.886719 207.667969 L 560.542969 206.535156 L 560.195313 205.40625 L 559.839844 204.277344 L 559.472656 203.152344 L 559.101563 202.03125 L 558.722656 200.910156 L 558.339844 199.796875 L 557.945313 198.679688 L 557.546875 197.570313 L 557.144531 196.460938 L 556.730469 195.355469 L 556.3125 194.253906 L 555.886719 193.15625 L 555.453125 192.058594 L 555.011719 190.964844 L 554.5625 189.875 L 554.109375 188.789063 L 553.644531 187.707031 L 553.171875 186.628906 L 552.695313 185.554688 L 552.207031 184.484375 L 551.714844 183.417969 L 551.210938 182.355469 L 550.703125 181.292969 L 550.191406 180.238281 L 549.667969 179.1875 L 549.140625 178.140625 L 548.605469 177.09375 L 548.0625 176.054688 L 547.515625 175.019531 L 546.960938 173.988281 L 546.398438 172.957031 L 545.835938 171.933594 L 545.261719 170.910156 L 544.683594 169.894531 L 544.101563 168.878906 L 543.511719 167.871094 L 542.914063 166.867188 L 542.308594 165.867188 L 541.695313 164.875 L 541.074219 163.886719 L 540.445313 162.902344 L 539.804688 161.925781 L 539.160156 160.953125 L 538.5 159.988281 L 537.835938 159.03125 L 537.160156 158.082031 L 536.472656 157.140625 L 535.777344 156.203125 L 535.070313 155.277344 L 534.351563 154.359375 L 533.625 153.449219 L 532.890625 152.546875 L 532.144531 151.652344 L 531.390625 150.765625 L 530.625 149.886719 L 529.855469 149.011719 L 529.078125 148.148438 L 528.289063 147.292969 L 527.496094 146.441406 L 526.695313 145.601563 L 525.890625 144.765625 L 525.078125 143.9375 L 524.257813 143.117188 L 523.433594 142.304688 L 522.605469 141.496094 L 521.769531 140.695313 L 520.929688 139.902344 L 520.085938 139.117188 L 519.234375 138.335938 L 518.378906 137.566406 L 517.515625 136.800781 L 516.648438 136.042969 L 515.773438 135.296875 L 514.894531 134.554688 L 514.007813 133.820313 L 513.117188 133.097656 L 512.222656 132.378906 L 511.320313 131.671875 L 510.410156 130.972656 L 509.5 130.28125 L 508.582031 129.597656 L 507.660156 128.921875 L 506.730469 128.253906 L 505.796875 127.59375 L 504.859375 126.945313 L 503.917969 126.300781 L 502.972656 125.667969 L 502.027344 125.039063 L 501.074219 124.417969 L 500.117188 123.804688 L 499.15625 123.203125 L 498.195313 122.605469 L 497.230469 122.015625 L 496.261719 121.433594 L 495.289063 120.859375 L 494.3125 120.292969 L 493.335938 119.734375 L 492.355469 119.179688 L 491.371094 118.636719 L 490.382813 118.101563 L 489.394531 117.570313 L 488.402344 117.050781 L 487.410156 116.535156 L 486.414063 116.027344 L 485.417969 115.527344 L 484.417969 115.035156 L 483.414063 114.550781 L 482.414063 114.074219 L 481.40625 113.601563 L 480.398438 113.136719 L 479.390625 112.679688 L 478.382813 112.230469 L 477.371094 111.785156 L 476.359375 111.347656 L 475.34375 110.917969 L 474.328125 110.5 L 473.308594 110.085938 L 472.289063 109.683594 L 471.261719 109.289063 L 470.238281 108.90625 L 469.207031 108.53125 L 468.171875 108.167969 L 467.136719 107.8125 L 466.097656 107.472656 L 465.054688 107.144531 L 464.007813 106.828125 L 462.957031 106.523438 L 461.902344 106.230469 L 460.84375 105.953125 L 459.78125 105.6875 L 458.714844 105.4375 L 457.648438 105.203125 L 456.574219 104.980469 L 455.5 104.773438 L 454.421875 104.578125 L 453.339844 104.398438 L 452.257813 104.230469 L 451.171875 104.078125 L 450.085938 103.9375 L 448.996094 103.8125 L 447.902344 103.703125 L 446.8125 103.605469 L 445.714844 103.523438 L 444.621094 103.457031 L 443.523438 103.402344 L 442.425781 103.359375 L 441.328125 103.332031 L 440.230469 103.320313 L 439.132813 103.320313 L 438.03125 103.332031 L 436.933594 103.359375 L 435.839844 103.398438 L 434.742188 103.453125 L 433.644531 103.515625 L 432.550781 103.59375 L 431.460938 103.683594 L 430.371094 103.785156 L 429.28125 103.898438 L 428.195313 104.019531 L 427.109375 104.15625 L 426.03125 104.300781 L 424.949219 104.457031 L 423.875 104.621094 L 422.804688 104.796875 L 421.734375 104.980469 L 420.671875 105.171875 L 419.609375 105.375 L 418.554688 105.582031 L 417.5 105.800781 L 416.453125 106.027344 L 415.410156 106.257813 L 414.367188 106.5 L 413.335938 106.746094 L 412.304688 106.996094 L 411.28125 107.253906 L 410.261719 107.515625 L 409.246094 107.78125 L 408.234375 108.054688 L 407.230469 108.328125 L 406.234375 108.609375 L 405.238281 108.894531 L 404.25 109.183594 L 403.269531 109.476563 L 402.289063 109.773438 L 401.316406 110.078125 L 400.351563 110.382813 L 399.386719 110.691406 L 398.429688 111.003906 L 397.480469 111.320313 L 396.53125 111.640625 L 395.59375 111.964844 L 394.65625 112.292969 L 393.726563 112.625 L 392.800781 112.957031 L 391.878906 113.292969 L 390.964844 113.632813 L 390.054688 113.96875 L 389.152344 114.308594 L 388.253906 114.648438 L 387.359375 114.984375 L 386.472656 115.324219 L 385.589844 115.65625 L 384.714844 115.988281 L 383.84375 116.316406 L 382.976563 116.644531 L 382.113281 116.964844 L 381.257813 117.28125 L 380.402344 117.589844 L 379.554688 117.894531 L 378.710938 118.195313 L 377.875 118.488281 L 377.039063 118.773438 L 376.207031 119.054688 L 375.378906 119.328125 L 374.554688 119.597656 L 373.734375 119.859375 L 372.917969 120.113281 L 372.101563 120.363281 L 371.292969 120.605469 L 370.484375 120.839844 L 369.675781 121.070313 L 368.871094 121.292969 L 368.070313 121.507813 L 367.269531 121.714844 L 366.472656 121.917969 L 365.675781 122.113281 L 364.878906 122.300781 L 364.082031 122.484375 L 363.289063 122.65625 L 362.496094 122.820313 L 361.703125 122.980469 L 360.910156 123.128906 L 360.121094 123.269531 L 359.328125 123.402344 L 358.535156 123.527344 L 357.742188 123.644531 L 356.945313 123.753906 L 356.152344 123.851563 L 355.355469 123.945313 L 354.554688 124.027344 L 353.753906 124.101563 L 352.953125 124.167969 L 352.148438 124.226563 L 351.34375 124.277344 L 350.535156 124.320313 L 349.722656 124.359375 L 348.910156 124.386719 L 348.089844 124.410156 L 347.273438 124.425781 L 346.449219 124.4375 L 345.621094 124.441406 L 344.792969 124.441406 L 343.960938 124.433594 L 343.121094 124.421875 L 342.28125 124.40625 L 341.4375 124.386719 L 340.589844 124.359375 L 339.734375 124.332031 L 338.878906 124.296875 L 338.015625 124.261719 L 337.152344 124.21875 L 336.28125 124.175781 L 335.40625 124.128906 L 334.527344 124.078125 L 333.644531 124.023438 L 332.753906 123.964844 L 331.859375 123.90625 L 330.960938 123.84375 L 330.054688 123.78125 L 328.234375 123.65625 L 327.3125 123.589844 L 326.390625 123.527344 L 325.460938 123.460938 L 324.53125 123.398438 L 322.648438 123.273438 L 321.699219 123.210938 L 320.746094 123.148438 L 319.785156 123.085938 L 318.824219 123.027344 L 317.855469 122.96875 L 316.878906 122.910156 L 315.898438 122.851563 L 314.910156 122.792969 L 313.917969 122.734375 L 312.921875 122.679688 L 311.914063 122.621094 L 310.902344 122.5625 L 309.886719 122.507813 L 308.863281 122.457031 L 307.835938 122.410156 L 306.804688 122.371094 L 305.769531 122.335938 L 304.734375 122.308594 L 303.695313 122.292969 L 302.65625 122.289063 L 301.613281 122.292969 L 300.574219 122.3125 L 299.535156 122.34375 L 298.496094 122.394531 L 297.460938 122.457031 L 296.429688 122.539063 L 295.402344 122.636719 L 294.378906 122.753906 L 293.359375 122.890625 L 292.347656 123.042969 L 291.339844 123.210938 L 290.335938 123.394531 L 289.332031 123.59375 L 288.335938 123.804688 L 287.339844 124.03125 L 286.347656 124.265625 L 285.359375 124.515625 L 284.371094 124.769531 L 283.382813 125.039063 L 282.398438 125.316406 L 281.414063 125.601563 L 280.429688 125.894531 L 279.445313 126.195313 L 278.460938 126.5 L 276.492188 127.132813 L 275.503906 127.460938 L 274.519531 127.789063 L 273.53125 128.125 L 272.539063 128.46875 L 271.550781 128.816406 L 270.558594 129.171875 L 269.566406 129.53125 L 268.574219 129.894531 L 267.578125 130.261719 L 266.582031 130.636719 L 265.578125 131.015625 L 264.578125 131.394531 L 263.570313 131.78125 L 262.558594 132.167969 L 261.546875 132.5625 L 260.53125 132.957031 L 258.492188 133.761719 L 257.46875 134.171875 L 256.441406 134.585938 L 255.414063 135.007813 L 254.382813 135.433594 L 253.351563 135.863281 L 252.320313 136.300781 L 251.285156 136.746094 L 250.25 137.199219 L 249.214844 137.65625 L 248.183594 138.125 L 247.152344 138.597656 L 246.121094 139.082031 L 245.089844 139.578125 L 244.0625 140.078125 L 243.039063 140.589844 L 242.019531 141.109375 L 241 141.640625 L 239.984375 142.183594 L 238.972656 142.730469 L 237.964844 143.292969 L 236.960938 143.863281 L 235.960938 144.441406 L 234.96875 145.035156 L 233.980469 145.636719 L 232.996094 146.246094 L 232.019531 146.871094 L 231.046875 147.503906 L 230.082031 148.148438 L 229.125 148.804688 L 228.175781 149.472656 L 227.234375 150.152344 L 226.304688 150.84375 L 225.378906 151.546875 L 224.464844 152.257813 L 223.558594 152.984375 L 222.664063 153.722656 L 221.777344 154.46875 L 220.90625 155.230469 L 220.042969 156.003906 L 219.1875 156.789063 L 218.347656 157.582031 L 217.519531 158.390625 L 216.699219 159.207031 L 215.894531 160.035156 L 215.101563 160.875 L 214.320313 161.722656 L 213.546875 162.585938 L 212.789063 163.453125 L 212.042969 164.332031 L 211.304688 165.222656 L 210.578125 166.121094 L 209.863281 167.027344 L 209.15625 167.941406 L 208.460938 168.863281 L 207.777344 169.792969 L 207.101563 170.730469 L 206.4375 171.675781 L 205.78125 172.628906 L 205.136719 173.585938 L 204.496094 174.550781 L 203.867188 175.523438 L 203.246094 176.5 L 202.628906 177.484375 L 202.023438 178.472656 L 201.425781 179.464844 L 200.832031 180.464844 L 200.242188 181.464844 L 199.664063 182.472656 L 199.085938 183.484375 L 198.515625 184.5 L 197.390625 186.546875 L 196.832031 187.570313 L 196.277344 188.601563 L 195.722656 189.636719 L 195.175781 190.671875 L 194.628906 191.710938 L 194.082031 192.753906 L 193.542969 193.800781 L 193.003906 194.851563 L 192.46875 195.902344 L 191.933594 196.960938 L 191.40625 198.019531 L 190.878906 199.082031 L 190.355469 200.148438 L 189.835938 201.222656 L 189.320313 202.296875 L 188.304688 204.453125 L 187.800781 205.539063 L 187.300781 206.628906 L 186.808594 207.722656 L 186.320313 208.820313 L 185.835938 209.921875 L 185.355469 211.027344 L 184.878906 212.136719 L 183.941406 214.363281 L 183.476563 215.484375 L 183.015625 216.609375 L 182.558594 217.734375 L 182.105469 218.867188 L 181.65625 220 L 181.210938 221.136719 L 180.769531 222.28125 L 180.332031 223.425781 L 179.894531 224.574219 L 179.035156 226.886719 L 178.613281 228.046875 L 178.191406 229.210938 L 177.777344 230.378906 L 177.363281 231.550781 L 176.957031 232.726563 L 176.550781 233.90625 L 175.753906 236.28125 L 175.363281 237.472656 L 174.976563 238.667969 L 174.59375 239.867188 L 174.214844 241.070313 L 173.839844 242.277344 L 173.46875 243.492188 L 173.105469 244.707031 L 172.746094 245.925781 L 172.390625 247.148438 L 172.039063 248.378906 L 171.699219 249.609375 L 171.363281 250.84375 L 171.03125 252.085938 L 170.710938 253.328125 "/>
</g>
</g>
</svg>
