<?xml version="1.0" encoding="UTF-8"?>
<svg xmlns="http://www.w3.org/2000/svg" xmlns:xlink="http://www.w3.org/1999/xlink" width="702pt" height="518pt" viewBox="0 0 702 518" version="1.1">
<defs>
<clipPath id="clip1">
  <path d="M 59.039063 59.039063 L 672.757813 59.039063 L 672.757813 445.558594 L 59.039063 445.558594 Z M 59.039063 59.039063 "/>
</clipPath>
</defs>
<g id="surface16">
<rect x="0" y="0" width="702" height="518" style="fill:rgb(100%,100%,100%);fill-opacity:1;stroke:none;"/>
<g clip-path="url(#clip1)" clip-rule="nonzero">
<path style="fill:none;stroke-width:3;stroke-linecap:round;stroke-linejoin:round;stroke:rgb(0%,0%,0%);stroke-opacity:1;stroke-miterlimit:10;" d="M 171.921875 253.601563 L 171.734375 254.832031 L 171.550781 256.066406 L 171.207031 258.542969 L 171.042969 259.78125 L 170.882813 261.027344 L 170.730469 262.273438 L 170.582031 263.519531 L 170.4375 264.769531 L 170.300781 266.023438 L 170.167969 267.277344 L 170.046875 268.535156 L 169.933594 269.792969 L 169.832031 271.054688 L 169.742188 272.316406 L 169.664063 273.582031 L 169.601563 274.847656 L 169.550781 276.113281 L 169.519531 277.378906 L 169.503906 278.644531 L 169.503906 279.910156 L 169.523438 281.175781 L 169.5625 282.4375 L 169.625 283.703125 L 169.710938 284.960938 L 169.820313 286.21875 L 169.953125 287.476563 L 170.113281 288.726563 L 170.304688 289.972656 L 170.523438 291.214844 L 170.777344 292.449219 L 171.0625 293.679688 L 171.378906 294.898438 L 171.730469 296.113281 L 172.117188 297.316406 L 172.539063 298.511719 L 172.996094 299.695313 L 173.488281 300.867188 L 174.015625 302.027344 L 174.585938 303.179688 L 175.191406 304.3125 L 175.835938 305.433594 L 176.523438 306.539063 L 177.253906 307.628906 L 178.023438 308.699219 L 178.835938 309.753906 L 179.691406 310.789063 L 180.585938 311.800781 L 181.527344 312.796875 L 182.511719 313.769531 L 183.542969 314.714844 L 184.617188 315.640625 L 185.738281 316.539063 L 186.90625 317.414063 L 188.117188 318.257813 L 189.375 319.078125 L 190.671875 319.871094 L 192.007813 320.636719 L 193.375 321.375 L 194.765625 322.09375 L 196.183594 322.789063 L 197.617188 323.460938 L 199.066406 324.109375 L 200.527344 324.742188 L 201.996094 325.359375 L 203.460938 325.960938 L 204.925781 326.546875 L 206.382813 327.121094 L 207.832031 327.6875 L 209.265625 328.242188 L 210.679688 328.796875 L 212.070313 329.34375 L 214.785156 330.429688 L 216.109375 330.972656 L 217.417969 331.507813 L 218.703125 332.042969 L 219.96875 332.578125 L 221.214844 333.109375 L 222.445313 333.636719 L 223.660156 334.160156 L 224.859375 334.683594 L 226.039063 335.207031 L 227.203125 335.726563 L 228.347656 336.246094 L 229.476563 336.765625 L 230.59375 337.285156 L 231.691406 337.804688 L 232.777344 338.320313 L 233.847656 338.835938 L 234.90625 339.351563 L 235.949219 339.867188 L 236.980469 340.382813 L 237.992188 340.902344 L 238.992188 341.417969 L 239.976563 341.941406 L 240.949219 342.464844 L 241.90625 342.988281 L 242.855469 343.511719 L 243.792969 344.035156 L 244.722656 344.558594 L 245.644531 345.078125 L 246.558594 345.597656 L 247.46875 346.117188 L 248.375 346.632813 L 249.269531 347.148438 L 250.164063 347.660156 L 251.046875 348.171875 L 251.925781 348.683594 L 252.796875 349.195313 L 253.664063 349.703125 L 254.523438 350.214844 L 255.375 350.722656 L 256.222656 351.234375 L 257.058594 351.746094 L 257.890625 352.257813 L 258.714844 352.773438 L 259.535156 353.289063 L 260.34375 353.8125 L 261.144531 354.332031 L 261.9375 354.859375 L 262.722656 355.386719 L 263.503906 355.917969 L 264.28125 356.449219 L 265.054688 356.980469 L 265.820313 357.515625 L 266.589844 358.046875 L 267.355469 358.574219 L 268.117188 359.105469 L 268.882813 359.632813 L 270.40625 360.679688 L 271.167969 361.195313 L 271.933594 361.710938 L 272.699219 362.222656 L 273.464844 362.730469 L 274.234375 363.230469 L 275.007813 363.730469 L 275.777344 364.222656 L 276.554688 364.710938 L 277.328125 365.195313 L 278.105469 365.675781 L 278.886719 366.152344 L 279.664063 366.625 L 280.445313 367.09375 L 281.230469 367.554688 L 282.011719 368.015625 L 282.796875 368.472656 L 283.585938 368.921875 L 284.375 369.367188 L 285.164063 369.808594 L 285.957031 370.246094 L 286.75 370.679688 L 287.546875 371.105469 L 288.34375 371.527344 L 289.140625 371.945313 L 289.941406 372.359375 L 290.742188 372.769531 L 292.351563 373.574219 L 293.15625 373.96875 L 293.964844 374.359375 L 295.582031 375.125 L 296.390625 375.503906 L 297.203125 375.878906 L 298.015625 376.25 L 298.828125 376.617188 L 299.640625 376.980469 L 300.453125 377.339844 L 301.269531 377.695313 L 302.082031 378.046875 L 302.898438 378.394531 L 303.71875 378.738281 L 304.535156 379.078125 L 305.355469 379.414063 L 306.179688 379.742188 L 307 380.066406 L 307.824219 380.386719 L 308.652344 380.703125 L 309.476563 381.011719 L 310.308594 381.3125 L 311.136719 381.609375 L 311.96875 381.902344 L 312.804688 382.1875 L 313.636719 382.46875 L 314.472656 382.742188 L 315.3125 383.011719 L 316.148438 383.277344 L 317.828125 383.792969 L 319.507813 384.292969 L 321.1875 384.777344 L 322.03125 385.011719 L 322.871094 385.246094 L 323.714844 385.480469 L 325.394531 385.933594 L 326.238281 386.160156 L 327.078125 386.378906 L 327.917969 386.601563 L 328.761719 386.816406 L 329.601563 387.03125 L 330.445313 387.246094 L 331.285156 387.453125 L 332.128906 387.660156 L 332.96875 387.867188 L 335.5 388.464844 L 338.03125 389.039063 L 340.5625 389.589844 L 341.410156 389.769531 L 342.253906 389.945313 L 343.949219 390.296875 L 344.792969 390.46875 L 346.488281 390.8125 L 348.183594 391.148438 L 349.03125 391.320313 L 350.726563 391.65625 L 351.578125 391.828125 L 352.425781 391.996094 L 353.277344 392.164063 L 354.128906 392.335938 L 356.683594 392.839844 L 358.394531 393.175781 L 359.253906 393.339844 L 360.109375 393.5 L 361.828125 393.820313 L 362.691406 393.976563 L 363.554688 394.128906 L 364.417969 394.277344 L 365.285156 394.425781 L 367.019531 394.707031 L 368.761719 394.980469 L 369.636719 395.113281 L 370.507813 395.246094 L 371.386719 395.375 L 372.261719 395.507813 L 373.140625 395.636719 L 375.789063 396.023438 L 376.675781 396.15625 L 377.5625 396.285156 L 378.453125 396.417969 L 379.347656 396.554688 L 380.242188 396.6875 L 381.136719 396.824219 L 382.039063 396.960938 L 382.9375 397.101563 L 383.84375 397.242188 L 384.75 397.378906 L 385.660156 397.519531 L 386.574219 397.660156 L 387.488281 397.796875 L 388.40625 397.9375 L 389.328125 398.074219 L 390.25 398.207031 L 391.175781 398.34375 L 392.105469 398.480469 L 393.039063 398.613281 L 393.976563 398.742188 L 394.914063 398.875 L 395.855469 399.003906 L 396.800781 399.128906 L 398.699219 399.371094 L 399.652344 399.488281 L 400.609375 399.601563 L 401.570313 399.710938 L 402.535156 399.816406 L 404.464844 400.011719 L 406.410156 400.183594 L 407.382813 400.257813 L 408.359375 400.328125 L 409.339844 400.386719 L 410.320313 400.441406 L 411.300781 400.488281 L 412.285156 400.527344 L 413.273438 400.558594 L 415.25 400.605469 L 416.242188 400.617188 L 417.234375 400.625 L 418.230469 400.628906 L 419.230469 400.628906 L 420.230469 400.625 L 421.234375 400.613281 L 422.242188 400.601563 L 423.25 400.582031 L 424.261719 400.5625 L 425.277344 400.539063 L 427.316406 400.484375 L 429.371094 400.414063 L 430.398438 400.375 L 431.433594 400.332031 L 432.46875 400.28125 L 433.507813 400.226563 L 434.546875 400.167969 L 435.589844 400.105469 L 436.636719 400.035156 L 437.683594 399.957031 L 438.734375 399.875 L 439.785156 399.789063 L 440.839844 399.695313 L 441.894531 399.597656 L 442.953125 399.492188 L 444.015625 399.382813 L 445.074219 399.261719 L 446.140625 399.136719 L 447.203125 399.003906 L 448.265625 398.859375 L 449.332031 398.710938 L 450.398438 398.550781 L 451.460938 398.378906 L 452.527344 398.203125 L 453.589844 398.011719 L 454.65625 397.8125 L 455.71875 397.601563 L 456.777344 397.378906 L 457.835938 397.148438 L 458.890625 396.898438 L 459.941406 396.640625 L 460.992188 396.371094 L 462.039063 396.085938 L 463.082031 395.792969 L 464.125 395.488281 L 465.164063 395.171875 L 466.203125 394.847656 L 467.238281 394.511719 L 468.273438 394.167969 L 469.304688 393.8125 L 470.335938 393.453125 L 471.363281 393.082031 L 472.390625 392.707031 L 473.417969 392.320313 L 474.445313 391.929688 L 475.472656 391.53125 L 476.5 391.128906 L 477.523438 390.71875 L 478.550781 390.300781 L 479.574219 389.878906 L 480.601563 389.449219 L 481.625 389.015625 L 482.648438 388.570313 L 483.671875 388.121094 L 484.691406 387.664063 L 485.710938 387.199219 L 486.730469 386.726563 L 487.746094 386.25 L 488.761719 385.765625 L 489.777344 385.269531 L 490.792969 384.769531 L 491.800781 384.261719 L 492.8125 383.746094 L 493.820313 383.226563 L 494.828125 382.695313 L 495.832031 382.15625 L 496.832031 381.613281 L 497.832031 381.0625 L 498.832031 380.5 L 499.828125 379.933594 L 500.820313 379.359375 L 501.8125 378.777344 L 502.800781 378.1875 L 503.785156 377.59375 L 504.769531 376.988281 L 505.75 376.375 L 506.726563 375.753906 L 507.703125 375.125 L 508.671875 374.488281 L 509.636719 373.84375 L 510.601563 373.191406 L 511.558594 372.527344 L 512.511719 371.859375 L 513.464844 371.179688 L 514.410156 370.496094 L 515.351563 369.800781 L 516.285156 369.097656 L 517.214844 368.382813 L 518.140625 367.664063 L 519.0625 366.933594 L 519.976563 366.195313 L 520.882813 365.449219 L 521.785156 364.691406 L 522.679688 363.929688 L 523.570313 363.15625 L 524.453125 362.375 L 525.328125 361.585938 L 526.199219 360.785156 L 527.0625 359.976563 L 527.917969 359.160156 L 528.765625 358.335938 L 529.605469 357.503906 L 530.4375 356.664063 L 531.265625 355.8125 L 532.082031 354.953125 L 532.890625 354.089844 L 533.695313 353.214844 L 534.488281 352.332031 L 535.277344 351.441406 L 536.054688 350.542969 L 536.824219 349.636719 L 537.585938 348.726563 L 538.339844 347.804688 L 539.085938 346.875 L 539.820313 345.9375 L 540.546875 344.992188 L 541.261719 344.039063 L 541.96875 343.082031 L 542.664063 342.113281 L 543.347656 341.136719 L 544.023438 340.152344 L 544.6875 339.160156 L 545.339844 338.164063 L 545.980469 337.15625 L 546.609375 336.144531 L 547.222656 335.121094 L 547.828125 334.09375 L 548.421875 333.058594 L 549 332.015625 L 549.566406 330.964844 L 550.121094 329.910156 L 550.664063 328.847656 L 551.195313 327.777344 L 551.710938 326.703125 L 552.21875 325.621094 L 552.710938 324.535156 L 553.195313 323.441406 L 553.664063 322.34375 L 554.121094 321.242188 L 554.570313 320.136719 L 555.003906 319.023438 L 555.429688 317.910156 L 555.84375 316.789063 L 556.246094 315.664063 L 556.636719 314.539063 L 557.015625 313.40625 L 557.386719 312.269531 L 557.742188 311.128906 L 558.085938 309.988281 L 558.417969 308.839844 L 558.738281 307.691406 L 559.042969 306.535156 L 559.339844 305.378906 L 559.621094 304.21875 L 559.890625 303.058594 L 560.144531 301.890625 L 560.386719 300.722656 L 560.617188 299.550781 L 560.832031 298.378906 L 561.035156 297.203125 L 561.230469 296.023438 L 561.410156 294.84375 L 561.582031 293.664063 L 561.742188 292.484375 L 561.894531 291.300781 L 562.035156 290.121094 L 562.171875 288.9375 L 562.304688 287.753906 L 562.546875 285.386719 L 562.660156 284.207031 L 562.769531 283.023438 L 562.875 281.84375 L 562.976563 280.660156 L 563.179688 278.300781 L 563.460938 274.761719 L 563.550781 273.585938 L 563.636719 272.40625 L 563.71875 271.226563 L 563.796875 270.050781 L 563.871094 268.871094 L 563.941406 267.695313 L 564.074219 265.335938 L 564.132813 264.160156 L 564.1875 262.980469 L 564.238281 261.800781 L 564.285156 260.625 L 564.324219 259.445313 L 564.359375 258.265625 L 564.390625 257.085938 L 564.414063 255.910156 L 564.4375 254.730469 L 564.453125 253.550781 L 564.460938 252.371094 L 564.464844 251.191406 L 564.464844 250.011719 L 564.457031 248.832031 L 564.441406 247.652344 L 564.421875 246.472656 L 564.394531 245.292969 L 564.363281 244.117188 L 564.320313 242.9375 L 564.273438 241.757813 L 564.21875 240.578125 L 564.15625 239.398438 L 564.082031 238.222656 L 564.003906 237.042969 L 563.917969 235.867188 L 563.820313 234.691406 L 563.71875 233.515625 L 563.605469 232.339844 L 563.484375 231.164063 L 563.355469 229.992188 L 563.21875 228.820313 L 563.070313 227.648438 L 562.914063 226.476563 L 562.75 225.308594 L 562.574219 224.140625 L 562.394531 222.976563 L 562.203125 221.808594 L 562 220.648438 L 561.792969 219.484375 L 561.574219 218.324219 L 561.347656 217.167969 L 561.109375 216.011719 L 560.867188 214.855469 L 560.613281 213.703125 L 560.351563 212.550781 L 560.082031 211.402344 L 559.804688 210.257813 L 559.519531 209.113281 L 559.226563 207.96875 L 558.925781 206.828125 L 558.621094 205.691406 L 558.304688 204.554688 L 557.984375 203.421875 L 557.652344 202.289063 L 557.316406 201.160156 L 556.972656 200.03125 L 556.621094 198.910156 L 556.257813 197.789063 L 555.890625 196.667969 L 555.511719 195.554688 L 555.125 194.441406 L 554.730469 193.332031 L 554.324219 192.226563 L 553.910156 191.125 L 553.488281 190.023438 L 553.058594 188.929688 L 552.617188 187.839844 L 552.164063 186.753906 L 551.703125 185.671875 L 551.234375 184.59375 L 550.753906 183.519531 L 550.265625 182.449219 L 549.769531 181.382813 L 549.269531 180.324219 L 548.757813 179.265625 L 548.238281 178.210938 L 547.714844 177.160156 L 547.183594 176.113281 L 546.644531 175.074219 L 546.101563 174.035156 L 545.554688 173 L 545 171.964844 L 544.4375 170.9375 L 543.875 169.914063 L 543.304688 168.890625 L 542.726563 167.875 L 542.144531 166.859375 L 541.558594 165.847656 L 540.964844 164.84375 L 540.363281 163.839844 L 539.757813 162.84375 L 539.140625 161.851563 L 538.519531 160.863281 L 537.890625 159.882813 L 537.253906 158.90625 L 536.609375 157.933594 L 535.957031 156.96875 L 535.296875 156.007813 L 534.625 155.054688 L 533.949219 154.105469 L 533.261719 153.167969 L 532.570313 152.230469 L 531.867188 151.304688 L 531.15625 150.382813 L 530.433594 149.46875 L 529.707031 148.5625 L 528.972656 147.660156 L 528.230469 146.765625 L 527.480469 145.878906 L 526.722656 145 L 525.957031 144.128906 L 525.183594 143.261719 L 524.402344 142.402344 L 523.617188 141.554688 L 522.820313 140.710938 L 522.019531 139.875 L 521.210938 139.046875 L 520.394531 138.226563 L 519.570313 137.414063 L 518.738281 136.609375 L 517.898438 135.8125 L 517.050781 135.027344 L 516.195313 134.25 L 515.335938 133.480469 L 514.464844 132.71875 L 513.585938 131.96875 L 512.699219 131.230469 L 511.804688 130.5 L 510.90625 129.777344 L 509.996094 129.070313 L 509.078125 128.367188 L 508.15625 127.679688 L 507.222656 127 L 506.285156 126.332031 L 505.339844 125.671875 L 504.390625 125.023438 L 503.429688 124.382813 L 502.46875 123.753906 L 501.5 123.136719 L 500.527344 122.523438 L 499.546875 121.925781 L 498.5625 121.332031 L 497.578125 120.75 L 496.585938 120.175781 L 495.589844 119.613281 L 494.589844 119.058594 L 493.585938 118.511719 L 492.578125 117.976563 L 491.570313 117.445313 L 490.554688 116.925781 L 489.539063 116.414063 L 488.523438 115.910156 L 487.5 115.417969 L 486.476563 114.929688 L 485.449219 114.453125 L 484.421875 113.980469 L 483.390625 113.519531 L 482.359375 113.066406 L 481.324219 112.625 L 480.289063 112.1875 L 479.25 111.757813 L 478.210938 111.335938 L 477.167969 110.921875 L 476.125 110.515625 L 475.082031 110.121094 L 474.035156 109.730469 L 472.988281 109.351563 L 471.941406 108.980469 L 470.890625 108.617188 L 469.835938 108.261719 L 468.78125 107.921875 L 467.726563 107.585938 L 466.667969 107.261719 L 465.605469 106.949219 L 464.539063 106.648438 L 463.472656 106.359375 L 462.40625 106.078125 L 461.332031 105.8125 L 460.257813 105.558594 L 459.183594 105.316406 L 458.101563 105.085938 L 457.019531 104.871094 L 455.9375 104.667969 L 454.851563 104.476563 L 453.761719 104.296875 L 452.671875 104.132813 L 451.578125 103.980469 L 450.484375 103.839844 L 449.390625 103.714844 L 448.296875 103.601563 L 447.199219 103.5 L 446.101563 103.414063 L 445 103.339844 L 443.902344 103.277344 L 442.800781 103.230469 L 441.703125 103.195313 L 440.601563 103.171875 L 439.503906 103.160156 L 438.402344 103.164063 L 437.304688 103.179688 L 436.203125 103.207031 L 435.105469 103.25 L 434.007813 103.300781 L 432.914063 103.367188 L 431.820313 103.445313 L 430.726563 103.539063 L 429.632813 103.640625 L 428.542969 103.757813 L 427.457031 103.886719 L 426.371094 104.027344 L 425.289063 104.175781 L 424.207031 104.339844 L 423.128906 104.511719 L 422.054688 104.695313 L 420.984375 104.890625 L 419.917969 105.09375 L 418.851563 105.308594 L 417.792969 105.527344 L 416.738281 105.757813 L 415.6875 105.992188 L 414.640625 106.238281 L 413.601563 106.488281 L 412.5625 106.742188 L 411.53125 107.003906 L 410.507813 107.269531 L 409.488281 107.542969 L 408.472656 107.816406 L 407.464844 108.09375 L 406.460938 108.375 L 405.460938 108.660156 L 404.46875 108.945313 L 403.484375 109.234375 L 402.503906 109.523438 L 401.53125 109.816406 L 400.5625 110.109375 L 399.597656 110.402344 L 398.640625 110.699219 L 397.6875 110.992188 L 396.742188 111.289063 L 394.867188 111.882813 L 393.9375 112.175781 L 393.015625 112.472656 L 392.097656 112.765625 L 391.183594 113.054688 L 390.277344 113.347656 L 389.375 113.636719 L 388.476563 113.921875 L 387.585938 114.207031 L 386.699219 114.484375 L 385.816406 114.765625 L 384.9375 115.039063 L 384.066406 115.308594 L 383.199219 115.578125 L 382.335938 115.839844 L 381.476563 116.101563 L 380.621094 116.355469 L 379.769531 116.605469 L 378.921875 116.851563 L 378.078125 117.09375 L 376.398438 117.5625 L 375.566406 117.789063 L 374.738281 118.007813 L 373.910156 118.222656 L 373.085938 118.433594 L 372.261719 118.636719 L 371.445313 118.835938 L 370.625 119.027344 L 369.8125 119.214844 L 369 119.394531 L 368.1875 119.570313 L 367.378906 119.738281 L 366.570313 119.902344 L 365.761719 120.058594 L 364.957031 120.210938 L 364.152344 120.355469 L 363.347656 120.496094 L 362.546875 120.628906 L 361.742188 120.753906 L 360.9375 120.875 L 360.136719 120.988281 L 359.332031 121.09375 L 358.53125 121.191406 L 357.726563 121.285156 L 356.921875 121.371094 L 356.117188 121.449219 L 355.308594 121.519531 L 354.5 121.582031 L 353.691406 121.640625 L 352.878906 121.6875 L 352.0625 121.726563 L 351.246094 121.757813 L 350.429688 121.785156 L 349.609375 121.804688 L 348.785156 121.816406 L 347.957031 121.824219 L 347.128906 121.824219 L 346.296875 121.820313 L 345.460938 121.8125 L 344.621094 121.800781 L 342.933594 121.761719 L 342.085938 121.738281 L 341.234375 121.710938 L 340.378906 121.683594 L 339.519531 121.652344 L 337.792969 121.589844 L 336.921875 121.554688 L 336.050781 121.515625 L 335.171875 121.476563 L 334.292969 121.433594 L 333.40625 121.390625 L 332.515625 121.34375 L 331.621094 121.296875 L 330.722656 121.242188 L 329.816406 121.1875 L 328.90625 121.132813 L 327.992188 121.070313 L 327.070313 121.007813 L 326.144531 120.941406 L 325.210938 120.875 L 324.273438 120.800781 L 323.332031 120.730469 L 322.378906 120.652344 L 321.425781 120.578125 L 320.464844 120.5 L 319.496094 120.425781 L 318.523438 120.347656 L 317.546875 120.273438 L 316.566406 120.203125 L 315.578125 120.132813 L 314.585938 120.066406 L 313.589844 120.003906 L 311.582031 119.886719 L 310.570313 119.835938 L 309.558594 119.792969 L 308.539063 119.75 L 307.519531 119.71875 L 306.496094 119.691406 L 305.46875 119.671875 L 304.4375 119.660156 L 303.40625 119.65625 L 302.371094 119.660156 L 301.335938 119.675781 L 300.296875 119.699219 L 299.257813 119.730469 L 298.21875 119.777344 L 297.179688 119.832031 L 296.140625 119.898438 L 295.101563 119.976563 L 294.0625 120.070313 L 293.027344 120.175781 L 291.992188 120.292969 L 290.960938 120.425781 L 289.929688 120.570313 L 288.902344 120.730469 L 287.875 120.902344 L 286.855469 121.089844 L 285.835938 121.289063 L 284.820313 121.5 L 283.804688 121.726563 L 282.796875 121.96875 L 281.789063 122.21875 L 280.789063 122.484375 L 279.789063 122.761719 L 278.792969 123.050781 L 277.796875 123.355469 L 276.808594 123.667969 L 275.824219 123.992188 L 274.839844 124.328125 L 273.863281 124.671875 L 272.886719 125.03125 L 271.917969 125.402344 L 270.953125 125.785156 L 269.992188 126.179688 L 269.035156 126.585938 L 268.085938 127.007813 L 267.140625 127.4375 L 266.203125 127.878906 L 265.269531 128.335938 L 264.34375 128.804688 L 263.425781 129.285156 L 262.515625 129.777344 L 261.609375 130.285156 L 260.714844 130.804688 L 259.824219 131.335938 L 258.941406 131.875 L 258.066406 132.425781 L 257.191406 132.984375 L 256.324219 133.550781 L 255.460938 134.125 L 254.597656 134.707031 L 253.738281 135.292969 L 252.878906 135.882813 L 252.023438 136.476563 L 251.164063 137.074219 L 250.304688 137.675781 L 248.578125 138.878906 L 246.835938 140.082031 L 245.957031 140.6875 L 245.074219 141.289063 L 244.191406 141.894531 L 243.304688 142.503906 L 242.417969 143.117188 L 241.527344 143.730469 L 240.636719 144.347656 L 239.746094 144.972656 L 238.855469 145.601563 L 237.96875 146.234375 L 237.082031 146.875 L 236.195313 147.519531 L 235.316406 148.175781 L 234.4375 148.835938 L 233.5625 149.503906 L 232.691406 150.179688 L 231.824219 150.863281 L 230.964844 151.554688 L 230.105469 152.253906 L 229.253906 152.960938 L 228.402344 153.671875 L 227.554688 154.390625 L 226.710938 155.117188 L 225.867188 155.847656 L 225.027344 156.582031 L 224.1875 157.324219 L 223.351563 158.074219 L 222.519531 158.828125 L 221.691406 159.589844 L 220.863281 160.359375 L 220.039063 161.128906 L 219.214844 161.910156 L 218.398438 162.695313 L 217.582031 163.488281 L 216.765625 164.285156 L 215.957031 165.085938 L 215.148438 165.894531 L 214.34375 166.710938 L 213.542969 167.535156 L 212.746094 168.363281 L 211.953125 169.199219 L 211.164063 170.039063 L 210.378906 170.886719 L 209.59375 171.738281 L 208.8125 172.597656 L 208.035156 173.460938 L 207.257813 174.328125 L 206.480469 175.203125 L 205.710938 176.085938 L 204.941406 176.972656 L 204.179688 177.863281 L 203.417969 178.765625 L 202.667969 179.671875 L 201.921875 180.585938 L 201.179688 181.507813 L 200.449219 182.433594 L 199.726563 183.371094 L 199.011719 184.316406 L 198.308594 185.269531 L 197.613281 186.230469 L 196.933594 187.199219 L 196.265625 188.175781 L 195.609375 189.164063 L 194.96875 190.160156 L 194.34375 191.164063 L 193.726563 192.171875 L 193.125 193.191406 L 192.535156 194.21875 L 191.957031 195.25 L 191.386719 196.289063 L 190.828125 197.332031 L 190.277344 198.382813 L 189.734375 199.4375 L 189.199219 200.5 L 188.671875 201.566406 L 188.152344 202.636719 L 187.636719 203.710938 L 187.128906 204.789063 L 186.621094 205.871094 L 186.121094 206.957031 L 185.625 208.046875 L 185.136719 209.140625 L 184.648438 210.242188 L 184.167969 211.34375 L 183.691406 212.449219 L 183.222656 213.5625 L 182.761719 214.675781 L 182.308594 215.796875 L 181.859375 216.921875 L 181.421875 218.050781 L 180.988281 219.183594 L 180.5625 220.316406 L 180.144531 221.457031 L 179.730469 222.601563 L 179.328125 223.75 L 178.929688 224.90625 L 178.539063 226.0625 L 178.160156 227.222656 L 177.785156 228.382813 L 177.417969 229.550781 L 177.0625 230.722656 L 176.710938 231.898438 L 176.367188 233.078125 L 176.03125 234.257813 L 175.703125 235.445313 L 175.386719 236.632813 L 175.074219 237.824219 L 174.773438 239.023438 L 174.484375 240.21875 L 174.203125 241.421875 L 173.933594 242.628906 L 173.675781 243.835938 L 173.425781 245.046875 L 173.1875 246.261719 L 172.957031 247.480469 L 172.734375 248.699219 L 172.519531 249.921875 L 172.3125 251.144531 L 172.113281 252.371094 "/>
</g>
</g>
</svg>
